SplineFontDB: 3.0
FontName: eh17
FullName: eh17
FamilyName: eh17
Weight: Regular
Copyright: Copyright (C) 2011-2012 Severin Meyer\nModified by Jiska Classen 2016
Version: 2.0
DefaultBaseFilename: eh17
ItalicAngle: 0
UnderlinePosition: -75
UnderlineWidth: 60
Ascent: 800
Descent: 200
sfntRevision: 0x00020000
LayerCount: 2
Layer: 0 0 "Back"  1
Layer: 1 0 "Fore"  0
XUID: [1021 978 1458175891 6279647]
FSType: 0
OS2Version: 3
OS2_WeightWidthSlopeOnly: 0
OS2_UseTypoMetrics: 1
CreationTime: 1293620299
ModificationTime: 1467828256
PfmFamily: 17
TTFWeight: 400
TTFWidth: 5
LineGap: 90
VLineGap: 0
Panose: 2 0 5 3 0 0 0 0 0 0
OS2TypoAscent: 800
OS2TypoAOffset: 0
OS2TypoDescent: -200
OS2TypoDOffset: 0
OS2TypoLinegap: 90
OS2WinAscent: 890
OS2WinAOffset: 0
OS2WinDescent: 225
OS2WinDOffset: 0
HheadAscent: 890
HheadAOffset: 0
HheadDescent: -225
HheadDOffset: 0
OS2SubXSize: 650
OS2SubYSize: 699
OS2SubXOff: 0
OS2SubYOff: 140
OS2SupXSize: 650
OS2SupYSize: 699
OS2SupXOff: 0
OS2SupYOff: 479
OS2StrikeYSize: 49
OS2StrikeYPos: 258
OS2Vendor: 'PfEd'
OS2CodePages: 2000009f.00000000
OS2UnicodeRanges: a00002ef.4000205b.00000000.00000000
Lookup: 258 0 0 "'kern' Horizontal Kerning in Latin lookup 0"  {"'kern' Horizontal Kerning in Latin lookup 0 per glyph data 0"  "'kern' Horizontal Kerning in Latin lookup 0 kerning class 1"  } ['kern' ('latn' <'dflt' > ) ]
Lookup: 258 0 0 "'kern' Horizontal Kerning in Greek lookup 1"  {"'kern' Horizontal Kerning in Greek lookup 1 subtable"  } ['kern' ('grek' <'dflt' > ) ]
Lookup: 258 0 0 "'kern' Horizontal Kerning in Cyrillic lookup 2"  {"'kern' Horizontal Kerning in Cyrillic lookup 2 per glyph data 0"  "'kern' Horizontal Kerning in Cyrillic lookup 2 kerning class 1"  } ['kern' ('cyrl' <'dflt' > ) ]
MarkAttachClasses: 1
DEI: 91125
KernClass2: 28 21 "'kern' Horizontal Kerning in Latin lookup 0 kerning class 1" 
 84 A Agrave Aacute Acircumflex Atilde Adieresis Aring Amacron Abreve Aogonek Aringacute
 33 D Eth Thorn Dcaron Dcroat uni1E0A
 9 F uni1E1E

StartChar: .notdef
Encoding: 65536 -1 0
Width: 700
Flags: MW
HStem: 0 50<200 500 200 600> 610 50<200 500 200 200>
VStem: 100 100<50 50 50 610> 500 100<50 610 610 610>
LayerCount: 2
Fore
SplineSet
100 0 m 1
 100 660 l 1
 600 660 l 1
 600 0 l 1
 100 0 l 1
200 50 m 1
 500 50 l 1
 500 610 l 1
 200 610 l 1
 200 50 l 1
EndSplineSet
EndChar

StartChar: exclam
Encoding: 33 33 2
Width: 300
GlyphClass: 2
Flags: MW
HStem: 0 120<75 225 75 225> 225 21G<75 75 75 225> 640 20G<75 225 225 225>
VStem: 75 150<0 120 0 120 225 660>
LayerCount: 2
Fore
SplineSet
75 0 m 1
 75 120 l 1
 225 120 l 1
 225 0 l 1
 75 0 l 1
75 225 m 1
 75 660 l 1
 225 660 l 1
 225 225 l 1
 75 225 l 1
EndSplineSet
EndChar

StartChar: quotedbl
Encoding: 34 34 3
Width: 510
GlyphClass: 2
Flags: MW
HStem: 410 250<75 195 75 195 75 315 315 435>
VStem: 75 120<410 660 410 660> 315 120<410 660 410 660>
LayerCount: 2
Fore
SplineSet
315 410 m 1
 315 660 l 1
 435 660 l 1
 435 410 l 1
 315 410 l 1
75 410 m 1
 75 660 l 1
 195 660 l 1
 195 410 l 1
 75 410 l 1
EndSplineSet
EndChar

StartChar: numbersign
Encoding: 35 35 4
Width: 870
GlyphClass: 2
Flags: MW
HStem: 0 21G<80 210 80 80 440 570 440 440> 150 90<60 160 60 130 290 490 650 770> 420 90<100 220 100 250 380 580 740 810> 640 20G<300 430 430 430 660 790 790 790>
LayerCount: 2
Fore
SplineSet
60 150 m 1
 60 240 l 1
 160 240 l 1
 220 420 l 1
 100 420 l 1
 100 510 l 1
 250 510 l 1
 300 660 l 1
 430 660 l 1
 380 510 l 1
 610 510 l 1
 660 660 l 1
 790 660 l 1
 740 510 l 1
 810 510 l 1
 810 420 l 1
 710 420 l 1
 650 240 l 1
 770 240 l 1
 770 150 l 1
 620 150 l 1
 570 0 l 1
 440 0 l 1
 490 150 l 1
 260 150 l 1
 210 0 l 1
 80 0 l 1
 130 150 l 1
 60 150 l 1
290 240 m 1
 520 240 l 1
 580 420 l 1
 350 420 l 1
 290 240 l 1
EndSplineSet
EndChar

StartChar: dollar
Encoding: 36 36 5
Width: 890
GlyphClass: 2
Flags: MW
HStem: 0 85<70 385 70 385 505 580> 325 85<280 310 310 385 505 580 580 610> 575 85<265 385 310 385 310 385 505 770>
VStem: 70 150<460 525 525 540 427.5 592.5> 70 315<-85 85 -85 85 460 525 525 575> 385 120<-85 0 -85 0 85 325 410 575 660 745> 505 315<-85 135 -85 135 85 135 135 275 67.5 325 85 85 67.5 575 67.5 410> 670 150<120 135 135 275 67.5 290>
CounterMasks: 1 15
LayerCount: 2
Fore
SplineSet
70 0 m 1xf5
 70 85 l 1
 385 85 l 1
 385 325 l 1
 310 325 l 2
 190 325 70 325 70 460 c 2
 70 525 l 2
 70 660 190 660 310 660 c 2
 385 660 l 1
 385 745 l 1
 505 745 l 1
 505 660 l 1
 770 660 l 1
 770 575 l 1
 505 575 l 1
 505 410 l 1
 580 410 l 2
 700 410 820 410 820 275 c 2
 820 135 l 2
 820 0 700 0 580 0 c 2
 505 0 l 1
 505 -85 l 1
 385 -85 l 1
 385 0 l 1
 70 0 l 1xf5
220 445 m 2
 220 410 250 410 280 410 c 2
 385 410 l 1
 385 575 l 1
 280 575 l 2
 250 575 220 575 220 540 c 2
 220 445 l 2
505 85 m 1
 610 85 l 2
 640 85 670 85 670 120 c 2
 670 290 l 2
 670 325 640 325 610 325 c 2
 505 325 l 1
 505 85 l 1
EndSplineSet
EndChar

StartChar: percent
Encoding: 37 37 6
Width: 1190
GlyphClass: 2
Flags: MW
HStem: 0 21<370 370 370 490 830 870 870 970> 640 20<220 320 320 360 700 820 820 820>
VStem: 60 120<410 570 570 575> 360 120<405 410 410 570> 710 120<90 250 250 255> 1010 120<85 90 90 250>
LayerCount: 2
Fore
SplineSet
710 90 m 2
 710 250 l 2
 710 340 790 340 870 340 c 2
 970 340 l 2
 1050 340 1130 340 1130 250 c 2
 1130 90 l 2
 1130 0 1050 0 970 0 c 2
 870 0 l 2
 790 0 710 0 710 90 c 2
830 85 m 2
 830 60 850 60 870 60 c 2
 970 60 l 2
 990 60 1010 60 1010 85 c 2
 1010 255 l 2
 1010 280 990 280 970 280 c 2
 870 280 l 2
 850 280 830 280 830 255 c 2
 830 85 l 2
60 410 m 2
 60 570 l 2
 60 660 140 660 220 660 c 2
 320 660 l 2
 400 660 480 660 480 570 c 2
 480 410 l 2
 480 320 400 320 320 320 c 2
 220 320 l 2
 140 320 60 320 60 410 c 2
180 405 m 2
 180 380 200 380 220 380 c 2
 320 380 l 2
 340 380 360 380 360 405 c 2
 360 575 l 2
 360 600 340 600 320 600 c 2
 220 600 l 2
 200 600 180 600 180 575 c 2
 180 405 l 2
370 0 m 1
 700 660 l 1
 820 660 l 1
 490 0 l 1
 370 0 l 1
EndSplineSet
EndChar

StartChar: ampersand
Encoding: 38 38 7
Width: 890
GlyphClass: 2
Flags: MW
HStem: 0 85<280 310 310 545 280 580> 575 85<345 470 390 470 470 500>
VStem: 70 150<135 290> 150 150<510 520 520 540 510 592.5> 560 150<510 525 510 540 510 557.5> 670 150<130 135 135 300>
LayerCount: 2
Fore
SplineSet
70 135 m 2xe4
 70 290 l 2
 70 380 155 410 220 410 c 1xe4
 165 465 150 480 150 525 c 0
 150 660 270 660 390 660 c 2
 470 660 l 2
 590 660 710 660 710 525 c 2
 710 510 l 1
 560 510 l 1
 560 540 l 2
 560 575 530 575 500 575 c 2
 360 575 l 2
 330 575 300 575 300 540 c 2
 300 520 l 2xd4
 300 500 310 490 320 480 c 2
 670 130 l 1
 670 300 l 1
 820 300 l 1
 820 135 l 2
 820 0 700 0 580 0 c 2
 310 0 l 2
 190 0 70 0 70 135 c 2xe4
220 120 m 2
 220 85 250 85 280 85 c 2
 545 85 l 1
 305 325 l 1
 280 325 l 2
 250 325 220 325 220 290 c 2
 220 120 l 2
EndSplineSet
EndChar

StartChar: quotesingle
Encoding: 39 39 8
Width: 270
GlyphClass: 2
Flags: MW
HStem: 410 250<75 195 75 195>
VStem: 75 120<410 660 410 660>
LayerCount: 2
Fore
SplineSet
75 410 m 1
 75 660 l 1
 195 660 l 1
 195 410 l 1
 75 410 l 1
EndSplineSet
EndChar

StartChar: parenleft
Encoding: 40 40 9
Width: 395
GlyphClass: 2
Flags: MW
HStem: -225 21G<235 335 235 235> 640 20G<235 335 335 335>
VStem: 75 120<140 300>
LayerCount: 2
Fore
SplineSet
75 220 m 0
 75 380 135 540 235 660 c 1
 335 660 l 1
 245 540 195 380 195 220 c 0
 195 60 245 -105 335 -225 c 1
 235 -225 l 1
 135 -105 75 60 75 220 c 0
EndSplineSet
EndChar

StartChar: parenright
Encoding: 41 41 10
Width: 395
GlyphClass: 2
Flags: MW
HStem: -225 21G<60 60 60 160> 640 20G<60 160 160 160>
VStem: 200 120<140 300>
LayerCount: 2
Fore
SplineSet
60 -225 m 1
 150 -105 200 60 200 220 c 0
 200 380 150 540 60 660 c 1
 160 660 l 1
 260 540 320 380 320 220 c 0
 320 60 260 -105 160 -225 c 1
 60 -225 l 1
EndSplineSet
EndChar

StartChar: asterisk
Encoding: 42 42 11
Width: 649
GlyphClass: 2
Flags: MW
HStem: 194 21G<228 228 421 421> 640 20G<269 379 379 379>
VStem: 269 110<496 660 496 660>
LayerCount: 2
Fore
SplineSet
60 448 m 1
 94 553 l 1
 269 496 l 1
 269 660 l 1
 379 660 l 1
 379 496 l 1
 555 553 l 1
 589 448 l 1
 413 391 l 1
 510 258 l 1
 421 194 l 1
 324 326 l 1
 228 194 l 1
 139 258 l 1
 235 391 l 1
 60 448 l 1
EndSplineSet
EndChar

StartChar: plus
Encoding: 43 43 12
Width: 700
GlyphClass: 2
Flags: MW
HStem: 0 21G<275 425 275 275> 190 100<60 275 60 275 425 640> 460 20G<275 425 425 425>
VStem: 275 150<0 190 0 190 290 480>
LayerCount: 2
Fore
SplineSet
60 190 m 1
 60 290 l 1
 275 290 l 1
 275 480 l 1
 425 480 l 1
 425 290 l 1
 640 290 l 1
 640 190 l 1
 425 190 l 1
 425 0 l 1
 275 0 l 1
 275 190 l 1
 60 190 l 1
EndSplineSet
EndChar

StartChar: comma
Encoding: 44 44 13
Width: 320
GlyphClass: 2
Flags: MW
HStem: -150 270<45 245 105 125>
LayerCount: 2
Fore
SplineSet
45 -150 m 1
 105 120 l 1
 245 120 l 1
 125 -150 l 1
 45 -150 l 1
EndSplineSet
EndChar

StartChar: hyphen
Encoding: 45 45 14
Width: 520
GlyphClass: 2
Flags: MW
HStem: 190 100<60 460 60 460>
VStem: 60 400<190 290 190 290>
LayerCount: 2
Fore
SplineSet
60 190 m 1
 60 290 l 1
 460 290 l 1
 460 190 l 1
 60 190 l 1
EndSplineSet
EndChar

StartChar: period
Encoding: 46 46 15
Width: 300
GlyphClass: 2
Flags: MW
HStem: 0 120<75 225 75 225>
VStem: 75 150<0 120 0 120>
LayerCount: 2
Fore
SplineSet
75 0 m 1
 75 120 l 1
 225 120 l 1
 225 0 l 1
 75 0 l 1
EndSplineSet
EndChar

StartChar: slash
Encoding: 47 47 16
Width: 620
GlyphClass: 2
Flags: MW
HStem: -100 21G<60 60 60 180> 640 20G<440 560 560 560>
LayerCount: 2
Fore
SplineSet
60 -100 m 1
 440 660 l 1
 560 660 l 1
 180 -100 l 1
 60 -100 l 1
EndSplineSet
EndChar

StartChar: zero
Encoding: 48 48 17
Width: 870
GlyphClass: 2
Flags: MW
HStem: 0 85<270 300 300 570> 575 85<255 570 300 570 570 600>
VStem: 60 150<135 525 525 540> 660 150<120 135 135 525>
LayerCount: 2
Fore
SplineSet
60 135 m 2
 60 525 l 2
 60 660 180 660 300 660 c 2
 570 660 l 2
 690 660 810 660 810 525 c 2
 810 135 l 2
 810 0 690 0 570 0 c 2
 300 0 l 2
 180 0 60 0 60 135 c 2
210 120 m 2
 210 85 240 85 270 85 c 2
 600 85 l 2
 630 85 660 85 660 120 c 2
 660 540 l 2
 660 575 630 575 600 575 c 2
 270 575 l 2
 240 575 210 575 210 540 c 2
 210 120 l 2
EndSplineSet
EndChar

StartChar: one
Encoding: 49 49 18
Width: 490
GlyphClass: 2
Flags: HMW
HStem: 877.818 0.00434686G<4.50148e+08 6.18113e+08 4.50148e+08 4.50148e+08> 877.937 0.0175944<2.03798e+08 4.50148e+08 2.03798e+08 6.18113e+08>
VStem: 2.03798e+08 2.35152e+07G<877.937 877.955 877.955 877.955> 4.50148e+08 1.67966e+08<877.818 877.937 877.937 877.937>
LayerCount: 2
Fore
SplineSet
430 660 m 1
 430 0 l 1
 280 0 l 1
 280 575 l 1
 60 575 l 1
 60 660 l 1
 430 660 l 1
EndSplineSet
EndChar

StartChar: two
Encoding: 50 50 19
Width: 870
GlyphClass: 2
Flags: MW
HStem: 0 85<210 810 210 810> 325 85<255 600 300 570> 575 85<110 570 570 600 110 570>
VStem: 60 150<85 275 275 290 85 342.5> 660 150<445 460 460 525>
LayerCount: 2
Fore
SplineSet
60 0 m 1
 60 275 l 2
 60 410 180 410 300 410 c 2
 600 410 l 2
 630 410 660 410 660 445 c 2
 660 540 l 2
 660 575 630 575 600 575 c 2
 110 575 l 1
 110 660 l 1
 570 660 l 2
 690 660 810 660 810 525 c 2
 810 460 l 2
 810 325 690 325 570 325 c 2
 270 325 l 2
 240 325 210 325 210 290 c 2
 210 85 l 1
 810 85 l 1
 810 0 l 1
 60 0 l 1
EndSplineSet
EndChar

StartChar: three
Encoding: 51 51 20
Width: 870
GlyphClass: 2
Flags: MW
HStem: 0 85<90 600 90 570> 325 85<180 600 180 600> 575 85<90 570 570 600 90 570>
VStem: 660 150<120 135 135 270 67.5 290 445 470 470 525>
LayerCount: 2
Fore
SplineSet
90 0 m 1
 90 85 l 1
 600 85 l 2
 630 85 660 85 660 120 c 2
 660 290 l 2
 660 325 630 325 600 325 c 2
 180 325 l 1
 180 410 l 1
 600 410 l 2
 630 410 660 410 660 445 c 2
 660 540 l 2
 660 575 630 575 600 575 c 2
 90 575 l 1
 90 660 l 1
 570 660 l 2
 690 660 810 660 810 525 c 2
 810 470 l 2
 810 410 770 380 730 370 c 1
 770 360 810 330 810 270 c 2
 810 135 l 2
 810 0 690 0 570 0 c 2
 90 0 l 1
EndSplineSet
EndChar

StartChar: four
Encoding: 52 52 21
Width: 870
GlyphClass: 2
Flags: MW
HStem: 0 21G<660 810 660 660> 155 85<60 60 255 660> 640 20G<600 810 810 810>
VStem: 60 21G<155 240 240 240> 660 150<0 155 155 155 240 555 555 555>
LayerCount: 2
Fore
SplineSet
60 155 m 1
 60 240 l 1
 600 660 l 1
 810 660 l 1
 810 0 l 1
 660 0 l 1
 660 155 l 1
 60 155 l 1
255 240 m 1
 660 240 l 1
 660 555 l 1
 255 240 l 1
EndSplineSet
EndChar

StartChar: five
Encoding: 53 53 22
Width: 870
GlyphClass: 2
Flags: MW
HStem: 0 85<60 600 60 570> 325 85<210 570 570 600> 575 85<210 760 210 210>
VStem: 60 150<410 575 410 660 410 660> 660 150<120 135 135 275 67.5 290>
LayerCount: 2
Fore
SplineSet
60 0 m 1
 60 85 l 1
 600 85 l 2
 630 85 660 85 660 120 c 2
 660 290 l 2
 660 325 630 325 600 325 c 2
 60 325 l 1
 60 660 l 1
 760 660 l 1
 760 575 l 1
 210 575 l 1
 210 410 l 1
 570 410 l 2
 690 410 810 410 810 275 c 2
 810 135 l 2
 810 0 690 0 570 0 c 2
 60 0 l 1
EndSplineSet
EndChar

StartChar: six
Encoding: 54 54 23
Width: 870
GlyphClass: 2
Flags: MW
HStem: 0 85<270 300 300 570> 325 85<255 270 270 570 570 600> 575 85<340 350 350 760>
VStem: 60 150<135 290 410 495> 660 150<120 135 135 275 67.5 290>
LayerCount: 2
Fore
SplineSet
60 135 m 2
 60 500 l 2
 60 660 200 660 340 660 c 2
 760 660 l 1
 760 575 l 1
 350 575 l 2
 280 575 210 575 210 495 c 2
 210 410 l 1
 570 410 l 2
 690 410 810 410 810 275 c 2
 810 135 l 2
 810 0 690 0 570 0 c 2
 300 0 l 2
 180 0 60 0 60 135 c 2
210 120 m 2
 210 85 240 85 270 85 c 2
 600 85 l 2
 630 85 660 85 660 120 c 2
 660 290 l 2
 660 325 630 325 600 325 c 2
 270 325 l 2
 240 325 210 325 210 290 c 2
 210 120 l 2
EndSplineSet
EndChar

StartChar: seven
Encoding: 55 55 24
Width: 870
GlyphClass: 2
Flags: MW
HStem: 0 21G<260 430 260 260> 575 85<60 810 60 640 60 810>
VStem: 60 750<575 660 575 660>
LayerCount: 2
Fore
SplineSet
60 575 m 1
 60 660 l 1
 810 660 l 1
 810 575 l 1
 430 0 l 1
 260 0 l 1
 640 575 l 1
 60 575 l 1
EndSplineSet
EndChar

StartChar: eight
Encoding: 56 56 25
Width: 870
GlyphClass: 2
Flags: MW
HStem: 0 85<270 300 300 570> 325 85<255 600 270 600> 575 85<255 570 300 570 570 600>
VStem: 60 150<135 270 270 290 470 525 525 540> 660 150<120 135 135 270 67.5 290 445 470 470 525>
LayerCount: 2
Fore
SplineSet
60 135 m 2
 60 270 l 2
 60 330 100 360 140 370 c 1
 100 380 60 410 60 470 c 2
 60 525 l 2
 60 660 180 660 300 660 c 2
 570 660 l 2
 690 660 810 660 810 525 c 2
 810 470 l 2
 810 410 770 380 730 370 c 1
 770 360 810 330 810 270 c 2
 810 135 l 2
 810 0 690 0 570 0 c 2
 300 0 l 2
 180 0 60 0 60 135 c 2
210 120 m 2
 210 85 240 85 270 85 c 2
 600 85 l 2
 630 85 660 85 660 120 c 2
 660 290 l 2
 660 325 630 325 600 325 c 2
 270 325 l 2
 240 325 210 325 210 290 c 2
 210 120 l 2
210 445 m 2
 210 410 240 410 270 410 c 2
 600 410 l 2
 630 410 660 410 660 445 c 2
 660 540 l 2
 660 575 630 575 600 575 c 2
 270 575 l 2
 240 575 210 575 210 540 c 2
 210 445 l 2
EndSplineSet
EndChar

StartChar: nine
Encoding: 57 57 26
Width: 870
GlyphClass: 2
Flags: MW
HStem: 0 85<100 520 520 530 100 520> 325 85<270 300 300 600 600 615 270 660> 575 85<255 570 300 570 570 600>
VStem: 60 150<460 525 525 540 427.5 592.5> 660 150<165 325 325 325 445 525>
LayerCount: 2
Fore
SplineSet
60 460 m 2
 60 525 l 2
 60 660 180 660 300 660 c 2
 570 660 l 2
 690 660 810 660 810 525 c 2
 810 160 l 2
 810 0 670 0 530 0 c 2
 100 0 l 1
 100 85 l 1
 520 85 l 2
 590 85 660 85 660 165 c 2
 660 325 l 1
 300 325 l 2
 180 325 60 325 60 460 c 2
210 445 m 2
 210 410 240 410 270 410 c 2
 600 410 l 2
 630 410 660 410 660 445 c 2
 660 540 l 2
 660 575 630 575 600 575 c 2
 270 575 l 2
 240 575 210 575 210 540 c 2
 210 445 l 2
EndSplineSet
EndChar

StartChar: colon
Encoding: 58 58 27
Width: 300
GlyphClass: 2
Flags: MW
HStem: 0 120<75 225 75 225> 360 120<75 225 75 225>
VStem: 75 150<0 120 0 120 360 480>
LayerCount: 2
Fore
SplineSet
75 360 m 1
 75 480 l 1
 225 480 l 1
 225 360 l 1
 75 360 l 1
75 0 m 1
 75 120 l 1
 225 120 l 1
 225 0 l 1
 75 0 l 1
EndSplineSet
EndChar

StartChar: semicolon
Encoding: 59 59 28
Width: 330
GlyphClass: 2
Flags: MW
HStem: -150 270<45 245 105 125> 360 120<105 255 105 255>
VStem: 105 150<360 480 360 480>
LayerCount: 2
Fore
SplineSet
45 -150 m 1
 105 120 l 1
 245 120 l 1
 125 -150 l 1
 45 -150 l 1
105 360 m 1
 105 480 l 1
 255 480 l 1
 255 360 l 1
 105 360 l 1
EndSplineSet
EndChar

StartChar: less
Encoding: 60 60 29
Width: 750
GlyphClass: 2
Flags: MW
HStem: -20 100<690 690> 400 100<690 690>
VStem: 60 630<-20 290 -20 290>
LayerCount: 2
Fore
SplineSet
60 190 m 1
 60 290 l 1
 690 500 l 1
 690 400 l 1
 210 240 l 1
 690 80 l 1
 690 -20 l 1
 60 190 l 1
EndSplineSet
EndChar

StartChar: equal
Encoding: 61 61 30
Width: 700
GlyphClass: 2
Flags: MW
HStem: 75 100<60 640 60 640> 305 100<60 640 60 640>
VStem: 60 580<75 175 75 175 305 405 75 405>
LayerCount: 2
Fore
SplineSet
60 75 m 1
 60 175 l 1
 640 175 l 1
 640 75 l 1
 60 75 l 1
60 305 m 1
 60 405 l 1
 640 405 l 1
 640 305 l 1
 60 305 l 1
EndSplineSet
EndChar

StartChar: greater
Encoding: 62 62 31
Width: 750
GlyphClass: 2
Flags: MW
HStem: -20 100<60 60> 400 100<60 60>
VStem: 60 630<-20 290 80 290 190 500 190 500>
LayerCount: 2
Fore
SplineSet
60 -20 m 1
 60 80 l 1
 540 240 l 1
 60 400 l 1
 60 500 l 1
 690 290 l 1
 690 190 l 1
 60 -20 l 1
EndSplineSet
EndChar

StartChar: question
Encoding: 63 63 32
Width: 850
GlyphClass: 2
Flags: MW
HStem: 0 120<265 415 265 415> 225 21G<265 415 265 265> 325 85<460 565 505 535> 575 85<75 535 75 535 535 565>
VStem: 265 150<0 120 0 120 225 275 275 290> 625 150<445 460 460 525 392.5 540 392.5 557.5>
LayerCount: 2
Fore
SplineSet
75 575 m 1
 75 660 l 1
 535 660 l 2
 655 660 775 660 775 525 c 2
 775 460 l 2
 775 325 655 325 535 325 c 2
 475 325 l 2
 445 325 415 325 415 290 c 2
 415 225 l 1
 265 225 l 1
 265 275 l 2
 265 410 385 410 505 410 c 2
 565 410 l 2
 595 410 625 410 625 445 c 2
 625 540 l 2
 625 575 595 575 565 575 c 2
 75 575 l 1
265 0 m 1
 265 120 l 1
 415 120 l 1
 415 0 l 1
 265 0 l 1
EndSplineSet
EndChar

StartChar: at
Encoding: 64 64 33
Width: 1210
GlyphClass: 2
Flags: MW
HStem: -165 60<225 1095 295 1095 295 1095> -105 105<465 515 515 1095 1095 1095> 0 75<505 515 515 755 895 1015> 405 75<492.5 895 515 755> 480 105<515 895 895 895> 585 60<275 295 295 915>
VStem: 75 120<-50 530> 315 140<115 365 365 375> 755 140<75 405 405 405> 1015 120<75 530 0 557.5>
LayerCount: 2
Fore
SplineSet
75 -50 m 2xa7c0
 75 530 l 2
 75 645 175 645 275 645 c 2
 935 645 l 2
 1035 645 1135 645 1135 530 c 2
 1135 0 l 1
 515 0 l 2
 415 0 315 0 315 115 c 2
 315 365 l 2
 315 480 415 480 515 480 c 2xb7c0
 895 480 l 1x0bc0
 895 75 l 1
 1015 75 l 1
 1015 530 l 2
 1015 585 965 585 915 585 c 2
 295 585 l 2
 245 585 195 585 195 530 c 2
 195 -50 l 2
 195 -105 245 -105 295 -105 c 2
 1095 -105 l 1
 1095 -165 l 1
 275 -165 l 2
 175 -165 75 -165 75 -50 c 2xa7c0
455 105 m 2
 455 75 480 75 505 75 c 2
 755 75 l 1
 755 405 l 1
 505 405 l 2
 480 405 455 405 455 375 c 2
 455 105 l 2
EndSplineSet
EndChar

StartChar: A
Encoding: 65 65 34
Width: 890
GlyphClass: 2
Flags: MW
HStem: 0 21G<20 20 20 170 720 720 720 870> 210 80<315 575 315 615 275 575> 640 20G<350 540 540 540>
LayerCount: 2
Fore
SplineSet
20 0 m 1
 350 660 l 1
 540 660 l 1
 870 0 l 1
 720 0 l 1
 615 210 l 1
 275 210 l 1
 170 0 l 1
 20 0 l 1
315 290 m 1
 575 290 l 1
 445 550 l 1
 315 290 l 1
EndSplineSet
EndChar

StartChar: B
Encoding: 66 66 35
Width: 890
GlyphClass: 2
Flags: MW
HStem: 0 85<220 580> 325 85<220 600 600 610 220 600> 575 85<220 570 570 600 220 220>
VStem: 70 150<85 85 85 325 410 575> 660 150<445 470 470 525 440 540 440 557.5> 670 150<120 135 135 270 67.5 290>
LayerCount: 2
Fore
SplineSet
70 0 m 1xf4
 70 660 l 1
 570 660 l 2
 690 660 810 660 810 525 c 2
 810 470 l 2xf8
 810 410 770 380 730 370 c 1
 770 360 820 340 820 270 c 2
 820 135 l 2
 820 0 700 0 580 0 c 2
 70 0 l 1xf4
220 85 m 1
 610 85 l 2
 640 85 670 85 670 120 c 2
 670 290 l 2xf4
 670 325 640 325 610 325 c 2
 220 325 l 1
 220 85 l 1
220 410 m 1
 600 410 l 2
 630 410 660 410 660 445 c 2
 660 540 l 2xf8
 660 575 630 575 600 575 c 2
 220 575 l 1
 220 410 l 1
EndSplineSet
EndChar

StartChar: C
Encoding: 67 67 36
Width: 840
GlyphClass: 2
Flags: MW
HStem: 0 85<280 310 310 770> 575 85<265 770 310 770 310 770>
VStem: 70 150<135 525 525 540>
LayerCount: 2
Fore
SplineSet
70 135 m 2
 70 525 l 2
 70 660 190 660 310 660 c 2
 770 660 l 1
 770 575 l 1
 280 575 l 2
 250 575 220 575 220 540 c 2
 220 120 l 2
 220 85 250 85 280 85 c 2
 770 85 l 1
 770 0 l 1
 310 0 l 2
 190 0 70 0 70 135 c 2
EndSplineSet
EndChar

StartChar: D
Encoding: 68 68 37
Width: 890
GlyphClass: 2
Flags: MW
HStem: 0 85<220 430 430 460> 575 85<220 430 220 220>
VStem: 70 150<85 85 85 575> 670 150<285 300 300 360 180 375 180 455>
LayerCount: 2
Fore
SplineSet
70 0 m 1
 70 660 l 1
 460 660 l 2
 640 660 820 600 820 360 c 2
 820 300 l 2
 820 60 640 0 460 0 c 2
 70 0 l 1
220 85 m 1
 430 85 l 2
 550 85 670 125 670 285 c 2
 670 375 l 2
 670 535 550 575 430 575 c 2
 220 575 l 1
 220 85 l 1
EndSplineSet
EndChar

StartChar: E
Encoding: 69 69 38
Width: 840
GlyphClass: 2
Flags: MW
HStem: 0 85<220 770 220 770> 325 85<220 720 220 720> 575 85<220 770 220 220>
VStem: 70 150<85 325 410 575>
LayerCount: 2
Fore
SplineSet
70 0 m 1
 70 660 l 1
 770 660 l 1
 770 575 l 1
 220 575 l 1
 220 410 l 1
 720 410 l 1
 720 325 l 1
 220 325 l 1
 220 85 l 1
 770 85 l 1
 770 0 l 1
 70 0 l 1
EndSplineSet
EndChar

StartChar: F
Encoding: 70 70 39
Width: 820
GlyphClass: 2
Flags: MW
HStem: 0 21G<70 70 70 220> 325 85<220 710 220 710> 575 85<220 770 220 220>
VStem: 70 150<0 325 410 575>
LayerCount: 2
Fore
SplineSet
70 0 m 1
 70 660 l 1
 770 660 l 1
 770 575 l 1
 220 575 l 1
 220 410 l 1
 710 410 l 1
 710 325 l 1
 220 325 l 1
 220 0 l 1
 70 0 l 1
EndSplineSet
EndChar

StartChar: G
Encoding: 71 71 40
Width: 890
GlyphClass: 2
Flags: MW
HStem: 0 85<280 310 310 580> 325 85<520 670 520 820> 575 85<265 770 310 770 310 770>
VStem: 70 150<135 525 525 540> 670 150<120 135 135 325 325 325>
LayerCount: 2
Fore
SplineSet
70 135 m 2
 70 525 l 2
 70 660 190 660 310 660 c 2
 770 660 l 1
 770 575 l 1
 280 575 l 2
 250 575 220 575 220 540 c 2
 220 120 l 2
 220 85 250 85 280 85 c 2
 610 85 l 2
 640 85 670 85 670 120 c 2
 670 325 l 1
 520 325 l 1
 520 410 l 1
 820 410 l 1
 820 135 l 2
 820 0 700 0 580 0 c 2
 310 0 l 2
 190 0 70 0 70 135 c 2
EndSplineSet
EndChar

StartChar: H
Encoding: 72 72 41
Width: 890
GlyphClass: 2
Flags: MW
HStem: 0 21G<70 70 70 220 670 670 670 820> 325 85<220 670 220 670> 640 20G<70 220 220 220 670 820 820 820>
VStem: 70 150<0 325 410 660> 670 150<0 325 325 325 410 660 0 660>
LayerCount: 2
Fore
SplineSet
70 0 m 1
 70 660 l 1
 220 660 l 1
 220 410 l 1
 670 410 l 1
 670 660 l 1
 820 660 l 1
 820 0 l 1
 670 0 l 1
 670 325 l 1
 220 325 l 1
 220 0 l 1
 70 0 l 1
EndSplineSet
EndChar

StartChar: I
Encoding: 73 73 42
Width: 290
GlyphClass: 2
Flags: MW
HStem: 0 21G<70 70 70 220> 640 20G<70 220 220 220>
VStem: 70 150<0 660 0 660>
LayerCount: 2
Fore
SplineSet
70 0 m 1
 70 660 l 1
 220 660 l 1
 220 0 l 1
 70 0 l 1
EndSplineSet
EndChar

StartChar: J
Encoding: 74 74 43
Width: 890
GlyphClass: 2
Flags: MW
HStem: 0 85<280 310 310 580> 235 20G<70 220 220 220> 640 20G<670 820 820 820>
VStem: 70 150<135 255 102.5 255> 670 150<120 135 135 660>
LayerCount: 2
Fore
SplineSet
70 135 m 2
 70 255 l 1
 220 255 l 1
 220 120 l 2
 220 85 250 85 280 85 c 2
 610 85 l 2
 640 85 670 85 670 120 c 2
 670 660 l 1
 820 660 l 1
 820 135 l 2
 820 0 700 0 580 0 c 2
 310 0 l 2
 190 0 70 0 70 135 c 2
EndSplineSet
EndChar

StartChar: K
Encoding: 75 75 44
Width: 810
GlyphClass: 2
Flags: MW
HStem: 0 21G<70 70 70 220 610 610 610 790> 640 20G<70 220 220 220 570 750 750 750>
VStem: 70 150<0 130 310 660>
LayerCount: 2
Fore
SplineSet
70 0 m 1
 70 660 l 1
 220 660 l 1
 220 310 l 1
 570 660 l 1
 750 660 l 1
 440 350 l 1
 790 0 l 1
 610 0 l 1
 350 260 l 1
 220 130 l 1
 220 0 l 1
 70 0 l 1
EndSplineSet
EndChar

StartChar: L
Encoding: 76 76 45
Width: 800
GlyphClass: 2
Flags: MW
HStem: 0 85<220 770 220 770> 640 20G<70 220 220 220>
VStem: 70 150<85 660 85 660 85 660> 750 20G<0 85 0 0>
LayerCount: 2
Fore
SplineSet
70 0 m 1
 70 660 l 1
 220 660 l 1
 220 85 l 1
 770 85 l 1
 770 0 l 1
 70 0 l 1
EndSplineSet
EndChar

StartChar: M
Encoding: 77 77 46
Width: 1050
GlyphClass: 2
Flags: MW
HStem: 0 21G<70 70 70 220 465 465 465 585 830 830 830 980> 640 20G<70 270 270 270 780 980 980 980>
VStem: 70 150<0 490 0 660> 830 150<0 490 490 490>
LayerCount: 2
Fore
SplineSet
70 0 m 1
 70 660 l 1
 270 660 l 1
 525 150 l 1
 780 660 l 1
 980 660 l 1
 980 0 l 1
 830 0 l 1
 830 490 l 1
 585 0 l 1
 465 0 l 1
 220 490 l 1
 220 0 l 1
 70 0 l 1
EndSplineSet
EndChar

StartChar: N
Encoding: 78 78 47
Width: 890
GlyphClass: 2
Flags: MW
HStem: 0 21G<70 70 70 220 660 660 660 820> 640 20G<70 230 230 230 670 820 820 820>
VStem: 70 150<0 490 0 660> 670 150<170 660 0 660>
LayerCount: 2
Fore
SplineSet
70 0 m 1
 70 660 l 1
 230 660 l 1
 670 170 l 1
 670 660 l 1
 820 660 l 1
 820 0 l 1
 660 0 l 1
 220 490 l 1
 220 0 l 1
 70 0 l 1
EndSplineSet
EndChar

StartChar: O
Encoding: 79 79 48
Width: 890
GlyphClass: 2
Flags: MW
HStem: 0 85<280 310 310 580> 575 85<265 580 310 580 580 610>
VStem: 70 150<135 525 525 540> 670 150<120 135 135 525>
LayerCount: 2
Fore
SplineSet
70 135 m 2
 70 525 l 2
 70 660 190 660 310 660 c 2
 580 660 l 2
 700 660 820 660 820 525 c 2
 820 135 l 2
 820 0 700 0 580 0 c 2
 310 0 l 2
 190 0 70 0 70 135 c 2
220 120 m 2
 220 85 250 85 280 85 c 2
 610 85 l 2
 640 85 670 85 670 120 c 2
 670 540 l 2
 670 575 640 575 610 575 c 2
 280 575 l 2
 250 575 220 575 220 540 c 2
 220 120 l 2
EndSplineSet
EndChar

StartChar: P
Encoding: 80 80 49
Width: 890
GlyphClass: 2
Flags: MW
HStem: 0 21G<70 70 70 220> 270 85<220 580 220 610> 575 85<220 580 580 610 220 220>
VStem: 70 150<0 270 355 575> 670 150<390 405 405 525 337.5 540 337.5 557.5>
LayerCount: 2
Fore
SplineSet
70 0 m 1
 70 660 l 1
 580 660 l 2
 700 660 820 660 820 525 c 2
 820 405 l 2
 820 270 700 270 580 270 c 2
 220 270 l 1
 220 0 l 1
 70 0 l 1
220 355 m 1
 610 355 l 2
 640 355 670 355 670 390 c 2
 670 540 l 2
 670 575 640 575 610 575 c 2
 220 575 l 1
 220 355 l 1
EndSplineSet
EndChar

StartChar: Q
Encoding: 81 81 50
Width: 890
GlyphClass: 2
Flags: MW
HStem: -150 21G<550 730 550 550> 0 85<280 310 310 400 580 610 610 625 280 640> 575 85<265 580 310 580 580 610>
VStem: 70 150<135 525 525 540> 670 150<120 135 135 525>
LayerCount: 2
Fore
SplineSet
70 135 m 2
 70 525 l 2
 70 660 190 660 310 660 c 2
 580 660 l 2
 700 660 820 660 820 525 c 2
 820 135 l 2
 820 0 700 0 580 0 c 1
 730 -150 l 1
 550 -150 l 1
 400 0 l 1
 310 0 l 2
 190 0 70 0 70 135 c 2
220 120 m 2
 220 85 250 85 280 85 c 2
 610 85 l 2
 640 85 670 85 670 120 c 2
 670 540 l 2
 670 575 640 575 610 575 c 2
 280 575 l 2
 250 575 220 575 220 540 c 2
 220 120 l 2
EndSplineSet
EndChar

StartChar: R
Encoding: 82 82 51
Width: 890
GlyphClass: 2
Flags: MW
HStem: 0 21G<70 70 70 220 680 680 680 860> 290 85<220 390 220 610 570 580 570 570> 575 85<220 580 580 610 220 220>
VStem: 70 150<0 290 375 575> 670 150<410 425 425 525 357.5 540 357.5 557.5>
LayerCount: 2
Fore
SplineSet
70 0 m 1
 70 660 l 1
 580 660 l 2
 700 660 820 660 820 525 c 2
 820 425 l 2
 820 290 700 290 580 290 c 2
 570 290 l 1
 860 0 l 1
 680 0 l 1
 390 290 l 1
 220 290 l 1
 220 0 l 1
 70 0 l 1
220 375 m 1
 610 375 l 2
 640 375 670 375 670 410 c 2
 670 540 l 2
 670 575 640 575 610 575 c 2
 220 575 l 1
 220 375 l 1
EndSplineSet
EndChar

StartChar: S
Encoding: 83 83 52
Width: 890
GlyphClass: 2
Flags: MW
HStem: 0 85<70 610 70 580> 325 85<280 310 310 580 580 610> 575 85<265 770 310 770 310 770>
VStem: 70 150<460 525 525 540 427.5 592.5> 670 150<120 135 135 275 67.5 290>
LayerCount: 2
Fore
SplineSet
70 0 m 1
 70 85 l 1
 610 85 l 2
 640 85 670 85 670 120 c 2
 670 290 l 2
 670 325 640 325 610 325 c 2
 310 325 l 2
 190 325 70 325 70 460 c 2
 70 525 l 2
 70 660 190 660 310 660 c 2
 770 660 l 1
 770 575 l 1
 280 575 l 2
 250 575 220 575 220 540 c 2
 220 445 l 2
 220 410 250 410 280 410 c 2
 580 410 l 2
 700 410 820 410 820 275 c 2
 820 135 l 2
 820 0 700 0 580 0 c 2
 70 0 l 1
EndSplineSet
EndChar

StartChar: T
Encoding: 84 84 53
Width: 890
GlyphClass: 2
Flags: MW
HStem: 0 21G<370 520 370 370> 575 85<30 860 30 370 520 520 520 860>
VStem: 370 150<0 575 0 575>
LayerCount: 2
Fore
SplineSet
30 575 m 1
 30 660 l 1
 860 660 l 1
 860 575 l 1
 520 575 l 1
 520 0 l 1
 370 0 l 1
 370 575 l 1
 30 575 l 1
EndSplineSet
EndChar

StartChar: U
Encoding: 85 85 54
Width: 890
GlyphClass: 2
Flags: MW
HStem: 0 85<280 310 310 580> 640 20G<70 220 220 220 670 820 820 820>
VStem: 70 150<135 660> 670 150<120 135 135 660>
LayerCount: 2
Fore
SplineSet
70 135 m 2
 70 660 l 1
 220 660 l 1
 220 120 l 2
 220 85 250 85 280 85 c 2
 610 85 l 2
 640 85 670 85 670 120 c 2
 670 660 l 1
 820 660 l 1
 820 135 l 2
 820 0 700 0 580 0 c 2
 310 0 l 2
 190 0 70 0 70 135 c 2
EndSplineSet
EndChar

StartChar: V
Encoding: 86 86 55
Width: 890
GlyphClass: 2
Flags: MW
HStem: 0 21G<350 540 350 350> 640 20G<20 175 175 175 715 870 870 870>
LayerCount: 2
Fore
SplineSet
20 660 m 1
 175 660 l 1
 445 120 l 1
 715 660 l 1
 870 660 l 1
 540 0 l 1
 350 0 l 1
 20 660 l 1
EndSplineSet
EndChar

StartChar: W
Encoding: 87 87 56
Width: 1200
GlyphClass: 2
Flags: MW
HStem: 0 21G<240 430 240 240 770 960 770 770> 640 20G<20 170 170 170 1030 1180 1180 1180>
LayerCount: 2
Fore
SplineSet
20 660 m 1
 170 660 l 1
 345 135 l 1
 510 630 l 1
 690 630 l 1
 855 135 l 1
 1030 660 l 1
 1180 660 l 1
 960 0 l 1
 770 0 l 1
 600 510 l 1
 430 0 l 1
 240 0 l 1
 20 660 l 1
EndSplineSet
EndChar

StartChar: X
Encoding: 88 88 57
Width: 880
GlyphClass: 2
Flags: MW
HStem: 0 21G<20 200 20 20 680 860 680 680> 640 20G<20 200 200 200 680 860 860 860>
LayerCount: 2
Fore
SplineSet
20 660 m 1
 200 660 l 1
 440 420 l 1
 680 660 l 1
 860 660 l 1
 530 330 l 1
 860 0 l 1
 680 0 l 1
 440 240 l 1
 200 0 l 1
 20 0 l 1
 350 330 l 1
 20 660 l 1
EndSplineSet
EndChar

StartChar: Y
Encoding: 89 89 58
Width: 890
GlyphClass: 2
Flags: MW
HStem: 0 21G<370 520 370 370> 640 20G<20 200 200 200 690 870 870 870>
VStem: 370 150<0 310 0 310>
LayerCount: 2
Fore
SplineSet
20 660 m 1
 200 660 l 1
 445 415 l 1
 690 660 l 1
 870 660 l 1
 520 310 l 1
 520 0 l 1
 370 0 l 1
 370 310 l 1
 20 660 l 1
EndSplineSet
EndChar

StartChar: Z
Encoding: 90 90 59
Width: 850
GlyphClass: 2
Flags: MW
HStem: 0 85<50 50 245 800> 575 85<70 585 70 780 70 780>
VStem: 50 730<0 660 85 660>
LayerCount: 2
Fore
SplineSet
50 0 m 1
 50 85 l 1
 585 575 l 1
 70 575 l 1
 70 660 l 1
 780 660 l 1
 780 575 l 1
 245 85 l 1
 800 85 l 1
 800 0 l 1
 50 0 l 1
EndSplineSet
EndChar

StartChar: bracketleft
Encoding: 91 91 60
Width: 455
GlyphClass: 2
Flags: MW
HStem: -225 75<195 395 195 395> 585 75<195 395 195 195>
VStem: 75 120<-150 585 -150 660 -150 660>
LayerCount: 2
Fore
SplineSet
75 -225 m 1
 75 660 l 1
 395 660 l 1
 395 585 l 1
 195 585 l 1
 195 -150 l 1
 395 -150 l 1
 395 -225 l 1
 75 -225 l 1
EndSplineSet
EndChar

StartChar: backslash
Encoding: 92 92 61
Width: 620
GlyphClass: 2
Flags: MW
HStem: -100 21G<440 560 440 440> 640 20G<60 180 180 180>
LayerCount: 2
Fore
SplineSet
60 660 m 1
 180 660 l 1
 560 -100 l 1
 440 -100 l 1
 60 660 l 1
EndSplineSet
EndChar

StartChar: bracketright
Encoding: 93 93 62
Width: 455
GlyphClass: 2
Flags: MW
HStem: -225 75<60 260 60 380 60 260> 585 75<60 260 60 380>
VStem: 260 120<-150 585 585 585>
LayerCount: 2
Fore
SplineSet
60 -150 m 1
 260 -150 l 1
 260 585 l 1
 60 585 l 1
 60 660 l 1
 380 660 l 1
 380 -225 l 1
 60 -225 l 1
 60 -150 l 1
EndSplineSet
EndChar

StartChar: asciicircum
Encoding: 94 94 63
Width: 600
GlyphClass: 2
Flags: MW
HStem: 300 21G<60 60 60 180 420 420 420 540> 640 20G<240 360 360 360>
LayerCount: 2
Fore
SplineSet
60 300 m 1
 240 660 l 1
 360 660 l 1
 540 300 l 1
 420 300 l 1
 300 540 l 1
 180 300 l 1
 60 300 l 1
EndSplineSet
EndChar

StartChar: underscore
Encoding: 95 95 64
Width: 640
GlyphClass: 2
Flags: MW
HStem: -225 75<20 620 20 620>
LayerCount: 2
Fore
SplineSet
20 -150 m 1
 620 -150 l 1
 620 -225 l 1
 20 -225 l 1
 20 -150 l 1
EndSplineSet
EndChar

StartChar: grave
Encoding: 96 96 65
Width: 500
GlyphClass: 2
Flags: MW
HStem: 550 160<90 340 90 250>
VStem: 90 250<550 710>
LayerCount: 2
Fore
SplineSet
90 710 m 1
 240 710 l 1
 340 550 l 1
 250 550 l 1
 90 710 l 1
EndSplineSet
EndChar

StartChar: a
Encoding: 97 97 66
Width: 700
GlyphClass: 2
Flags: MW
HStem: 0 75<250 260 260 500 250 640> 225 75<237.5 500 260 500 260 500> 405 75<100 440 440 450 100 440>
VStem: 60 140<115 185 185 195 90 242.5> 500 140<75 225 225 225 300 365 0 375 0 390>
LayerCount: 2
Fore
SplineSet
60 115 m 2
 60 185 l 2
 60 300 160 300 260 300 c 2
 500 300 l 1
 500 375 l 2
 500 405 475 405 450 405 c 2
 100 405 l 1
 100 480 l 1
 440 480 l 2
 540 480 640 480 640 365 c 2
 640 0 l 1
 260 0 l 2
 160 0 60 0 60 115 c 2
200 105 m 2
 200 75 225 75 250 75 c 2
 500 75 l 1
 500 225 l 1
 250 225 l 2
 225 225 200 225 200 195 c 2
 200 105 l 2
EndSplineSet
EndChar

StartChar: b
Encoding: 98 98 67
Width: 700
GlyphClass: 2
Flags: MW
HStem: 0 75<200 440> 405 75<200 440 440 450 200 440> 640 20G<60 200 200 200>
VStem: 60 140<75 75 75 405 480 660> 500 140<105 115 115 365>
LayerCount: 2
Fore
SplineSet
60 0 m 1
 60 660 l 1
 200 660 l 1
 200 480 l 1
 440 480 l 2
 540 480 640 480 640 365 c 2
 640 115 l 2
 640 0 540 0 440 0 c 2
 60 0 l 1
200 75 m 1
 450 75 l 2
 475 75 500 75 500 105 c 2
 500 375 l 2
 500 405 475 405 450 405 c 2
 200 405 l 1
 200 75 l 1
EndSplineSet
EndChar

StartChar: c
Encoding: 99 99 68
Width: 660
GlyphClass: 2
Flags: MW
HStem: 0 75<250 260 260 600> 405 75<237.5 600 260 600 260 600>
VStem: 60 140<115 365 365 375>
LayerCount: 2
Fore
SplineSet
60 115 m 2
 60 365 l 2
 60 480 160 480 260 480 c 2
 600 480 l 1
 600 405 l 1
 250 405 l 2
 225 405 200 405 200 375 c 2
 200 105 l 2
 200 75 225 75 250 75 c 2
 600 75 l 1
 600 0 l 1
 260 0 l 2
 160 0 60 0 60 115 c 2
EndSplineSet
EndChar

StartChar: d
Encoding: 100 100 69
Width: 700
GlyphClass: 2
Flags: MW
HStem: 0 75<250 260 260 500 250 640> 405 75<237.5 500 260 500 260 500> 640 20G<500 640 640 640>
VStem: 60 140<115 365 365 375> 500 140<75 405 405 405 480 660 0 660>
LayerCount: 2
Fore
SplineSet
60 115 m 2
 60 365 l 2
 60 480 160 480 260 480 c 2
 500 480 l 1
 500 660 l 1
 640 660 l 1
 640 0 l 1
 260 0 l 2
 160 0 60 0 60 115 c 2
200 105 m 2
 200 75 225 75 250 75 c 2
 500 75 l 1
 500 405 l 1
 250 405 l 2
 225 405 200 405 200 375 c 2
 200 105 l 2
EndSplineSet
EndChar

StartChar: e
Encoding: 101 101 70
Width: 700
GlyphClass: 2
Flags: MW
HStem: 0 75<250 260 260 620> 225 75<200 500 200 640 200 500> 405 75<237.5 440 260 440 440 450>
VStem: 60 140<115 225 300 365 365 375> 500 140<300 365 225 375 225 390>
LayerCount: 2
Fore
SplineSet
60 115 m 2
 60 365 l 2
 60 480 160 480 260 480 c 2
 440 480 l 2
 540 480 640 480 640 365 c 2
 640 225 l 1
 200 225 l 1
 200 105 l 2
 200 75 225 75 250 75 c 2
 620 75 l 1
 620 0 l 1
 260 0 l 2
 160 0 60 0 60 115 c 2
200 300 m 1
 500 300 l 1
 500 375 l 2
 500 405 475 405 450 405 c 2
 250 405 l 2
 225 405 200 405 200 375 c 2
 200 300 l 1
EndSplineSet
EndChar

StartChar: f
Encoding: 102 102 71
Width: 460
GlyphClass: 2
Flags: MW
HStem: 0 21G<60 60 60 200> 405 75<200 400 200 400> 585 75<237.5 400 260 400 260 400>
VStem: 60 140<0 405 480 545 545 555>
LayerCount: 2
Fore
SplineSet
60 0 m 1
 60 545 l 2
 60 660 160 660 260 660 c 2
 400 660 l 1
 400 585 l 1
 250 585 l 2
 225 585 200 585 200 555 c 2
 200 480 l 1
 400 480 l 1
 400 405 l 1
 200 405 l 1
 200 0 l 1
 60 0 l 1
EndSplineSet
EndChar

StartChar: g
Encoding: 103 103 72
Width: 700
GlyphClass: 2
Flags: MW
HStem: -225 75<80 440 80 450> 0 75<250 260 260 500> 405 75<237.5 640 260 500>
VStem: 60 140<115 365 365 375> 500 140<-125 0 0 0 75 405 405 405>
LayerCount: 2
Fore
SplineSet
60 115 m 2
 60 365 l 2
 60 480 160 480 260 480 c 2
 640 480 l 1
 640 -125 l 2
 640 -225 540 -225 440 -225 c 2
 80 -225 l 1
 80 -150 l 1
 450 -150 l 2
 475 -150 500 -150 500 -125 c 2
 500 0 l 1
 260 0 l 2
 160 0 60 0 60 115 c 2
200 105 m 2
 200 75 225 75 250 75 c 2
 500 75 l 1
 500 405 l 1
 250 405 l 2
 225 405 200 405 200 375 c 2
 200 105 l 2
EndSplineSet
EndChar

StartChar: h
Encoding: 104 104 73
Width: 700
GlyphClass: 2
Flags: MW
HStem: 0 21G<60 60 60 200 500 500 500 640> 405 75<200 440 440 450 200 440> 640 20G<60 200 200 200>
VStem: 60 140<0 405 480 660> 500 140<0 365 0 375 0 390>
LayerCount: 2
Fore
SplineSet
60 0 m 1
 60 660 l 1
 200 660 l 1
 200 480 l 1
 440 480 l 2
 540 480 640 480 640 365 c 2
 640 0 l 1
 500 0 l 1
 500 375 l 2
 500 405 475 405 450 405 c 2
 200 405 l 1
 200 0 l 1
 60 0 l 1
EndSplineSet
EndChar

StartChar: i
Encoding: 105 105 74
Width: 260
GlyphClass: 2
Flags: MW
HStem: 0 21G<60 60 60 200> 460 20G<60 200 200 200> 560 100<60 200 60 200>
VStem: 60 140<0 480 0 480 560 660>
LayerCount: 2
Fore
SplineSet
60 0 m 1
 60 480 l 1
 200 480 l 1
 200 0 l 1
 60 0 l 1
60 560 m 1
 60 660 l 1
 200 660 l 1
 200 560 l 1
 60 560 l 1
EndSplineSet
EndChar

StartChar: j
Encoding: 106 106 75
Width: 260
GlyphClass: 2
Flags: MW
HStem: -225 75<-50 -50> 460 20G<60 200 200 200> 560 100<60 200 60 200>
VStem: -50 21G<-225 -150 -150 -150> 60 140<0 480 560 660>
LayerCount: 2
Fore
SplineSet
-50 -150 m 1
 30 -130 60 -90 60 0 c 2
 60 480 l 1
 200 480 l 1
 200 0 l 2
 200 -200 50 -215 -50 -225 c 1
 -50 -150 l 1
60 560 m 1
 60 660 l 1
 200 660 l 1
 200 560 l 1
 60 560 l 1
EndSplineSet
EndChar

StartChar: k
Encoding: 107 107 76
Width: 640
GlyphClass: 2
Flags: MW
HStem: 0 21G<60 60 60 200 460 460 460 620> 460 20G<440 600 600 600> 640 20G<60 200 200 200>
VStem: 60 140<0 80 240 660>
LayerCount: 2
Fore
SplineSet
60 0 m 1
 60 660 l 1
 200 660 l 1
 200 240 l 1
 440 480 l 1
 600 480 l 1
 370 250 l 1
 620 0 l 1
 460 0 l 1
 290 170 l 1
 200 80 l 1
 200 0 l 1
 60 0 l 1
EndSplineSet
EndChar

StartChar: l
Encoding: 108 108 77
Width: 260
GlyphClass: 2
Flags: MW
HStem: 0 21G<60 60 60 200> 640 20G<60 200 200 200>
VStem: 60 140<0 660 0 660>
LayerCount: 2
Fore
SplineSet
60 0 m 1
 60 660 l 1
 200 660 l 1
 200 0 l 1
 60 0 l 1
EndSplineSet
EndChar

StartChar: m
Encoding: 109 109 78
Width: 900
GlyphClass: 2
Flags: MW
HStem: 0 21G<60 60 60 200 380 380 380 520 700 700 700 840> 405 75<200 330 200 200 520 640 640 650 520 520>
VStem: 60 140<0 405 0 480 0 480> 60 320<0 375 375 390 0 480 0 480> 380 140<0 375 375 390> 380 320<0 375 375 390> 700 140<0 365 0 375 0 390>
CounterMasks: 1 2a
LayerCount: 2
Fore
SplineSet
60 0 m 1x10
 60 480 l 1
 640 480 l 2
 740 480 840 480 840 365 c 2
 840 0 l 1
 700 0 l 1
 700 375 l 2
 700 405 675 405 650 405 c 2
 520 405 l 1
 520 0 l 1
 380 0 l 1x04
 380 375 l 2
 380 405 355 405 330 405 c 2
 200 405 l 1
 200 0 l 1
 60 0 l 1x10
EndSplineSet
EndChar

StartChar: n
Encoding: 110 110 79
Width: 700
GlyphClass: 2
Flags: MW
HStem: 0 21G<60 60 60 200 500 500 500 640> 405 75<200 440 440 450 200 200>
VStem: 60 140<0 405 0 480 0 480> 500 140<0 365 0 375 0 390>
LayerCount: 2
Fore
SplineSet
60 0 m 1
 60 480 l 1
 440 480 l 2
 540 480 640 480 640 365 c 2
 640 0 l 1
 500 0 l 1
 500 375 l 2
 500 405 475 405 450 405 c 2
 200 405 l 1
 200 0 l 1
 60 0 l 1
EndSplineSet
EndChar

StartChar: o
Encoding: 111 111 80
Width: 700
GlyphClass: 2
Flags: MW
HStem: 0 75<250 260 260 440> 405 75<237.5 440 260 440 440 450>
VStem: 60 140<115 365 365 375> 500 140<105 115 115 365>
LayerCount: 2
Fore
SplineSet
60 115 m 2
 60 365 l 2
 60 480 160 480 260 480 c 2
 440 480 l 2
 540 480 640 480 640 365 c 2
 640 115 l 2
 640 0 540 0 440 0 c 2
 260 0 l 2
 160 0 60 0 60 115 c 2
200 105 m 2
 200 75 225 75 250 75 c 2
 450 75 l 2
 475 75 500 75 500 105 c 2
 500 375 l 2
 500 405 475 405 450 405 c 2
 250 405 l 2
 225 405 200 405 200 375 c 2
 200 105 l 2
EndSplineSet
EndChar

StartChar: p
Encoding: 112 112 81
Width: 700
GlyphClass: 2
Flags: MW
HStem: -225 21G<60 60 60 200> 0 75<200 440 200 450> 405 75<200 440 440 450 200 200>
VStem: 60 140<-225 0 75 405> 500 140<105 115 115 365>
LayerCount: 2
Fore
SplineSet
60 -225 m 1
 60 480 l 1
 440 480 l 2
 540 480 640 480 640 365 c 2
 640 115 l 2
 640 0 540 0 440 0 c 2
 200 0 l 1
 200 -225 l 1
 60 -225 l 1
200 75 m 1
 450 75 l 2
 475 75 500 75 500 105 c 2
 500 375 l 2
 500 405 475 405 450 405 c 2
 200 405 l 1
 200 75 l 1
EndSplineSet
EndChar

StartChar: q
Encoding: 113 113 82
Width: 700
GlyphClass: 2
Flags: MW
HStem: -225 21G<500 640 500 500> 0 75<250 260 260 500> 405 75<237.5 640 260 500>
VStem: 60 140<115 365 365 375> 500 140<-225 0 0 0 75 405 405 405>
LayerCount: 2
Fore
SplineSet
60 115 m 2
 60 365 l 2
 60 480 160 480 260 480 c 2
 640 480 l 1
 640 -225 l 1
 500 -225 l 1
 500 0 l 1
 260 0 l 2
 160 0 60 0 60 115 c 2
200 105 m 2
 200 75 225 75 250 75 c 2
 500 75 l 1
 500 405 l 1
 250 405 l 2
 225 405 200 405 200 375 c 2
 200 105 l 2
EndSplineSet
EndChar

StartChar: r
Encoding: 114 114 83
Width: 460
GlyphClass: 2
Flags: MW
HStem: 0 21G<60 60 60 200> 405 75<237.5 400 260 400 260 400>
VStem: 60 140<0 365 365 375 0 422.5>
LayerCount: 2
Fore
SplineSet
60 0 m 1
 60 365 l 2
 60 480 160 480 260 480 c 2
 400 480 l 1
 400 405 l 1
 250 405 l 2
 225 405 200 405 200 375 c 2
 200 0 l 1
 60 0 l 1
EndSplineSet
EndChar

StartChar: s
Encoding: 115 115 84
Width: 700
GlyphClass: 2
Flags: MW
HStem: 0 75<60 450 60 440> 225 75<250 260 260 440 440 450> 405 75<237.5 600 260 600 260 600>
VStem: 60 140<340 365 365 375 315 422.5> 500 140<105 115 115 185 57.5 195 57.5 210>
LayerCount: 2
Fore
SplineSet
60 0 m 1
 60 75 l 1
 450 75 l 2
 475 75 500 75 500 105 c 2
 500 195 l 2
 500 225 475 225 450 225 c 2
 260 225 l 2
 160 225 60 225 60 340 c 2
 60 365 l 2
 60 480 160 480 260 480 c 2
 600 480 l 1
 600 405 l 1
 250 405 l 2
 225 405 200 405 200 375 c 2
 200 330 l 2
 200 300 225 300 250 300 c 2
 440 300 l 2
 540 300 640 300 640 185 c 2
 640 115 l 2
 640 0 540 0 440 0 c 2
 60 0 l 1
EndSplineSet
EndChar

StartChar: t
Encoding: 116 116 85
Width: 460
GlyphClass: 2
Flags: MW
HStem: 0 75<250 260 260 400> 405 75<200 400 200 400> 640 20G<60 200 200 200>
VStem: 60 140<115 405 480 660>
LayerCount: 2
Fore
SplineSet
60 115 m 2
 60 660 l 1
 200 660 l 1
 200 480 l 1
 400 480 l 1
 400 405 l 1
 200 405 l 1
 200 105 l 2
 200 75 225 75 250 75 c 2
 400 75 l 1
 400 0 l 1
 260 0 l 2
 160 0 60 0 60 115 c 2
EndSplineSet
EndChar

StartChar: u
Encoding: 117 117 86
Width: 700
GlyphClass: 2
Flags: MW
HStem: 0 75<250 260 260 440> 460 20G<60 200 200 200 500 640 640 640>
VStem: 60 140<115 480> 500 140<105 115 115 480>
LayerCount: 2
Fore
SplineSet
60 115 m 2
 60 480 l 1
 200 480 l 1
 200 105 l 2
 200 75 225 75 250 75 c 2
 450 75 l 2
 475 75 500 75 500 105 c 2
 500 480 l 1
 640 480 l 1
 640 115 l 2
 640 0 540 0 440 0 c 2
 260 0 l 2
 160 0 60 0 60 115 c 2
EndSplineSet
EndChar

StartChar: v
Encoding: 118 118 87
Width: 680
GlyphClass: 2
Flags: MW
HStem: 0 21G<260 420 260 260> 460 20G<20 160 160 160 520 660 660 660>
LayerCount: 2
Fore
SplineSet
20 480 m 1
 160 480 l 1
 340 120 l 1
 520 480 l 1
 660 480 l 1
 420 0 l 1
 260 0 l 1
 20 480 l 1
EndSplineSet
EndChar

StartChar: w
Encoding: 119 119 88
Width: 880
GlyphClass: 2
Flags: MW
HStem: 0 21G<180 330 180 180 550 700 550 550> 460 20G<20 150 150 150 730 860 860 860>
LayerCount: 2
Fore
SplineSet
20 480 m 1
 150 480 l 1
 265 135 l 1
 370 450 l 1
 510 450 l 1
 615 135 l 1
 730 480 l 1
 860 480 l 1
 700 0 l 1
 550 0 l 1
 440 330 l 1
 330 0 l 1
 180 0 l 1
 20 480 l 1
EndSplineSet
EndChar

StartChar: x
Encoding: 120 120 89
Width: 680
GlyphClass: 2
Flags: MW
HStem: 0 21G<20 20 20 180 500 500 500 660> 460 20G<20 180 180 180 500 660 660 660>
LayerCount: 2
Fore
SplineSet
20 0 m 1
 260 240 l 1
 20 480 l 1
 180 480 l 1
 340 320 l 1
 500 480 l 1
 660 480 l 1
 420 240 l 1
 660 0 l 1
 500 0 l 1
 340 160 l 1
 180 0 l 1
 20 0 l 1
EndSplineSet
EndChar

StartChar: y
Encoding: 121 121 90
Width: 680
GlyphClass: 2
Flags: MW
HStem: -225 75<80 160 160 182.5 80 210 80 160> 460 20G<20 160 160 160 520 660 660 660>
VStem: 80 21G<-225 -150 -150 -150>
LayerCount: 2
Fore
SplineSet
20 480 m 1
 160 480 l 1
 340 120 l 1
 520 480 l 1
 660 480 l 1
 360 -120 l 2
 330 -180 305 -225 210 -225 c 2
 80 -225 l 1
 80 -150 l 1
 160 -150 l 2
 205 -150 210 -140 225 -110 c 2
 270 -20 l 1
 20 480 l 1
EndSplineSet
EndChar

StartChar: z
Encoding: 122 122 91
Width: 680
GlyphClass: 2
Flags: MW
HStem: 0 75<50 50 225 630> 405 75<70 435 70 610 70 610>
VStem: 50 560<0 480 75 480>
LayerCount: 2
Fore
SplineSet
50 0 m 1
 50 75 l 1
 435 405 l 1
 70 405 l 1
 70 480 l 1
 610 480 l 1
 610 405 l 1
 225 75 l 1
 630 75 l 1
 630 0 l 1
 50 0 l 1
EndSplineSet
EndChar

StartChar: braceleft
Encoding: 123 123 92
Width: 625
GlyphClass: 2
Flags: MW
HStem: -225 75<415 445 445 565> 585 75<402.5 565 445 565 445 565>
VStem: 245 120<-110 90 90 90 360 545 545 555>
LayerCount: 2
Fore
SplineSet
75 175 m 1
 75 275 l 1
 245 360 l 1
 245 545 l 2
 245 660 345 660 445 660 c 2
 565 660 l 1
 565 585 l 1
 415 585 l 2
 390 585 365 585 365 555 c 2
 365 320 l 1
 175 225 l 1
 365 130 l 1
 365 -120 l 2
 365 -150 390 -150 415 -150 c 2
 565 -150 l 1
 565 -225 l 1
 445 -225 l 2
 345 -225 245 -225 245 -110 c 2
 245 90 l 1
 75 175 l 1
EndSplineSet
EndChar

StartChar: bar
Encoding: 124 124 93
Width: 320
GlyphClass: 2
Flags: MW
HStem: -225 21G<100 100 100 220> 640 20G<100 220 220 220>
VStem: 100 120<-225 660 -225 660>
LayerCount: 2
Fore
SplineSet
100 -225 m 1
 100 660 l 1
 220 660 l 1
 220 -225 l 1
 100 -225 l 1
EndSplineSet
EndChar

StartChar: braceright
Encoding: 125 125 94
Width: 625
GlyphClass: 2
Flags: MW
HStem: -225 75<60 180 60 210> 585 75<60 180 180 210 60 180>
VStem: 260 120<-120 -110 -110 90 360 545>
LayerCount: 2
Fore
SplineSet
60 -150 m 1
 210 -150 l 2
 235 -150 260 -150 260 -120 c 2
 260 130 l 1
 450 225 l 1
 260 320 l 1
 260 555 l 2
 260 585 235 585 210 585 c 2
 60 585 l 1
 60 660 l 1
 180 660 l 2
 280 660 380 660 380 545 c 2
 380 360 l 1
 550 275 l 1
 550 175 l 1
 380 90 l 1
 380 -110 l 2
 380 -225 280 -225 180 -225 c 2
 60 -225 l 1
 60 -150 l 1
EndSplineSet
EndChar

StartChar: asciitilde
Encoding: 126 126 95
Width: 720
GlyphClass: 2
Flags: MW
HStem: 220 21G<60 60 60 190 477.5 527.5> 390 20G
VStem: 60 130<220 220> 530 130<410 410>
LayerCount: 2
Fore
SplineSet
60 220 m 1
 120 340 155 410 230 410 c 0
 255 410 265 405 295 390 c 2
 445 315 l 2
 451 312 455 312 460 312 c 0
 481 312 505 360 530 410 c 1
 660 410 l 1
 600 290 565 220 490 220 c 0
 465 220 455 225 425 240 c 2
 275 315 l 2
 269 318 265 318 260 318 c 0
 239 318 215 270 190 220 c 1
 60 220 l 1
EndSplineSet
EndChar

StartChar: exclamdown
Encoding: 161 161 97
Width: 300
GlyphClass: 2
Flags: MW
HStem: -225 21G<75 225 75 75> 190 20G<75 225 225 225> 315 120<75 225 75 225>
VStem: 75 150<-225 210 -225 210 315 435>
LayerCount: 2
Fore
SplineSet
75 210 m 1
 225 210 l 1
 225 -225 l 1
 75 -225 l 1
 75 210 l 1
75 315 m 1
 75 435 l 1
 225 435 l 1
 225 315 l 1
 75 315 l 1
EndSplineSet
EndChar

StartChar: cent
Encoding: 162 162 98
Width: 660
GlyphClass: 2
Flags: MW
HStem: 0 75<250 260 260 320 420 600> 405 75<237.5 320 260 320 260 320 420 600>
VStem: 60 140<115 365 365 375> 320 100<-75 0 -75 0 75 405 480 555>
LayerCount: 2
Fore
SplineSet
60 115 m 2
 60 365 l 2
 60 480 160 480 260 480 c 2
 320 480 l 1
 320 555 l 1
 420 555 l 1
 420 480 l 1
 600 480 l 1
 600 405 l 1
 420 405 l 1
 420 75 l 1
 600 75 l 1
 600 0 l 1
 420 0 l 1
 420 -75 l 1
 320 -75 l 1
 320 0 l 1
 260 0 l 2
 160 0 60 0 60 115 c 2
200 105 m 2
 200 75 225 75 250 75 c 2
 320 75 l 1
 320 405 l 1
 250 405 l 2
 225 405 200 405 200 375 c 2
 200 105 l 2
EndSplineSet
EndChar

StartChar: sterling
Encoding: 163 163 99
Width: 890
GlyphClass: 2
Flags: MW
HStem: 0 85<70 170 70 170 320 820> 325 75<70 170 70 170 320 570> 575 85<365 580 410 580 580 610>
VStem: 170 150<85 325 85 325 400 525 525 540> 670 150<490 525>
LayerCount: 2
Fore
SplineSet
70 0 m 1
 70 85 l 1
 170 85 l 1
 170 325 l 1
 70 325 l 1
 70 400 l 1
 170 400 l 1
 170 525 l 2
 170 660 290 660 410 660 c 2
 580 660 l 2
 700 660 820 660 820 525 c 2
 820 490 l 1
 670 490 l 1
 670 540 l 2
 670 575 640 575 610 575 c 2
 380 575 l 2
 350 575 320 575 320 540 c 2
 320 400 l 1
 570 400 l 1
 570 325 l 1
 320 325 l 1
 320 85 l 1
 820 85 l 1
 820 0 l 1
 70 0 l 1
EndSplineSet
EndChar

StartChar: currency
Encoding: 164 164 100
Width: 780
GlyphClass: 2
Flags: MW
HStem: 160 75<320 460 460 470 320 540> 425 75<310 320 320 460>
VStem: 160 120<247.5 260 260 400> 500 120<260 400 400 412.5>
LayerCount: 2
Fore
SplineSet
60 140 m 1
 160 240 l 1
 160 420 l 1
 60 520 l 1
 140 600 l 1
 240 500 l 1
 540 500 l 1
 640 600 l 1
 720 520 l 1
 620 420 l 1
 620 240 l 1
 720 140 l 1
 640 60 l 1
 540 160 l 1
 240 160 l 1
 140 60 l 1
 60 140 l 1
280 260 m 2
 280 235 300 235 320 235 c 2
 460 235 l 2
 480 235 500 235 500 260 c 2
 500 400 l 2
 500 425 480 425 460 425 c 2
 320 425 l 2
 300 425 280 425 280 400 c 2
 280 260 l 2
EndSplineSet
EndChar

StartChar: yen
Encoding: 165 165 101
Width: 890
GlyphClass: 2
Flags: MW
HStem: 0 21G<370 520 370 370> 115 75<170 370 170 370 520 720> 190 60<170 370 170 370 520 720> 250 75<170 355 170 370 170 355 535 720> 640 20G<20 200 200 200 690 870 870 870>
VStem: 370 150<0 115 0 115 190 250 0 250>
LayerCount: 2
Fore
SplineSet
20 660 m 1xdc
 200 660 l 1
 445 415 l 1
 690 660 l 1
 870 660 l 1
 535 325 l 1
 720 325 l 1
 720 250 l 1
 520 250 l 1
 520 190 l 1
 720 190 l 1
 720 115 l 1
 520 115 l 1
 520 0 l 1
 370 0 l 1
 370 115 l 1
 170 115 l 1
 170 190 l 1
 370 190 l 1
 370 250 l 1x20
 170 250 l 1
 170 325 l 1
 355 325 l 1
 20 660 l 1xdc
EndSplineSet
EndChar

StartChar: brokenbar
Encoding: 166 166 102
Width: 320
GlyphClass: 2
Flags: MW
HStem: -225 21G<100 220 100 100> 120 20G<100 220 220 220> 300 21G<100 100 100 220> 640 20G<100 220 220 220>
VStem: 100 120<-225 140 -225 140 300 660>
LayerCount: 2
Fore
SplineSet
100 140 m 1
 220 140 l 1
 220 -225 l 1
 100 -225 l 1
 100 140 l 1
100 300 m 1
 100 660 l 1
 220 660 l 1
 220 300 l 1
 100 300 l 1
EndSplineSet
EndChar

StartChar: section
Encoding: 167 167 103
Width: 840
GlyphClass: 2
Flags: MW
HStem: -175 85<280 310 310 530> 75 85<280 310 310 560> 325 85<265 530 280 530 530 560> 575 85<265 530 310 530 530 560>
VStem: 70 150<-40 -25 -72.5 -25 210 270 270 290 470 525 525 540> 620 150<-55 -40 -40 20 -107.5 40 -107.5 57.5 195 220 220 275 510 525>
LayerCount: 2
Fore
SplineSet
70 -25 m 1
 220 -25 l 1
 220 -55 l 2
 220 -90 250 -90 280 -90 c 2
 560 -90 l 2
 590 -90 620 -90 620 -55 c 2
 620 40 l 2
 620 75 590 75 560 75 c 2
 310 75 l 2
 190 75 70 75 70 210 c 2
 70 270 l 2
 70 330 110 360 150 370 c 1
 110 380 70 410 70 470 c 2
 70 525 l 2
 70 660 190 660 310 660 c 2
 530 660 l 2
 650 660 770 660 770 525 c 2
 770 510 l 1
 620 510 l 1
 620 540 l 2
 620 575 590 575 560 575 c 2
 280 575 l 2
 250 575 220 575 220 540 c 2
 220 445 l 2
 220 410 250 410 280 410 c 2
 530 410 l 2
 650 410 770 410 770 275 c 2
 770 220 l 2
 770 160 730 130 690 120 c 1
 730 110 770 80 770 20 c 2
 770 -40 l 2
 770 -175 650 -175 530 -175 c 2
 310 -175 l 2
 190 -175 70 -175 70 -40 c 2
 70 -25 l 1
220 195 m 2
 220 160 250 160 280 160 c 2
 560 160 l 2
 590 160 620 160 620 195 c 2
 620 290 l 2
 620 325 590 325 560 325 c 2
 280 325 l 2
 250 325 220 325 220 290 c 2
 220 195 l 2
EndSplineSet
EndChar

StartChar: dieresis
Encoding: 168 168 104
Width: 500
GlyphClass: 2
Flags: MW
HStem: 580 100<75 195 75 195 305 425>
VStem: 75 120<580 680 580 680> 305 120<580 680 580 680>
LayerCount: 2
Fore
SplineSet
75 580 m 1
 75 680 l 1
 195 680 l 1
 195 580 l 1
 75 580 l 1
305 580 m 1
 305 680 l 1
 425 680 l 1
 425 580 l 1
 305 580 l 1
EndSplineSet
EndChar

StartChar: copyright
Encoding: 169 169 105
Width: 1000
GlyphClass: 2
Flags: MW
HStem: 0 60<210 720 280 720 720 740> 160 60<420 700 460 700> 440 60<450 700 460 700> 600 60<260 280 280 720>
VStem: 60 120<115 545> 300 120<250 410 410 415> 820 120<115 545>
LayerCount: 2
Fore
SplineSet
60 115 m 2
 60 545 l 2
 60 660 160 660 260 660 c 2
 740 660 l 2
 840 660 940 660 940 545 c 2
 940 115 l 2
 940 0 840 0 740 0 c 2
 260 0 l 2
 160 0 60 0 60 115 c 2
180 115 m 2
 180 60 230 60 280 60 c 2
 720 60 l 2
 770 60 820 60 820 115 c 2
 820 545 l 2
 820 600 770 600 720 600 c 2
 280 600 l 2
 230 600 180 600 180 545 c 2
 180 115 l 2
300 250 m 2
 300 410 l 2
 300 500 380 500 460 500 c 2
 700 500 l 1
 700 440 l 1
 460 440 l 2
 440 440 420 440 420 415 c 2
 420 245 l 2
 420 220 440 220 460 220 c 2
 700 220 l 1
 700 160 l 1
 460 160 l 2
 380 160 300 160 300 250 c 2
EndSplineSet
EndChar

StartChar: ordfeminine
Encoding: 170 170 106
Width: 540
GlyphClass: 2
Flags: MW
HStem: 180 60<60 480 60 480> 320 60<180 360 220 360 220 480> 475 60<210 360 220 360> 600 60<100 320 100 320>
VStem: 60 120<410 445 445 450 392.5 490> 360 120<380 475 475 475 535 570>
LayerCount: 2
Fore
SplineSet
60 180 m 1
 60 240 l 1
 480 240 l 1
 480 180 l 1
 60 180 l 1
60 410 m 2
 60 445 l 2
 60 535 140 535 220 535 c 2
 360 535 l 1
 360 575 l 2
 360 600 340 600 320 600 c 2
 100 600 l 1
 100 660 l 1
 320 660 l 2
 400 660 480 660 480 570 c 2
 480 320 l 1
 220 320 l 2
 140 320 60 320 60 410 c 2
180 405 m 2
 180 380 200 380 220 380 c 2
 360 380 l 1
 360 475 l 1
 220 475 l 2
 200 475 180 475 180 450 c 2
 180 405 l 2
EndSplineSet
EndChar

StartChar: guillemotleft
Encoding: 171 171 107
Width: 730
GlyphClass: 2
Flags: MW
HStem: 40 400<260 380 260 380 550 670 260 550>
VStem: 60 320<40 240> 350 320<40 240>
LayerCount: 2
Fore
SplineSet
350 240 m 1xa0
 550 440 l 1
 670 440 l 1
 490 240 l 1
 670 40 l 1
 550 40 l 1
 350 240 l 1xa0
60 240 m 1xc0
 260 440 l 1
 380 440 l 1
 200 240 l 1
 380 40 l 1
 260 40 l 1
 60 240 l 1xc0
EndSplineSet
EndChar

StartChar: logicalnot
Encoding: 172 172 108
Width: 640
GlyphClass: 2
Flags: MW
HStem: 290 100<60 580 60 460>
VStem: 460 120<90 290 290 290>
LayerCount: 2
Fore
SplineSet
60 290 m 1
 60 390 l 1
 580 390 l 1
 580 90 l 1
 460 90 l 1
 460 290 l 1
 60 290 l 1
EndSplineSet
EndChar

StartChar: uni00AD
Encoding: 173 173 109
Width: 520
GlyphClass: 2
Flags: MW
HStem: 190 100<60 460 60 460>
VStem: 60 400<190 290 190 290>
LayerCount: 2
Fore
SplineSet
60 190 m 1
 60 290 l 1
 460 290 l 1
 460 190 l 1
 60 190 l 1
EndSplineSet
EndChar

StartChar: registered
Encoding: 174 174 110
Width: 1020
GlyphClass: 2
Flags: MW
HStem: 0 60<210 740 280 740 740 760> 160 21G<300 300 300 420 610 610 610 730> 305 60<420 465 420 560 420 620> 440 60<420 560 420 420> 600 60<260 280 280 740>
VStem: 60 120<115 545> 300 120<160 305 365 440> 600 120<390 395 395 410 355 415 355 427.5> 840 120<115 545>
LayerCount: 2
Fore
SplineSet
60 115 m 2
 60 545 l 2
 60 660 160 660 260 660 c 2
 760 660 l 2
 860 660 960 660 960 545 c 2
 960 115 l 2
 960 0 860 0 760 0 c 2
 260 0 l 2
 160 0 60 0 60 115 c 2
180 115 m 2
 180 60 230 60 280 60 c 2
 740 60 l 2
 790 60 840 60 840 115 c 2
 840 545 l 2
 840 600 790 600 740 600 c 2
 280 600 l 2
 230 600 180 600 180 545 c 2
 180 115 l 2
300 160 m 1
 300 500 l 1
 560 500 l 2
 640 500 720 500 720 410 c 2
 720 395 l 2
 720 315 655 305 585 305 c 1
 730 160 l 1
 610 160 l 1
 465 305 l 1
 420 305 l 1
 420 160 l 1
 300 160 l 1
420 365 m 1
 560 365 l 2
 580 365 600 365 600 390 c 2
 600 415 l 2
 600 440 580 440 560 440 c 2
 420 440 l 1
 420 365 l 1
EndSplineSet
EndChar

StartChar: macron
Encoding: 175 175 111
Width: 500
GlyphClass: 2
Flags: MW
HStem: 585 75<70 430 70 430>
VStem: 70 360<585 660 585 660>
LayerCount: 2
Fore
SplineSet
70 585 m 1
 70 660 l 1
 430 660 l 1
 430 585 l 1
 70 585 l 1
EndSplineSet
EndChar

StartChar: degree
Encoding: 176 176 112
Width: 540
GlyphClass: 2
Flags: MW
HStem: 390 60<180 320 220 320> 600 60<210 320 220 320>
VStem: 60 120<480 570 570 575 462.5 615> 360 120<475 480 480 570 435 575 435 587.5>
LayerCount: 2
Fore
SplineSet
60 480 m 2
 60 570 l 2
 60 660 140 660 220 660 c 2
 320 660 l 2
 400 660 480 660 480 570 c 2
 480 480 l 2
 480 390 400 390 320 390 c 2
 220 390 l 2
 140 390 60 390 60 480 c 2
180 475 m 2
 180 450 200 450 220 450 c 2
 320 450 l 2
 340 450 360 450 360 475 c 2
 360 575 l 2
 360 600 340 600 320 600 c 2
 220 600 l 2
 200 600 180 600 180 575 c 2
 180 475 l 2
EndSplineSet
EndChar

StartChar: plusminus
Encoding: 177 177 113
Width: 700
GlyphClass: 2
Flags: MW
HStem: 0 100<60 640 60 640> 150 21G<275 425 275 275> 300 100<60 275 60 275 425 640> 530 20G<275 425 425 425>
VStem: 275 150<150 300 150 300 400 550>
LayerCount: 2
Fore
SplineSet
60 0 m 1
 60 100 l 1
 640 100 l 1
 640 0 l 1
 60 0 l 1
60 300 m 1
 60 400 l 1
 275 400 l 1
 275 550 l 1
 425 550 l 1
 425 400 l 1
 640 400 l 1
 640 300 l 1
 425 300 l 1
 425 150 l 1
 275 150 l 1
 275 300 l 1
 60 300 l 1
EndSplineSet
EndChar

StartChar: uni00B2
Encoding: 178 178 114
Width: 540
GlyphClass: 2
Flags: MW
HStem: 320 60<180 480 180 480> 475 60<210 320 220 320> 600 60<80 320 80 320>
VStem: 60 120<380 445 445 450 380 490> 360 120<560 575 575 587.5>
LayerCount: 2
Fore
SplineSet
60 320 m 1
 60 445 l 2
 60 535 140 535 220 535 c 2
 320 535 l 2
 340 535 360 535 360 560 c 2
 360 575 l 2
 360 600 340 600 320 600 c 2
 80 600 l 1
 80 660 l 1
 320 660 l 2
 400 660 480 660 480 570 c 0
 480 475 400 475 320 475 c 2
 220 475 l 2
 200 475 180 475 180 450 c 2
 180 380 l 1
 480 380 l 1
 480 320 l 1
 60 320 l 1
EndSplineSet
EndChar

StartChar: uni00B3
Encoding: 179 179 115
Width: 540
GlyphClass: 2
Flags: MW
HStem: 320 60<60 320 60 320> 475 60<120 320 120 320> 600 60<60 320 60 320>
VStem: 360 120<405 410 410 440 365 450 365 462.5 560 575 575 587.5>
LayerCount: 2
Fore
SplineSet
60 320 m 1
 60 380 l 1
 320 380 l 2
 340 380 360 380 360 405 c 2
 360 450 l 2
 360 475 340 475 320 475 c 2
 120 475 l 1
 120 535 l 1
 320 535 l 2
 340 535 360 535 360 560 c 2
 360 575 l 2
 360 600 340 600 320 600 c 2
 60 600 l 1
 60 660 l 1
 320 660 l 2
 400 660 480 660 480 570 c 0
 480 525 440 510 420 505 c 1
 440 500 480 485 480 440 c 2
 480 410 l 2
 480 320 400 320 320 320 c 2
 60 320 l 1
EndSplineSet
EndChar

StartChar: acute
Encoding: 180 180 116
Width: 500
GlyphClass: 2
Flags: MW
HStem: 550 160<160 410 160 410>
VStem: 160 250<550 710>
LayerCount: 2
Fore
SplineSet
160 550 m 1
 260 710 l 1
 410 710 l 1
 250 550 l 1
 160 550 l 1
EndSplineSet
EndChar

StartChar: uni00B5
Encoding: 181 181 117
Width: 700
GlyphClass: 2
Flags: MW
HStem: -225 21G<60 60 60 200> 0 75<250 440 200 450> 460 20G<60 200 200 200 500 640 640 640>
VStem: 60 140<-225 0 87.5 100 100 480> 500 140<105 115 115 480>
LayerCount: 2
Fore
SplineSet
60 -225 m 1
 60 480 l 1
 200 480 l 1
 200 100 l 2
 200 75 225 75 250 75 c 2
 450 75 l 2
 475 75 500 75 500 105 c 2
 500 480 l 1
 640 480 l 1
 640 115 l 2
 640 0 540 0 440 0 c 2
 200 0 l 1
 200 -225 l 1
 60 -225 l 1
EndSplineSet
EndChar

StartChar: paragraph
Encoding: 182 182 118
Width: 710
GlyphClass: 2
Flags: MW
HStem: -225 21G<290 410 290 290 530 650 530 530> 585 75<410 530 410 410>
VStem: 290 120<-225 260 260 260 -225 660> 530 120<-225 585 585 585>
LayerCount: 2
Fore
SplineSet
60 430 m 2
 60 490 l 2
 60 620 164 660 290 660 c 2
 650 660 l 1
 650 -225 l 1
 530 -225 l 1
 530 585 l 1
 410 585 l 1
 410 -225 l 1
 290 -225 l 1
 290 260 l 1
 158 260 60 300 60 430 c 2
EndSplineSet
EndChar

StartChar: periodcentered
Encoding: 183 183 119
Width: 300
GlyphClass: 2
Flags: MW
HStem: 180 120<75 225 75 225>
VStem: 75 150<180 300 180 300>
LayerCount: 2
Fore
SplineSet
75 180 m 1
 75 300 l 1
 225 300 l 1
 225 180 l 1
 75 180 l 1
EndSplineSet
EndChar

StartChar: cedilla
Encoding: 184 184 120
Width: 500
GlyphClass: 2
Flags: MW
HStem: -225 50<160 190 190 210 160 190> -20 20G<180 280 280 280>
VStem: 160 21G<-225 -175 -175 -175> 270 100<-150 -117.5 -175 -115>
LayerCount: 2
Fore
SplineSet
160 -175 m 1
 190 -175 l 2
 230 -175 270 -170 270 -130 c 0
 270 -100 255 -75 180 0 c 1
 280 0 l 1
 350 -70 370 -100 370 -135 c 0
 370 -215 290 -225 210 -225 c 2
 160 -225 l 1
 160 -175 l 1
EndSplineSet
EndChar

StartChar: uni00B9
Encoding: 185 185 121
Width: 340
GlyphClass: 2
Flags: MW
HStem: 600 60<60 280 60 160>
VStem: 160 120<320 600 600 600>
LayerCount: 2
Fore
SplineSet
60 600 m 1
 60 660 l 1
 280 660 l 1
 280 320 l 1
 160 320 l 1
 160 600 l 1
 60 600 l 1
EndSplineSet
EndChar

StartChar: ordmasculine
Encoding: 186 186 122
Width: 540
GlyphClass: 2
Flags: MW
HStem: 180 60<60 480 60 480> 320 60<180 320 220 320> 600 60<210 320 220 320>
VStem: 60 120<410 570 570 575> 360 120<405 410 410 570>
LayerCount: 2
Fore
SplineSet
60 180 m 1
 60 240 l 1
 480 240 l 1
 480 180 l 1
 60 180 l 1
60 410 m 2
 60 570 l 2
 60 660 140 660 220 660 c 2
 320 660 l 2
 400 660 480 660 480 570 c 2
 480 410 l 2
 480 320 400 320 320 320 c 2
 220 320 l 2
 140 320 60 320 60 410 c 2
180 405 m 2
 180 380 200 380 220 380 c 2
 320 380 l 2
 340 380 360 380 360 405 c 2
 360 575 l 2
 360 600 340 600 320 600 c 2
 220 600 l 2
 200 600 180 600 180 575 c 2
 180 405 l 2
EndSplineSet
EndChar

StartChar: guillemotright
Encoding: 187 187 123
Width: 730
GlyphClass: 2
Flags: MW
HStem: 40 400<60 180 60 180 60 350 350 470>
VStem: 60 320<40 240 240 440> 350 320<40 240 240 440>
LayerCount: 2
Fore
SplineSet
350 40 m 1xa0
 530 240 l 1
 350 440 l 1
 470 440 l 1
 670 240 l 1
 470 40 l 1
 350 40 l 1xa0
60 40 m 1xc0
 240 240 l 1
 60 440 l 1
 180 440 l 1
 380 240 l 1
 180 40 l 1
 60 40 l 1xc0
EndSplineSet
EndChar

StartChar: onequarter
Encoding: 188 188 124
Width: 990
GlyphClass: 2
Flags: MW
HStem: 0 21<210 210 210 330 810 930 810 810> 70 60<510 510 639 810> 320 20 600 60<60 280 60 160> 640 20<60 280 280 280 540 660 660 660>
VStem: 160 120<320 600 600 600> 510 21<70 130 130 130> 810 120<0 70 70 70 130 263 263 263>
LayerCount: 2
Fore
SplineSet
510 70 m 1x63
 510 130 l 1
 780 340 l 1
 930 340 l 1
 930 0 l 1
 810 0 l 1
 810 70 l 1
 510 70 l 1x63
639 130 m 1
 810 130 l 1
 810 263 l 1
 639 130 l 1
210 0 m 1x88
 540 660 l 1
 660 660 l 1
 330 0 l 1
 210 0 l 1x88
60 600 m 1x14
 60 660 l 1
 280 660 l 1
 280 320 l 1
 160 320 l 1
 160 600 l 1
 60 600 l 1x14
EndSplineSet
EndChar

StartChar: onehalf
Encoding: 189 189 125
Width: 1030
GlyphClass: 2
Flags: MW
HStem: 0 21<210 210 210 330 550 550 550 970> 0 60<670 970 670 970> 155 60<700 810 710 810> 280 60<570 810 570 810> 600 60<60 280 60 160> 640 20<60 280 280 280 540 660 660 660>
VStem: 160 120<320 600 600 600> 550 120<60 125 125 130 60 170> 850 120<240 255 255 267.5>
LayerCount: 2
Fore
SplineSet
550 0 m 1x7180
 550 125 l 2
 550 215 630 215 710 215 c 2
 810 215 l 2
 830 215 850 215 850 240 c 2
 850 255 l 2
 850 280 830 280 810 280 c 2
 570 280 l 1
 570 340 l 1
 810 340 l 2
 890 340 970 340 970 250 c 0
 970 155 890 155 810 155 c 2
 710 155 l 2
 690 155 670 155 670 130 c 2
 670 60 l 1
 970 60 l 1
 970 0 l 1
 550 0 l 1x7180
210 0 m 1x84
 540 660 l 1
 660 660 l 1
 330 0 l 1
 210 0 l 1x84
60 600 m 1x0a
 60 660 l 1
 280 660 l 1
 280 320 l 1
 160 320 l 1
 160 600 l 1
 60 600 l 1x0a
EndSplineSet
EndChar

StartChar: threequarters
Encoding: 190 190 126
Width: 1150
GlyphClass: 2
Flags: MW
HStem: 0 21<370 370 370 490 970 1090 970 970> 70 60<670 670 799 970> 320 20 320 60<60 320 60 320> 475 60<120 320 120 320> 600 60<60 320 60 320> 640 20<60 320 320 360 700 820 820 820>
VStem: 360 120<405 410 410 440 365 450 365 462.5 560 575 575 587.5> 670 21<70 130 130 130> 970 120<0 70 70 70 130 263 263 263>
LayerCount: 2
Fore
SplineSet
670 70 m 1x60c0
 670 130 l 1
 940 340 l 1
 1090 340 l 1
 1090 0 l 1
 970 0 l 1
 970 70 l 1
 670 70 l 1x60c0
799 130 m 1
 970 130 l 1
 970 263 l 1
 799 130 l 1
60 320 m 1x1d
 60 380 l 1
 320 380 l 2
 340 380 360 380 360 405 c 2
 360 450 l 2
 360 475 340 475 320 475 c 2
 120 475 l 1
 120 535 l 1
 320 535 l 2
 340 535 360 535 360 560 c 2
 360 575 l 2
 360 600 340 600 320 600 c 2
 60 600 l 1
 60 660 l 1
 320 660 l 2
 400 660 480 660 480 570 c 0
 480 525 440 510 420 505 c 1
 440 500 480 485 480 440 c 2
 480 410 l 2
 480 320 400 320 320 320 c 2
 60 320 l 1x1d
370 0 m 1x82
 700 660 l 1
 820 660 l 1
 490 0 l 1
 370 0 l 1x82
EndSplineSet
EndChar

StartChar: questiondown
Encoding: 191 191 127
Width: 850
GlyphClass: 2
Flags: MW
HStem: -225 85<285 315 315 775> 25 85<270 375 315 345> 190 20G<435 585 585 585> 315 120<435 585 435 585>
VStem: 75 150<-90 -25 -25 -10 -122.5 42.5> 435 150<145 160 160 210 92.5 210 315 435>
LayerCount: 2
Fore
SplineSet
75 -25 m 2
 75 110 195 110 315 110 c 2
 375 110 l 2
 405 110 435 110 435 145 c 2
 435 210 l 1
 585 210 l 1
 585 160 l 2
 585 25 465 25 345 25 c 2
 285 25 l 2
 255 25 225 25 225 -10 c 2
 225 -105 l 2
 225 -140 255 -140 285 -140 c 2
 775 -140 l 1
 775 -225 l 1
 315 -225 l 2
 195 -225 75 -225 75 -90 c 2
 75 -25 l 2
435 315 m 1
 435 435 l 1
 585 435 l 1
 585 315 l 1
 435 315 l 1
EndSplineSet
EndChar

StartChar: Agrave
Encoding: 192 192 128
Width: 890
GlyphClass: 2
Flags: MW
HStem: 0 21<20 20 20 170 720 720 720 870> 210 80<315 575 315 615 275 575> 640 20<350 540 540 540> 730 160<285 535 285 445>
VStem: 285 250<730 890>
LayerCount: 2
Fore
SplineSet
285 890 m 1
 435 890 l 1
 535 730 l 1
 445 730 l 1
 285 890 l 1
20 0 m 1
 350 660 l 1
 540 660 l 1
 870 0 l 1
 720 0 l 1
 615 210 l 1
 275 210 l 1
 170 0 l 1
 20 0 l 1
315 290 m 1
 575 290 l 1
 445 550 l 1
 315 290 l 1
EndSplineSet
EndChar

StartChar: Aacute
Encoding: 193 193 129
Width: 890
GlyphClass: 2
Flags: MW
HStem: 0 21<20 20 20 170 720 720 720 870> 210 80<315 575 315 615 275 575> 640 20<350 540 540 540> 730 160<355 605 355 605>
VStem: 355 250<730 890>
LayerCount: 2
Fore
SplineSet
355 730 m 1
 455 890 l 1
 605 890 l 1
 445 730 l 1
 355 730 l 1
20 0 m 1
 350 660 l 1
 540 660 l 1
 870 0 l 1
 720 0 l 1
 615 210 l 1
 275 210 l 1
 170 0 l 1
 20 0 l 1
315 290 m 1
 575 290 l 1
 445 550 l 1
 315 290 l 1
EndSplineSet
EndChar

StartChar: Acircumflex
Encoding: 194 194 130
Width: 890
GlyphClass: 2
Flags: MW
HStem: 0 21<20 20 20 170 720 720 720 870> 210 80<315 575 315 615 275 575> 640 20<350 540 540 540> 730 160<245 485 405 545 405 645>
LayerCount: 2
Fore
SplineSet
245 730 m 1
 405 890 l 1
 485 890 l 1
 645 730 l 1
 545 730 l 1
 445 820 l 1
 345 730 l 1
 245 730 l 1
20 0 m 1
 350 660 l 1
 540 660 l 1
 870 0 l 1
 720 0 l 1
 615 210 l 1
 275 210 l 1
 170 0 l 1
 20 0 l 1
315 290 m 1
 575 290 l 1
 445 550 l 1
 315 290 l 1
EndSplineSet
EndChar

StartChar: Atilde
Encoding: 195 195 131
Width: 890
GlyphClass: 2
Flags: MW
HStem: 0 21<20 20 20 170 720 720 720 870> 210 80<315 575 315 615 275 575> 640 20<350 540 540 540> 740 70<245 380> 810 70<320 380>
VStem: 245 90<740 740> 555 90<880 880>
LayerCount: 2
Fore
SplineSet
340 880 m 0x08
 365 880 375 875 445 840 c 0
 485 820 505 810 515 810 c 0x10
 530 810 540 820 555 880 c 1
 645 880 l 1x08
 620 775 590 740 550 740 c 0x10
 525 740 515 745 445 780 c 0
 405 800 385 810 375 810 c 0x08
 360 810 350 800 335 740 c 1
 245 740 l 1x10
 270 845 300 880 340 880 c 0x08
20 0 m 1xe0
 350 660 l 1
 540 660 l 1
 870 0 l 1
 720 0 l 1
 615 210 l 1
 275 210 l 1
 170 0 l 1
 20 0 l 1xe0
315 290 m 1
 575 290 l 1
 445 550 l 1
 315 290 l 1
EndSplineSet
EndChar

StartChar: Adieresis
Encoding: 196 196 132
Width: 890
GlyphClass: 2
Flags: MW
HStem: 0 21<20 20 20 170 720 720 720 870> 210 80<315 575 315 615 275 575> 640 20<350 540 540 540> 760 100<270 390 270 390 500 620>
VStem: 270 120<760 860 760 860> 500 120<760 860 760 860>
LayerCount: 2
Fore
SplineSet
270 760 m 1
 270 860 l 1
 390 860 l 1
 390 760 l 1
 270 760 l 1
500 760 m 1
 500 860 l 1
 620 860 l 1
 620 760 l 1
 500 760 l 1
20 0 m 1
 350 660 l 1
 540 660 l 1
 870 0 l 1
 720 0 l 1
 615 210 l 1
 275 210 l 1
 170 0 l 1
 20 0 l 1
315 290 m 1
 575 290 l 1
 445 550 l 1
 315 290 l 1
EndSplineSet
EndChar

StartChar: Aring
Encoding: 197 197 133
Width: 890
GlyphClass: 2
Flags: MW
HStem: 0 21<20 20 20 170 720 720 720 870> 210 80<315 575 315 615 275 575> 640 20<350 390 350 540 390 500 540 540> 660 21<350 390 350 540 390 500 540 540> 840 50<390 400 400 490>
VStem: 270 100<745 805 805 820 723.5 833.5> 520 100<730 745 745 805 716.5 820 716.5 826.5>
LayerCount: 2
Fore
SplineSet
270 745 m 2x1e
 270 805 l 2
 270 862 310 890 390 890 c 2
 500 890 l 2
 580 890 620 862 620 805 c 2
 620 745 l 2
 620 688 580 660 500 660 c 2
 390 660 l 2
 310 660 270 688 270 745 c 2x1e
370 730 m 2
 370 717 380 710 400 710 c 2
 490 710 l 2
 510 710 520 717 520 730 c 2
 520 820 l 2
 520 833 510 840 490 840 c 2
 400 840 l 2
 380 840 370 833 370 820 c 2
 370 730 l 2
20 0 m 1xe0
 350 660 l 1
 540 660 l 1
 870 0 l 1
 720 0 l 1
 615 210 l 1
 275 210 l 1
 170 0 l 1
 20 0 l 1xe0
315 290 m 1
 575 290 l 1
 445 550 l 1
 315 290 l 1
EndSplineSet
EndChar

StartChar: AE
Encoding: 198 198 134
Width: 1290
GlyphClass: 2
Flags: MW
HStem: 0 85<720 1220 720 1220> 210 80<315 570 315 570 275 570> 325 85<720 1170 720 1170> 575 85<457 570 457 457 720 1220 720 720>
VStem: 570 150<85 210 210 210 290 325 410 575>
LayerCount: 2
Fore
SplineSet
20 0 m 1
 350 660 l 1
 1220 660 l 1
 1220 575 l 1
 720 575 l 1
 720 410 l 1
 1170 410 l 1
 1170 325 l 1
 720 325 l 1
 720 85 l 1
 1220 85 l 1
 1220 0 l 1
 570 0 l 1
 570 210 l 1
 275 210 l 1
 170 0 l 1
 20 0 l 1
315 290 m 1
 570 290 l 1
 570 575 l 1
 457 575 l 1
 315 290 l 1
EndSplineSet
EndChar

StartChar: Ccedilla
Encoding: 199 199 135
Width: 840
GlyphClass: 2
Flags: MW
HStem: -225 50<370 400 400 420 370 400> -20 20<250 310 310 770 390 490 490 490> 0 85<280 310 310 770 390 490 490 490> 575 85<265 770 310 770 310 770>
VStem: 70 150<135 525 525 540> 370 21<-225 -175 -175 -175> 480 100<-150 -117.5 -175 -115>
LayerCount: 2
Fore
SplineSet
370 -175 m 1xc6
 400 -175 l 2
 440 -175 480 -170 480 -130 c 0
 480 -100 465 -75 390 0 c 1
 490 0 l 1
 560 -70 580 -100 580 -135 c 0
 580 -215 500 -225 420 -225 c 2
 370 -225 l 1
 370 -175 l 1xc6
70 135 m 2x38
 70 525 l 2
 70 660 190 660 310 660 c 2
 770 660 l 1
 770 575 l 1
 280 575 l 2
 250 575 220 575 220 540 c 2
 220 120 l 2
 220 85 250 85 280 85 c 2
 770 85 l 1
 770 0 l 1
 310 0 l 2
 190 0 70 0 70 135 c 2x38
EndSplineSet
EndChar

StartChar: Egrave
Encoding: 200 200 136
Width: 840
GlyphClass: 2
Flags: MW
HStem: 0 85<220 770 220 770> 325 85<220 720 220 720> 575 85<220 770 220 220> 730 160<260 510 260 420>
VStem: 70 150<85 325 410 575> 260 250<730 890>
LayerCount: 2
Fore
SplineSet
260 890 m 1
 410 890 l 1
 510 730 l 1
 420 730 l 1
 260 890 l 1
70 0 m 1
 70 660 l 1
 770 660 l 1
 770 575 l 1
 220 575 l 1
 220 410 l 1
 720 410 l 1
 720 325 l 1
 220 325 l 1
 220 85 l 1
 770 85 l 1
 770 0 l 1
 70 0 l 1
EndSplineSet
EndChar

StartChar: Eacute
Encoding: 201 201 137
Width: 840
GlyphClass: 2
Flags: MW
HStem: 0 85<220 770 220 770> 325 85<220 720 220 720> 575 85<220 770 220 220> 730 160<330 580 330 580>
VStem: 70 150<85 325 410 575> 330 250<730 890>
LayerCount: 2
Fore
SplineSet
330 730 m 1
 430 890 l 1
 580 890 l 1
 420 730 l 1
 330 730 l 1
70 0 m 1
 70 660 l 1
 770 660 l 1
 770 575 l 1
 220 575 l 1
 220 410 l 1
 720 410 l 1
 720 325 l 1
 220 325 l 1
 220 85 l 1
 770 85 l 1
 770 0 l 1
 70 0 l 1
EndSplineSet
EndChar

StartChar: Ecircumflex
Encoding: 202 202 138
Width: 840
GlyphClass: 2
Flags: MW
HStem: 0 85<220 770 220 770> 325 85<220 720 220 720> 575 85<220 770 220 220> 730 160<220 460 380 520 380 620>
VStem: 70 150<85 325 410 575>
LayerCount: 2
Fore
SplineSet
220 730 m 1
 380 890 l 1
 460 890 l 1
 620 730 l 1
 520 730 l 1
 420 820 l 1
 320 730 l 1
 220 730 l 1
70 0 m 1
 70 660 l 1
 770 660 l 1
 770 575 l 1
 220 575 l 1
 220 410 l 1
 720 410 l 1
 720 325 l 1
 220 325 l 1
 220 85 l 1
 770 85 l 1
 770 0 l 1
 70 0 l 1
EndSplineSet
EndChar

StartChar: Edieresis
Encoding: 203 203 139
Width: 840
GlyphClass: 2
Flags: MW
HStem: 0 85<220 770 220 770> 325 85<220 720 220 720> 575 85<220 770 220 220> 760 100<245 365 245 365 475 595>
VStem: 70 150<85 325 410 575> 245 120<760 860 760 860> 475 120<760 860 760 860>
LayerCount: 2
Fore
SplineSet
245 760 m 1
 245 860 l 1
 365 860 l 1
 365 760 l 1
 245 760 l 1
475 760 m 1
 475 860 l 1
 595 860 l 1
 595 760 l 1
 475 760 l 1
70 0 m 1
 70 660 l 1
 770 660 l 1
 770 575 l 1
 220 575 l 1
 220 410 l 1
 720 410 l 1
 720 325 l 1
 220 325 l 1
 220 85 l 1
 770 85 l 1
 770 0 l 1
 70 0 l 1
EndSplineSet
EndChar

StartChar: Igrave
Encoding: 204 204 140
Width: 290
GlyphClass: 2
Flags: MW
HStem: 0 21<70 70 70 220> 640 20<70 220 220 220> 730 160<-10 240 -10 150>
VStem: -10 250<730 890> 70 150<0 660 0 660>
LayerCount: 2
Fore
SplineSet
-10 890 m 1x30
 140 890 l 1
 240 730 l 1
 150 730 l 1
 -10 890 l 1x30
70 0 m 1xc8
 70 660 l 1
 220 660 l 1
 220 0 l 1
 70 0 l 1xc8
EndSplineSet
EndChar

StartChar: Iacute
Encoding: 205 205 141
Width: 290
GlyphClass: 2
Flags: MW
HStem: 0 21<70 70 70 220> 640 20<70 220 220 220> 730 160<50 300 50 300>
VStem: 50 250<730 890> 70 150<0 660 0 660>
LayerCount: 2
Fore
SplineSet
50 730 m 1x30
 150 890 l 1
 300 890 l 1
 140 730 l 1
 50 730 l 1x30
70 0 m 1xc8
 70 660 l 1
 220 660 l 1
 220 0 l 1
 70 0 l 1xc8
EndSplineSet
EndChar

StartChar: Icircumflex
Encoding: 206 206 142
Width: 320
GlyphClass: 2
Flags: MW
HStem: 0 21<85 85 85 235> 640 20<85 235 235 235> 730 160<-40 200 120 260 120 360>
VStem: 85 150<0 660 0 660>
LayerCount: 2
Fore
SplineSet
-40 730 m 1
 120 890 l 1
 200 890 l 1
 360 730 l 1
 260 730 l 1
 160 820 l 1
 60 730 l 1
 -40 730 l 1
85 0 m 1
 85 660 l 1
 235 660 l 1
 235 0 l 1
 85 0 l 1
EndSplineSet
EndChar

StartChar: Idieresis
Encoding: 207 207 143
Width: 320
GlyphClass: 2
Flags: MW
HStem: 0 21<85 85 85 235> 640 20<85 235 235 235> 760 100<-15 105 -15 105 215 335>
VStem: -15 120<760 860 760 860> 85 150<0 660 0 660> 215 120<760 860 760 860>
LayerCount: 2
Fore
SplineSet
-15 760 m 1x34
 -15 860 l 1
 105 860 l 1
 105 760 l 1
 -15 760 l 1x34
215 760 m 1
 215 860 l 1
 335 860 l 1
 335 760 l 1
 215 760 l 1
85 0 m 1xc8
 85 660 l 1
 235 660 l 1
 235 0 l 1
 85 0 l 1xc8
EndSplineSet
EndChar

StartChar: Eth
Encoding: 208 208 144
Width: 920
GlyphClass: 2
Flags: MW
HStem: 0 85<250 460 460 490> 330 75<20 100 20 100 250 475> 575 85<250 460 250 250>
VStem: 100 150<85 85 85 330 405 575> 700 150<285 300 300 360 180 375 180 455>
LayerCount: 2
Fore
SplineSet
20 330 m 1
 20 405 l 1
 100 405 l 1
 100 660 l 1
 490 660 l 2
 670 660 850 600 850 360 c 2
 850 300 l 2
 850 60 670 0 490 0 c 2
 100 0 l 1
 100 330 l 1
 20 330 l 1
250 85 m 1
 460 85 l 2
 580 85 700 125 700 285 c 2
 700 375 l 2
 700 535 580 575 460 575 c 2
 250 575 l 1
 250 405 l 1
 475 405 l 1
 475 330 l 1
 250 330 l 1
 250 85 l 1
EndSplineSet
EndChar

StartChar: Ntilde
Encoding: 209 209 145
Width: 890
GlyphClass: 2
Flags: MW
HStem: 0 21<70 70 70 220 660 660 660 820> 640 20<70 230 230 230 670 820 820 820> 740 70<245 380> 810 70<320 380>
VStem: 70 150<0 490 0 660> 245 90<740 740> 555 90<880 880> 670 150<170 660 0 660>
LayerCount: 2
Fore
SplineSet
340 880 m 0x10
 365 880 375 875 445 840 c 0
 485 820 505 810 515 810 c 0x20
 530 810 540 820 555 880 c 1
 645 880 l 1x10
 620 775 590 740 550 740 c 0x20
 525 740 515 745 445 780 c 0
 405 800 385 810 375 810 c 0x10
 360 810 350 800 335 740 c 1
 245 740 l 1x20
 270 845 300 880 340 880 c 0x10
70 0 m 1xc9
 70 660 l 1
 230 660 l 1
 670 170 l 1
 670 660 l 1
 820 660 l 1
 820 0 l 1
 660 0 l 1
 220 490 l 1
 220 0 l 1
 70 0 l 1xc9
EndSplineSet
EndChar

StartChar: Ograve
Encoding: 210 210 146
Width: 890
GlyphClass: 2
Flags: MW
HStem: 0 85<280 310 310 580> 575 85<265 580 310 580 580 610> 730 160<285 535 285 445>
VStem: 70 150<135 525 525 540> 285 250<730 890> 670 150<120 135 135 525>
LayerCount: 2
Fore
SplineSet
285 890 m 1
 435 890 l 1
 535 730 l 1
 445 730 l 1
 285 890 l 1
70 135 m 2
 70 525 l 2
 70 660 190 660 310 660 c 2
 580 660 l 2
 700 660 820 660 820 525 c 2
 820 135 l 2
 820 0 700 0 580 0 c 2
 310 0 l 2
 190 0 70 0 70 135 c 2
220 120 m 2
 220 85 250 85 280 85 c 2
 610 85 l 2
 640 85 670 85 670 120 c 2
 670 540 l 2
 670 575 640 575 610 575 c 2
 280 575 l 2
 250 575 220 575 220 540 c 2
 220 120 l 2
EndSplineSet
EndChar

StartChar: Oacute
Encoding: 211 211 147
Width: 890
GlyphClass: 2
Flags: MW
HStem: 0 85<280 310 310 580> 575 85<265 580 310 580 580 610> 730 160<355 605 355 605>
VStem: 70 150<135 525 525 540> 355 250<730 890> 670 150<120 135 135 525>
LayerCount: 2
Fore
SplineSet
355 730 m 1
 455 890 l 1
 605 890 l 1
 445 730 l 1
 355 730 l 1
70 135 m 2
 70 525 l 2
 70 660 190 660 310 660 c 2
 580 660 l 2
 700 660 820 660 820 525 c 2
 820 135 l 2
 820 0 700 0 580 0 c 2
 310 0 l 2
 190 0 70 0 70 135 c 2
220 120 m 2
 220 85 250 85 280 85 c 2
 610 85 l 2
 640 85 670 85 670 120 c 2
 670 540 l 2
 670 575 640 575 610 575 c 2
 280 575 l 2
 250 575 220 575 220 540 c 2
 220 120 l 2
EndSplineSet
EndChar

StartChar: Ocircumflex
Encoding: 212 212 148
Width: 890
GlyphClass: 2
Flags: MW
HStem: 0 85<280 310 310 580> 575 85<265 580 310 580 580 610> 730 160<245 485 405 545 405 645>
VStem: 70 150<135 525 525 540> 670 150<120 135 135 525>
LayerCount: 2
Fore
SplineSet
245 730 m 1
 405 890 l 1
 485 890 l 1
 645 730 l 1
 545 730 l 1
 445 820 l 1
 345 730 l 1
 245 730 l 1
70 135 m 2
 70 525 l 2
 70 660 190 660 310 660 c 2
 580 660 l 2
 700 660 820 660 820 525 c 2
 820 135 l 2
 820 0 700 0 580 0 c 2
 310 0 l 2
 190 0 70 0 70 135 c 2
220 120 m 2
 220 85 250 85 280 85 c 2
 610 85 l 2
 640 85 670 85 670 120 c 2
 670 540 l 2
 670 575 640 575 610 575 c 2
 280 575 l 2
 250 575 220 575 220 540 c 2
 220 120 l 2
EndSplineSet
EndChar

StartChar: Otilde
Encoding: 213 213 149
Width: 890
GlyphClass: 2
Flags: MW
HStem: 0 85<280 310 310 580> 575 85<265 580 310 580 580 610> 740 70<245 380> 810 70<320 380>
VStem: 70 150<135 525 525 540> 245 90<740 740> 555 90<880 880> 670 150<120 135 135 525>
LayerCount: 2
Fore
SplineSet
340 880 m 0x10
 365 880 375 875 445 840 c 0
 485 820 505 810 515 810 c 0x20
 530 810 540 820 555 880 c 1
 645 880 l 1x10
 620 775 590 740 550 740 c 0x20
 525 740 515 745 445 780 c 0
 405 800 385 810 375 810 c 0x10
 360 810 350 800 335 740 c 1
 245 740 l 1x20
 270 845 300 880 340 880 c 0x10
70 135 m 2xc9
 70 525 l 2
 70 660 190 660 310 660 c 2
 580 660 l 2
 700 660 820 660 820 525 c 2
 820 135 l 2
 820 0 700 0 580 0 c 2
 310 0 l 2
 190 0 70 0 70 135 c 2xc9
220 120 m 2
 220 85 250 85 280 85 c 2
 610 85 l 2
 640 85 670 85 670 120 c 2
 670 540 l 2
 670 575 640 575 610 575 c 2
 280 575 l 2
 250 575 220 575 220 540 c 2
 220 120 l 2
EndSplineSet
EndChar

StartChar: Odieresis
Encoding: 214 214 150
Width: 890
GlyphClass: 2
Flags: MW
HStem: 0 85<280 310 310 580> 575 85<265 580 310 580 580 610> 760 100<270 390 270 390 500 620>
VStem: 70 150<135 525 525 540> 270 120<760 860 760 860> 500 120<760 860 760 860> 670 150<120 135 135 525>
LayerCount: 2
Fore
SplineSet
270 760 m 1
 270 860 l 1
 390 860 l 1
 390 760 l 1
 270 760 l 1
500 760 m 1
 500 860 l 1
 620 860 l 1
 620 760 l 1
 500 760 l 1
70 135 m 2
 70 525 l 2
 70 660 190 660 310 660 c 2
 580 660 l 2
 700 660 820 660 820 525 c 2
 820 135 l 2
 820 0 700 0 580 0 c 2
 310 0 l 2
 190 0 70 0 70 135 c 2
220 120 m 2
 220 85 250 85 280 85 c 2
 610 85 l 2
 640 85 670 85 670 120 c 2
 670 540 l 2
 670 575 640 575 610 575 c 2
 280 575 l 2
 250 575 220 575 220 540 c 2
 220 120 l 2
EndSplineSet
EndChar

StartChar: multiply
Encoding: 215 215 151
Width: 600
GlyphClass: 2
Flags: MW
HStem: 0 21G<140 140 460 460> 460 20G<140 140 460 460>
LayerCount: 2
Fore
SplineSet
60 80 m 1
 220 240 l 1
 60 400 l 1
 140 480 l 1
 300 320 l 1
 460 480 l 1
 540 400 l 1
 380 240 l 1
 540 80 l 1
 460 0 l 1
 300 160 l 1
 140 0 l 1
 60 80 l 1
EndSplineSet
EndChar

StartChar: Oslash
Encoding: 216 216 152
Width: 990
GlyphClass: 2
Flags: MW
HStem: 0 85<330 360 360 630> 575 85<315 630 360 630 630 660>
VStem: 120 150<102.5 120 120 135 285 525 525 540> 720 150<120 135 135 375 375 375 525 540 540 557.5>
LayerCount: 2
Fore
SplineSet
20 95 m 1
 20 185 l 1
 120 225 l 1
 120 525 l 2
 120 660 240 660 360 660 c 2
 630 660 l 2
 750 660 870 660 870 525 c 1
 970 565 l 1
 970 475 l 1
 870 435 l 1
 870 135 l 2
 870 0 750 0 630 0 c 2
 360 0 l 2
 240 0 120 0 120 135 c 1
 20 95 l 1
270 120 m 2
 270 85 300 85 330 85 c 2
 660 85 l 2
 690 85 720 85 720 120 c 2
 720 375 l 1
 270 195 l 1
 270 120 l 2
270 285 m 1
 720 465 l 1
 720 540 l 2
 720 575 690 575 660 575 c 2
 330 575 l 2
 300 575 270 575 270 540 c 2
 270 285 l 1
EndSplineSet
EndChar

StartChar: Ugrave
Encoding: 217 217 153
Width: 890
GlyphClass: 2
Flags: MW
HStem: 0 85<280 310 310 580> 640 20<70 220 220 220 670 820 820 820> 730 160<285 535 285 445>
VStem: 70 150<135 660> 285 250<730 890> 670 150<120 135 135 660>
LayerCount: 2
Fore
SplineSet
285 890 m 1
 435 890 l 1
 535 730 l 1
 445 730 l 1
 285 890 l 1
70 135 m 2
 70 660 l 1
 220 660 l 1
 220 120 l 2
 220 85 250 85 280 85 c 2
 610 85 l 2
 640 85 670 85 670 120 c 2
 670 660 l 1
 820 660 l 1
 820 135 l 2
 820 0 700 0 580 0 c 2
 310 0 l 2
 190 0 70 0 70 135 c 2
EndSplineSet
EndChar

StartChar: Uacute
Encoding: 218 218 154
Width: 890
GlyphClass: 2
Flags: MW
HStem: 0 85<280 310 310 580> 640 20<70 220 220 220 670 820 820 820> 730 160<355 605 355 605>
VStem: 70 150<135 660> 355 250<730 890> 670 150<120 135 135 660>
LayerCount: 2
Fore
SplineSet
355 730 m 1
 455 890 l 1
 605 890 l 1
 445 730 l 1
 355 730 l 1
70 135 m 2
 70 660 l 1
 220 660 l 1
 220 120 l 2
 220 85 250 85 280 85 c 2
 610 85 l 2
 640 85 670 85 670 120 c 2
 670 660 l 1
 820 660 l 1
 820 135 l 2
 820 0 700 0 580 0 c 2
 310 0 l 2
 190 0 70 0 70 135 c 2
EndSplineSet
EndChar

StartChar: Ucircumflex
Encoding: 219 219 155
Width: 890
GlyphClass: 2
Flags: MW
HStem: 0 85<280 310 310 580> 640 20<70 220 220 220 670 820 820 820> 730 160<245 485 405 545 405 645>
VStem: 70 150<135 660> 670 150<120 135 135 660>
LayerCount: 2
Fore
SplineSet
245 730 m 1
 405 890 l 1
 485 890 l 1
 645 730 l 1
 545 730 l 1
 445 820 l 1
 345 730 l 1
 245 730 l 1
70 135 m 2
 70 660 l 1
 220 660 l 1
 220 120 l 2
 220 85 250 85 280 85 c 2
 610 85 l 2
 640 85 670 85 670 120 c 2
 670 660 l 1
 820 660 l 1
 820 135 l 2
 820 0 700 0 580 0 c 2
 310 0 l 2
 190 0 70 0 70 135 c 2
EndSplineSet
EndChar

StartChar: Udieresis
Encoding: 220 220 156
Width: 890
GlyphClass: 2
Flags: MW
HStem: 0 85<280 310 310 580> 640 20<70 220 220 220 670 820 820 820> 760 100<270 390 270 390 500 620>
VStem: 70 150<135 660> 270 120<760 860 760 860> 500 120<760 860 760 860> 670 150<120 135 135 660>
LayerCount: 2
Fore
SplineSet
270 760 m 1
 270 860 l 1
 390 860 l 1
 390 760 l 1
 270 760 l 1
500 760 m 1
 500 860 l 1
 620 860 l 1
 620 760 l 1
 500 760 l 1
70 135 m 2
 70 660 l 1
 220 660 l 1
 220 120 l 2
 220 85 250 85 280 85 c 2
 610 85 l 2
 640 85 670 85 670 120 c 2
 670 660 l 1
 820 660 l 1
 820 135 l 2
 820 0 700 0 580 0 c 2
 310 0 l 2
 190 0 70 0 70 135 c 2
EndSplineSet
EndChar

StartChar: Yacute
Encoding: 221 221 157
Width: 890
GlyphClass: 2
Flags: MW
HStem: 0 21<370 520 370 370> 640 20<20 200 200 200 690 870 870 870> 730 160<355 605 355 605>
VStem: 355 250<730 890> 370 150<0 310 0 310>
LayerCount: 2
Fore
SplineSet
355 730 m 1x30
 455 890 l 1
 605 890 l 1
 445 730 l 1
 355 730 l 1x30
20 660 m 1xc8
 200 660 l 1
 445 415 l 1
 690 660 l 1
 870 660 l 1
 520 310 l 1
 520 0 l 1
 370 0 l 1
 370 310 l 1
 20 660 l 1xc8
EndSplineSet
EndChar

StartChar: Thorn
Encoding: 222 222 158
Width: 890
GlyphClass: 2
Flags: MW
HStem: 0 21G<70 70 70 220> 125 85<220 580 220 610> 450 85<220 580 580 610 220 580> 640 20G<70 220 220 220>
VStem: 70 150<0 125 210 450 535 660> 670 150<245 260 260 400 192.5 415>
LayerCount: 2
Fore
SplineSet
70 0 m 1
 70 660 l 1
 220 660 l 1
 220 535 l 1
 580 535 l 2
 700 535 820 535 820 400 c 2
 820 260 l 2
 820 125 700 125 580 125 c 2
 220 125 l 1
 220 0 l 1
 70 0 l 1
220 210 m 1
 610 210 l 2
 640 210 670 210 670 245 c 2
 670 415 l 2
 670 450 640 450 610 450 c 2
 220 450 l 1
 220 210 l 1
EndSplineSet
EndChar

StartChar: germandbls
Encoding: 223 223 159
Width: 700
GlyphClass: 2
Flags: MW
HStem: 0 75<320 450 320 440> 325 75<320 410 410 422.5 320 450 320 410> 585 75<237.5 400 260 400 400 410>
VStem: 60 140<0 545 545 555 0 602.5> 460 140<430 455 455 545 422.5 555 422.5 570> 500 140<105 115 115 260>
LayerCount: 2
Fore
SplineSet
60 0 m 1xf8
 60 545 l 2
 60 660 160 660 260 660 c 2
 400 660 l 2
 500 660 600 660 600 545 c 2
 600 455 l 2xf8
 600 390 570 370 530 365 c 1
 570 360 640 350 640 260 c 2
 640 115 l 2
 640 0 540 0 440 0 c 2
 320 0 l 1
 320 75 l 1
 450 75 l 2
 475 75 500 75 500 105 c 2
 500 295 l 2xf4
 500 325 475 325 450 325 c 2
 320 325 l 1
 320 400 l 1
 410 400 l 2
 435 400 460 400 460 430 c 2
 460 555 l 2
 460 585 435 585 410 585 c 2
 250 585 l 2
 225 585 200 585 200 555 c 2
 200 0 l 1
 60 0 l 1xf8
EndSplineSet
EndChar

StartChar: agrave
Encoding: 224 224 160
Width: 700
GlyphClass: 2
Flags: MW
HStem: 0 75<250 260 260 500 250 640> 225 75<237.5 500 260 500 260 500> 405 75<100 440 440 450 100 440> 550 160<190 440 190 350>
VStem: 60 140<115 185 185 195 90 242.5> 190 250<480 710> 500 140<75 225 225 225 300 365 0 375 0 390>
LayerCount: 2
Fore
SplineSet
190 710 m 1x14
 340 710 l 1
 440 550 l 1
 350 550 l 1
 190 710 l 1x14
60 115 m 2xea
 60 185 l 2
 60 300 160 300 260 300 c 2
 500 300 l 1
 500 375 l 2
 500 405 475 405 450 405 c 2
 100 405 l 1
 100 480 l 1
 440 480 l 2
 540 480 640 480 640 365 c 2
 640 0 l 1
 260 0 l 2
 160 0 60 0 60 115 c 2xea
200 105 m 2
 200 75 225 75 250 75 c 2
 500 75 l 1
 500 225 l 1
 250 225 l 2
 225 225 200 225 200 195 c 2
 200 105 l 2
EndSplineSet
EndChar

StartChar: aacute
Encoding: 225 225 161
Width: 700
GlyphClass: 2
Flags: MW
HStem: 0 75<250 260 260 500 250 640> 225 75<237.5 500 260 500 260 500> 405 75<100 440 440 450 100 440> 550 160<260 510 260 510>
VStem: 60 140<115 185 185 195 90 242.5> 260 250<550 710> 500 140<75 225 225 225 300 365 0 375 0 390>
LayerCount: 2
Fore
SplineSet
260 550 m 1x14
 360 710 l 1
 510 710 l 1
 350 550 l 1
 260 550 l 1x14
60 115 m 2xea
 60 185 l 2
 60 300 160 300 260 300 c 2
 500 300 l 1
 500 375 l 2
 500 405 475 405 450 405 c 2
 100 405 l 1
 100 480 l 1
 440 480 l 2
 540 480 640 480 640 365 c 2
 640 0 l 1
 260 0 l 2
 160 0 60 0 60 115 c 2xea
200 105 m 2
 200 75 225 75 250 75 c 2
 500 75 l 1
 500 225 l 1
 250 225 l 2
 225 225 200 225 200 195 c 2
 200 105 l 2
EndSplineSet
EndChar

StartChar: acircumflex
Encoding: 226 226 162
Width: 700
GlyphClass: 2
Flags: MW
HStem: 0 75<250 260 260 500 250 640> 225 75<237.5 500 260 500 260 500> 405 75<100 440 440 450 100 440> 550 160<150 390 310 450 310 550>
VStem: 60 140<115 185 185 195 90 242.5> 500 140<75 225 225 225 300 365 0 375 0 390>
LayerCount: 2
Fore
SplineSet
150 550 m 1
 310 710 l 1
 390 710 l 1
 550 550 l 1
 450 550 l 1
 350 640 l 1
 250 550 l 1
 150 550 l 1
60 115 m 2
 60 185 l 2
 60 300 160 300 260 300 c 2
 500 300 l 1
 500 375 l 2
 500 405 475 405 450 405 c 2
 100 405 l 1
 100 480 l 1
 440 480 l 2
 540 480 640 480 640 365 c 2
 640 0 l 1
 260 0 l 2
 160 0 60 0 60 115 c 2
200 105 m 2
 200 75 225 75 250 75 c 2
 500 75 l 1
 500 225 l 1
 250 225 l 2
 225 225 200 225 200 195 c 2
 200 105 l 2
EndSplineSet
EndChar

StartChar: atilde
Encoding: 227 227 163
Width: 700
GlyphClass: 2
Flags: MW
HStem: 0 75<250 260 260 500 250 640> 225 75<237.5 500 260 500 260 500> 405 75<100 440 440 450 100 440> 560 70<150 285> 630 70<225 285>
VStem: 60 140<115 185 185 195 90 242.5> 150 90<560 560> 460 90<700 700> 500 140<75 225 225 225 300 365 0 375 0 390>
LayerCount: 2
Fore
SplineSet
245 700 m 0x08
 270 700 280 695 350 660 c 0
 390 640 410 630 420 630 c 0x10
 435 630 445 640 460 700 c 1
 550 700 l 1x08
 525 595 495 560 455 560 c 0x10
 430 560 420 565 350 600 c 0
 310 620 290 630 280 630 c 0x08
 265 630 255 620 240 560 c 1
 150 560 l 1x10
 175 665 205 700 245 700 c 0x08
60 115 m 2xe480
 60 185 l 2
 60 300 160 300 260 300 c 2
 500 300 l 1
 500 375 l 2
 500 405 475 405 450 405 c 2
 100 405 l 1
 100 480 l 1
 440 480 l 2
 540 480 640 480 640 365 c 2
 640 0 l 1
 260 0 l 2
 160 0 60 0 60 115 c 2xe480
200 105 m 2
 200 75 225 75 250 75 c 2
 500 75 l 1
 500 225 l 1
 250 225 l 2
 225 225 200 225 200 195 c 2
 200 105 l 2
EndSplineSet
EndChar

StartChar: adieresis
Encoding: 228 228 164
Width: 700
GlyphClass: 2
Flags: MW
HStem: 0 75<250 260 260 500 250 640> 225 75<237.5 500 260 500 260 500> 405 75<100 440 440 450 100 440> 580 100<175 295 175 295 405 525>
VStem: 60 140<115 185 185 195 90 242.5> 175 120<580 680 580 680> 405 120<580 680 580 680> 500 140<75 225 225 225 300 365 0 375 0 390>
LayerCount: 2
Fore
SplineSet
175 580 m 1x16
 175 680 l 1
 295 680 l 1
 295 580 l 1
 175 580 l 1x16
405 580 m 1
 405 680 l 1
 525 680 l 1
 525 580 l 1
 405 580 l 1
60 115 m 2xe9
 60 185 l 2
 60 300 160 300 260 300 c 2
 500 300 l 1
 500 375 l 2
 500 405 475 405 450 405 c 2
 100 405 l 1
 100 480 l 1
 440 480 l 2
 540 480 640 480 640 365 c 2
 640 0 l 1
 260 0 l 2
 160 0 60 0 60 115 c 2xe9
200 105 m 2
 200 75 225 75 250 75 c 2
 500 75 l 1
 500 225 l 1
 250 225 l 2
 225 225 200 225 200 195 c 2
 200 105 l 2
EndSplineSet
EndChar

StartChar: aring
Encoding: 229 229 165
Width: 700
GlyphClass: 2
Flags: MW
HStem: 0 75<250 260 260 500 250 640> 225 75<237.5 500 260 500 260 500> 405 75<100 440 440 450 100 440> 550 21<255 295 295 405> 730 50<295 305 305 395>
VStem: 60 140<115 185 185 195 90 242.5> 175 100<635 695 695 710 613.5 723.5> 425 100<620 635 635 695 606.5 710 606.5 716.5> 500 140<75 225 225 225 300 365 0 375 0 390>
LayerCount: 2
Fore
SplineSet
175 635 m 2x1b
 175 695 l 2
 175 752 215 780 295 780 c 2
 405 780 l 2
 485 780 525 752 525 695 c 2
 525 635 l 2
 525 578 485 550 405 550 c 2
 295 550 l 2
 215 550 175 578 175 635 c 2x1b
275 620 m 2
 275 607 285 600 305 600 c 2
 395 600 l 2
 415 600 425 607 425 620 c 2
 425 710 l 2
 425 723 415 730 395 730 c 2
 305 730 l 2
 285 730 275 723 275 710 c 2
 275 620 l 2
60 115 m 2xe480
 60 185 l 2
 60 300 160 300 260 300 c 2
 500 300 l 1
 500 375 l 2
 500 405 475 405 450 405 c 2
 100 405 l 1
 100 480 l 1
 440 480 l 2
 540 480 640 480 640 365 c 2
 640 0 l 1
 260 0 l 2
 160 0 60 0 60 115 c 2xe480
200 105 m 2
 200 75 225 75 250 75 c 2
 500 75 l 1
 500 225 l 1
 250 225 l 2
 225 225 200 225 200 195 c 2
 200 105 l 2
EndSplineSet
EndChar

StartChar: ae
Encoding: 230 230 166
Width: 1140
GlyphClass: 2
Flags: MW
HStem: 0 75<250 260 260 500 690 1060> 225 75<237.5 500 260 500 260 500 640 940> 405 75<100 450 100 880 677.5 690 690 880 880 890>
VStem: 60 140<115 185 185 195 90 242.5> 500 140<90 105 105 225 90 225 300 375> 940 140<300 365 225 375 225 390>
CounterMasks: 1 1c
LayerCount: 2
Fore
SplineSet
60 115 m 2
 60 185 l 2
 60 300 160 300 260 300 c 2
 500 300 l 1
 500 375 l 2
 500 405 475 405 450 405 c 2
 100 405 l 1
 100 480 l 1
 880 480 l 2
 980 480 1080 480 1080 365 c 2
 1080 225 l 1
 640 225 l 1
 640 105 l 2
 640 75 665 75 690 75 c 2
 1060 75 l 1
 1060 0 l 1
 260 0 l 2
 160 0 60 0 60 115 c 2
200 105 m 2
 200 75 225 75 250 75 c 2
 500 75 l 1
 500 225 l 1
 250 225 l 2
 225 225 200 225 200 195 c 2
 200 105 l 2
640 300 m 1
 940 300 l 1
 940 375 l 2
 940 405 915 405 890 405 c 2
 690 405 l 2
 665 405 640 405 640 375 c 2
 640 300 l 1
EndSplineSet
EndChar

StartChar: ccedilla
Encoding: 231 231 167
Width: 660
GlyphClass: 2
Flags: MW
HStem: -225 50<280 310 310 330 280 310> -20 20<210 260 260 600 300 400 400 400> 0 75<250 260 260 600 300 400 400 400> 405 75<237.5 600 260 600 260 600>
VStem: 60 140<115 365 365 375> 280 21<-225 -175 -175 -175> 390 100<-150 -117.5 -175 -115>
LayerCount: 2
Fore
SplineSet
280 -175 m 1xc6
 310 -175 l 2
 350 -175 390 -170 390 -130 c 0
 390 -100 375 -75 300 0 c 1
 400 0 l 1
 470 -70 490 -100 490 -135 c 0
 490 -215 410 -225 330 -225 c 2
 280 -225 l 1
 280 -175 l 1xc6
60 115 m 2x38
 60 365 l 2
 60 480 160 480 260 480 c 2
 600 480 l 1
 600 405 l 1
 250 405 l 2
 225 405 200 405 200 375 c 2
 200 105 l 2
 200 75 225 75 250 75 c 2
 600 75 l 1
 600 0 l 1
 260 0 l 2
 160 0 60 0 60 115 c 2x38
EndSplineSet
EndChar

StartChar: egrave
Encoding: 232 232 168
Width: 700
GlyphClass: 2
Flags: MW
HStem: 0 75<250 260 260 620> 225 75<200 500 200 640 200 500> 405 75<237.5 440 260 440 440 450> 550 160<190 440 190 350>
VStem: 60 140<115 225 300 365 365 375> 190 250<480 710> 500 140<300 365 225 375 225 390>
LayerCount: 2
Fore
SplineSet
190 710 m 1x14
 340 710 l 1
 440 550 l 1
 350 550 l 1
 190 710 l 1x14
60 115 m 2xea
 60 365 l 2
 60 480 160 480 260 480 c 2
 440 480 l 2
 540 480 640 480 640 365 c 2
 640 225 l 1
 200 225 l 1
 200 105 l 2
 200 75 225 75 250 75 c 2
 620 75 l 1
 620 0 l 1
 260 0 l 2
 160 0 60 0 60 115 c 2xea
200 300 m 1
 500 300 l 1
 500 375 l 2
 500 405 475 405 450 405 c 2
 250 405 l 2
 225 405 200 405 200 375 c 2
 200 300 l 1
EndSplineSet
EndChar

StartChar: eacute
Encoding: 233 233 169
Width: 700
GlyphClass: 2
Flags: MW
HStem: 0 75<250 260 260 620> 225 75<200 500 200 640 200 500> 405 75<237.5 440 260 440 440 450> 550 160<260 510 260 510>
VStem: 60 140<115 225 300 365 365 375> 260 250<480 710 550 710> 500 140<300 365 225 375 225 390>
LayerCount: 2
Fore
SplineSet
260 550 m 1x14
 360 710 l 1
 510 710 l 1
 350 550 l 1
 260 550 l 1x14
60 115 m 2xea
 60 365 l 2
 60 480 160 480 260 480 c 2
 440 480 l 2
 540 480 640 480 640 365 c 2
 640 225 l 1
 200 225 l 1
 200 105 l 2
 200 75 225 75 250 75 c 2
 620 75 l 1
 620 0 l 1
 260 0 l 2
 160 0 60 0 60 115 c 2xea
200 300 m 1
 500 300 l 1
 500 375 l 2
 500 405 475 405 450 405 c 2
 250 405 l 2
 225 405 200 405 200 375 c 2
 200 300 l 1
EndSplineSet
EndChar

StartChar: ecircumflex
Encoding: 234 234 170
Width: 700
GlyphClass: 2
Flags: MW
HStem: 0 75<250 260 260 620> 225 75<200 500 200 640 200 500> 405 75<237.5 440 260 440 440 450> 550 160<150 390 310 450 310 550>
VStem: 60 140<115 225 300 365 365 375> 500 140<300 365 225 375 225 390>
LayerCount: 2
Fore
SplineSet
150 550 m 1
 310 710 l 1
 390 710 l 1
 550 550 l 1
 450 550 l 1
 350 640 l 1
 250 550 l 1
 150 550 l 1
60 115 m 2
 60 365 l 2
 60 480 160 480 260 480 c 2
 440 480 l 2
 540 480 640 480 640 365 c 2
 640 225 l 1
 200 225 l 1
 200 105 l 2
 200 75 225 75 250 75 c 2
 620 75 l 1
 620 0 l 1
 260 0 l 2
 160 0 60 0 60 115 c 2
200 300 m 1
 500 300 l 1
 500 375 l 2
 500 405 475 405 450 405 c 2
 250 405 l 2
 225 405 200 405 200 375 c 2
 200 300 l 1
EndSplineSet
EndChar

StartChar: edieresis
Encoding: 235 235 171
Width: 700
GlyphClass: 2
Flags: MW
HStem: 0 75<250 260 260 620> 225 75<200 500 200 640 200 500> 405 75<237.5 440 260 440 440 450> 580 100<175 295 175 295 405 525>
VStem: 60 140<115 225 300 365 365 375> 175 120<580 680 580 680> 405 120<580 680 580 680> 500 140<300 365 225 375 225 390>
LayerCount: 2
Fore
SplineSet
175 580 m 1x16
 175 680 l 1
 295 680 l 1
 295 580 l 1
 175 580 l 1x16
405 580 m 1
 405 680 l 1
 525 680 l 1
 525 580 l 1
 405 580 l 1
60 115 m 2xe9
 60 365 l 2
 60 480 160 480 260 480 c 2
 440 480 l 2
 540 480 640 480 640 365 c 2
 640 225 l 1
 200 225 l 1
 200 105 l 2
 200 75 225 75 250 75 c 2
 620 75 l 1
 620 0 l 1
 260 0 l 2
 160 0 60 0 60 115 c 2xe9
200 300 m 1
 500 300 l 1
 500 375 l 2
 500 405 475 405 450 405 c 2
 250 405 l 2
 225 405 200 405 200 375 c 2
 200 300 l 1
EndSplineSet
EndChar

StartChar: igrave
Encoding: 236 236 172
Width: 290
GlyphClass: 2
Flags: MW
HStem: 0 21<75 75 75 215> 460 20<75 215 215 215> 550 160<-10 240 -10 150>
VStem: -10 250<550 710> 75 140<0 480 0 480>
LayerCount: 2
Fore
SplineSet
-10 710 m 1x30
 140 710 l 1
 240 550 l 1
 150 550 l 1
 -10 710 l 1x30
75 0 m 1xc8
 75 480 l 1
 215 480 l 1
 215 0 l 1
 75 0 l 1xc8
EndSplineSet
EndChar

StartChar: iacute
Encoding: 237 237 173
Width: 290
GlyphClass: 2
Flags: MW
HStem: 0 21<75 75 75 215> 460 20<75 215 215 215> 550 160<50 300 50 300>
VStem: 50 250<550 710> 75 140<0 480 0 480>
LayerCount: 2
Fore
SplineSet
50 550 m 1x30
 150 710 l 1
 300 710 l 1
 140 550 l 1
 50 550 l 1x30
75 0 m 1xc8
 75 480 l 1
 215 480 l 1
 215 0 l 1
 75 0 l 1xc8
EndSplineSet
EndChar

StartChar: icircumflex
Encoding: 238 238 174
Width: 320
GlyphClass: 2
Flags: MW
HStem: 0 21<90 90 90 230> 460 20<90 230 230 230> 550 160<-40 200 120 260 120 360>
VStem: 90 140<0 480 0 480>
LayerCount: 2
Fore
SplineSet
-40 550 m 1
 120 710 l 1
 200 710 l 1
 360 550 l 1
 260 550 l 1
 160 640 l 1
 60 550 l 1
 -40 550 l 1
90 0 m 1
 90 480 l 1
 230 480 l 1
 230 0 l 1
 90 0 l 1
EndSplineSet
EndChar

StartChar: idieresis
Encoding: 239 239 175
Width: 320
GlyphClass: 2
Flags: MW
HStem: 0 21<90 90 90 230> 460 20<90 230 230 230> 580 100<-15 105 -15 105 215 335>
VStem: -15 120<580 680 580 680> 90 140<0 480 0 480> 215 120<580 680 580 680>
LayerCount: 2
Fore
SplineSet
-15 580 m 1x34
 -15 680 l 1
 105 680 l 1
 105 580 l 1
 -15 580 l 1x34
215 580 m 1
 215 680 l 1
 335 680 l 1
 335 580 l 1
 215 580 l 1
90 0 m 1xc8
 90 480 l 1
 230 480 l 1
 230 0 l 1
 90 0 l 1xc8
EndSplineSet
EndChar

StartChar: eth
Encoding: 240 240 176
Width: 700
GlyphClass: 2
Flags: MW
HStem: 0 75<250 260 260 440> 300 75<237.5 440 260 440 440 450> 640 20G<345 495 495 495>
VStem: 60 140<115 260 260 270> 500 140<105 115 115 220 57.5 270>
LayerCount: 2
Fore
SplineSet
60 115 m 2
 60 260 l 2
 60 375 160 375 260 375 c 2
 440 375 l 2
 460 375 477 375 477 390 c 0
 477 400 471 413 465 425 c 2
 440 475 l 1
 330 420 l 1
 300 480 l 1
 410 535 l 1
 345 660 l 1
 495 660 l 1
 530 595 l 1
 610 635 l 1
 640 575 l 1
 560 535 l 1
 600 455 l 2
 640 375 640 300 640 220 c 2
 640 115 l 2
 640 0 540 0 440 0 c 2
 260 0 l 2
 160 0 60 0 60 115 c 2
200 105 m 2
 200 75 225 75 250 75 c 2
 450 75 l 2
 475 75 500 75 500 105 c 2
 500 270 l 2
 500 295 475 300 450 300 c 2
 250 300 l 2
 225 300 200 300 200 270 c 2
 200 105 l 2
EndSplineSet
EndChar

StartChar: ntilde
Encoding: 241 241 177
Width: 700
GlyphClass: 2
Flags: MW
HStem: 0 21<60 60 60 200 500 500 500 640> 405 75<200 440 440 450 200 200> 560 70<150 285> 630 70<225 285>
VStem: 60 140<0 405 0 480 0 480> 150 90<560 560> 460 90<700 700> 500 140<0 365 0 375 0 390>
LayerCount: 2
Fore
SplineSet
245 700 m 0x10
 270 700 280 695 350 660 c 0
 390 640 410 630 420 630 c 0x20
 435 630 445 640 460 700 c 1
 550 700 l 1x10
 525 595 495 560 455 560 c 0x20
 430 560 420 565 350 600 c 0
 310 620 290 630 280 630 c 0x10
 265 630 255 620 240 560 c 1
 150 560 l 1x20
 175 665 205 700 245 700 c 0x10
60 0 m 1xc9
 60 480 l 1
 440 480 l 2
 540 480 640 480 640 365 c 2
 640 0 l 1
 500 0 l 1
 500 375 l 2
 500 405 475 405 450 405 c 2
 200 405 l 1
 200 0 l 1
 60 0 l 1xc9
EndSplineSet
EndChar

StartChar: ograve
Encoding: 242 242 178
Width: 700
GlyphClass: 2
Flags: MW
HStem: 0 75<250 260 260 440> 405 75<237.5 440 260 440 440 450> 550 160<190 440 190 350>
VStem: 60 140<115 365 365 375> 190 250 500 140<105 115 115 365>
LayerCount: 2
Fore
SplineSet
190 710 m 1x28
 340 710 l 1
 440 550 l 1
 350 550 l 1
 190 710 l 1x28
60 115 m 2xd4
 60 365 l 2
 60 480 160 480 260 480 c 2
 440 480 l 2
 540 480 640 480 640 365 c 2
 640 115 l 2
 640 0 540 0 440 0 c 2
 260 0 l 2
 160 0 60 0 60 115 c 2xd4
200 105 m 2
 200 75 225 75 250 75 c 2
 450 75 l 2
 475 75 500 75 500 105 c 2
 500 375 l 2
 500 405 475 405 450 405 c 2
 250 405 l 2
 225 405 200 405 200 375 c 2
 200 105 l 2
EndSplineSet
EndChar

StartChar: oacute
Encoding: 243 243 179
Width: 700
GlyphClass: 2
Flags: MW
HStem: 0 75<250 260 260 440> 405 75<237.5 440 260 440 440 450> 550 160<260 510 260 510>
VStem: 60 140<115 365 365 375> 260 250<480 710 550 710> 500 140<105 115 115 365>
LayerCount: 2
Fore
SplineSet
260 550 m 1x28
 360 710 l 1
 510 710 l 1
 350 550 l 1
 260 550 l 1x28
60 115 m 2xd4
 60 365 l 2
 60 480 160 480 260 480 c 2
 440 480 l 2
 540 480 640 480 640 365 c 2
 640 115 l 2
 640 0 540 0 440 0 c 2
 260 0 l 2
 160 0 60 0 60 115 c 2xd4
200 105 m 2
 200 75 225 75 250 75 c 2
 450 75 l 2
 475 75 500 75 500 105 c 2
 500 375 l 2
 500 405 475 405 450 405 c 2
 250 405 l 2
 225 405 200 405 200 375 c 2
 200 105 l 2
EndSplineSet
EndChar

StartChar: ocircumflex
Encoding: 244 244 180
Width: 700
GlyphClass: 2
Flags: MW
HStem: 0 75<250 260 260 440> 405 75<237.5 440 260 440 440 450> 550 160<150 390 310 450 310 550>
VStem: 60 140<115 365 365 375> 500 140<105 115 115 365>
LayerCount: 2
Fore
SplineSet
150 550 m 1
 310 710 l 1
 390 710 l 1
 550 550 l 1
 450 550 l 1
 350 640 l 1
 250 550 l 1
 150 550 l 1
60 115 m 2
 60 365 l 2
 60 480 160 480 260 480 c 2
 440 480 l 2
 540 480 640 480 640 365 c 2
 640 115 l 2
 640 0 540 0 440 0 c 2
 260 0 l 2
 160 0 60 0 60 115 c 2
200 105 m 2
 200 75 225 75 250 75 c 2
 450 75 l 2
 475 75 500 75 500 105 c 2
 500 375 l 2
 500 405 475 405 450 405 c 2
 250 405 l 2
 225 405 200 405 200 375 c 2
 200 105 l 2
EndSplineSet
EndChar

StartChar: otilde
Encoding: 245 245 181
Width: 700
GlyphClass: 2
Flags: MW
HStem: 0 75<250 260 260 440> 405 75<237.5 440 260 440 440 450> 560 70<150 285> 630 70<225 285>
VStem: 60 140<115 365 365 375> 150 90<560 560> 460 90<700 700> 500 140<105 115 115 365>
LayerCount: 2
Fore
SplineSet
245 700 m 0x10
 270 700 280 695 350 660 c 0
 390 640 410 630 420 630 c 0x20
 435 630 445 640 460 700 c 1
 550 700 l 1x10
 525 595 495 560 455 560 c 0x20
 430 560 420 565 350 600 c 0
 310 620 290 630 280 630 c 0x10
 265 630 255 620 240 560 c 1
 150 560 l 1x20
 175 665 205 700 245 700 c 0x10
60 115 m 2xc9
 60 365 l 2
 60 480 160 480 260 480 c 2
 440 480 l 2
 540 480 640 480 640 365 c 2
 640 115 l 2
 640 0 540 0 440 0 c 2
 260 0 l 2
 160 0 60 0 60 115 c 2xc9
200 105 m 2
 200 75 225 75 250 75 c 2
 450 75 l 2
 475 75 500 75 500 105 c 2
 500 375 l 2
 500 405 475 405 450 405 c 2
 250 405 l 2
 225 405 200 405 200 375 c 2
 200 105 l 2
EndSplineSet
EndChar

StartChar: odieresis
Encoding: 246 246 182
Width: 700
GlyphClass: 2
Flags: MW
HStem: 0 75<250 260 260 440> 405 75<237.5 440 260 440 440 450> 580 100<175 295 175 295 405 525>
VStem: 60 140<115 365 365 375> 175 120<580 680 580 680> 405 120<580 680 580 680> 500 140<105 115 115 365>
LayerCount: 2
Fore
SplineSet
175 580 m 1x2c
 175 680 l 1
 295 680 l 1
 295 580 l 1
 175 580 l 1x2c
405 580 m 1
 405 680 l 1
 525 680 l 1
 525 580 l 1
 405 580 l 1
60 115 m 2xd2
 60 365 l 2
 60 480 160 480 260 480 c 2
 440 480 l 2
 540 480 640 480 640 365 c 2
 640 115 l 2
 640 0 540 0 440 0 c 2
 260 0 l 2
 160 0 60 0 60 115 c 2xd2
200 105 m 2
 200 75 225 75 250 75 c 2
 450 75 l 2
 475 75 500 75 500 105 c 2
 500 375 l 2
 500 405 475 405 450 405 c 2
 250 405 l 2
 225 405 200 405 200 375 c 2
 200 105 l 2
EndSplineSet
EndChar

StartChar: divide
Encoding: 247 247 183
Width: 700
GlyphClass: 2
Flags: MW
HStem: 0 120<275 425 275 425> 190 100<60 640 60 640> 360 120<275 425 275 425>
VStem: 275 150<0 120 0 120 360 480>
CounterMasks: 1 e0
LayerCount: 2
Fore
SplineSet
60 190 m 1
 60 290 l 1
 640 290 l 1
 640 190 l 1
 60 190 l 1
275 0 m 1
 275 120 l 1
 425 120 l 1
 425 0 l 1
 275 0 l 1
275 360 m 1
 275 480 l 1
 425 480 l 1
 425 360 l 1
 275 360 l 1
EndSplineSet
EndChar

StartChar: oslash
Encoding: 248 248 184
Width: 780
GlyphClass: 2
Flags: MW
HStem: 0 75<290 300 300 480> 405 75<277.5 480 300 480 480 490>
VStem: 100 140<90 105 105 115 233 365 365 375> 540 140<105 115 115 247 247 247 365 375 375 390>
LayerCount: 2
Fore
SplineSet
20 91 m 1
 20 167 l 1
 100 191 l 1
 100 365 l 2
 100 480 200 480 300 480 c 2
 480 480 l 2
 580 480 680 480 680 365 c 1
 760 389 l 1
 760 313 l 1
 680 289 l 1
 680 115 l 2
 680 0 580 0 480 0 c 2
 300 0 l 2
 200 0 100 0 100 115 c 1
 20 91 l 1
240 105 m 2
 240 75 265 75 290 75 c 2
 490 75 l 2
 515 75 540 75 540 105 c 2
 540 247 l 1
 240 157 l 1
 240 105 l 2
240 233 m 1
 540 323 l 1
 540 375 l 2
 540 405 515 405 490 405 c 2
 290 405 l 2
 265 405 240 405 240 375 c 2
 240 233 l 1
EndSplineSet
EndChar

StartChar: ugrave
Encoding: 249 249 185
Width: 700
GlyphClass: 2
Flags: MW
HStem: 0 75<250 260 260 440> 460 20<60 200 200 200 500 640 640 640> 550 160<190 440 190 350>
VStem: 60 140<115 480> 190 250 500 140<105 115 115 480>
LayerCount: 2
Fore
SplineSet
190 710 m 1x28
 340 710 l 1
 440 550 l 1
 350 550 l 1
 190 710 l 1x28
60 115 m 2xd4
 60 480 l 1
 200 480 l 1
 200 105 l 2
 200 75 225 75 250 75 c 2
 450 75 l 2
 475 75 500 75 500 105 c 2
 500 480 l 1
 640 480 l 1
 640 115 l 2
 640 0 540 0 440 0 c 2
 260 0 l 2
 160 0 60 0 60 115 c 2xd4
EndSplineSet
EndChar

StartChar: uacute
Encoding: 250 250 186
Width: 700
GlyphClass: 2
Flags: MW
HStem: 0 75<250 260 260 440> 460 20<60 200 200 200 500 640 640 640> 550 160<260 510 260 510>
VStem: 60 140<115 480> 260 250<550 710> 500 140<105 115 115 480>
LayerCount: 2
Fore
SplineSet
260 550 m 1x28
 360 710 l 1
 510 710 l 1
 350 550 l 1
 260 550 l 1x28
60 115 m 2xd4
 60 480 l 1
 200 480 l 1
 200 105 l 2
 200 75 225 75 250 75 c 2
 450 75 l 2
 475 75 500 75 500 105 c 2
 500 480 l 1
 640 480 l 1
 640 115 l 2
 640 0 540 0 440 0 c 2
 260 0 l 2
 160 0 60 0 60 115 c 2xd4
EndSplineSet
EndChar

StartChar: ucircumflex
Encoding: 251 251 187
Width: 700
GlyphClass: 2
Flags: MW
HStem: 0 75<250 260 260 440> 460 20<60 200 200 200 500 640 640 640> 550 160<150 390 310 450 310 550>
VStem: 60 140<115 480> 500 140<105 115 115 480>
LayerCount: 2
Fore
SplineSet
150 550 m 1
 310 710 l 1
 390 710 l 1
 550 550 l 1
 450 550 l 1
 350 640 l 1
 250 550 l 1
 150 550 l 1
60 115 m 2
 60 480 l 1
 200 480 l 1
 200 105 l 2
 200 75 225 75 250 75 c 2
 450 75 l 2
 475 75 500 75 500 105 c 2
 500 480 l 1
 640 480 l 1
 640 115 l 2
 640 0 540 0 440 0 c 2
 260 0 l 2
 160 0 60 0 60 115 c 2
EndSplineSet
EndChar

StartChar: udieresis
Encoding: 252 252 188
Width: 700
GlyphClass: 2
Flags: MW
HStem: 0 75<250 260 260 440> 460 20<60 200 200 200 500 640 640 640> 580 100<175 295 175 295 405 525>
VStem: 60 140<115 480> 175 120<580 680 580 680> 405 120<580 680 580 680> 500 140<105 115 115 480>
LayerCount: 2
Fore
SplineSet
175 580 m 1x2c
 175 680 l 1
 295 680 l 1
 295 580 l 1
 175 580 l 1x2c
405 580 m 1
 405 680 l 1
 525 680 l 1
 525 580 l 1
 405 580 l 1
60 115 m 2xd2
 60 480 l 1
 200 480 l 1
 200 105 l 2
 200 75 225 75 250 75 c 2
 450 75 l 2
 475 75 500 75 500 105 c 2
 500 480 l 1
 640 480 l 1
 640 115 l 2
 640 0 540 0 440 0 c 2
 260 0 l 2
 160 0 60 0 60 115 c 2xd2
EndSplineSet
EndChar

StartChar: yacute
Encoding: 253 253 189
Width: 680
GlyphClass: 2
Flags: MW
HStem: -225 75<80 160 160 182.5 80 210 80 160> 460 20<20 160 160 160 520 660 660 660> 550 160<250 500 250 500>
VStem: 80 21<-225 -150 -150 -150> 250 250<550 710>
LayerCount: 2
Fore
SplineSet
250 550 m 1
 350 710 l 1
 500 710 l 1
 340 550 l 1
 250 550 l 1
20 480 m 1
 160 480 l 1
 340 120 l 1
 520 480 l 1
 660 480 l 1
 360 -120 l 2
 330 -180 305 -225 210 -225 c 2
 80 -225 l 1
 80 -150 l 1
 160 -150 l 2
 205 -150 210 -140 225 -110 c 2
 270 -20 l 1
 20 480 l 1
EndSplineSet
EndChar

StartChar: thorn
Encoding: 254 254 190
Width: 700
GlyphClass: 2
Flags: MW
HStem: -225 21G<60 60 60 200> 0 75<200 440 200 450> 405 75<200 440 440 450 200 440> 640 20G<60 200 200 200>
VStem: 60 140<-225 0 75 405 480 660> 500 140<105 115 115 365>
LayerCount: 2
Fore
SplineSet
60 -225 m 1
 60 660 l 1
 200 660 l 1
 200 480 l 1
 440 480 l 2
 540 480 640 480 640 365 c 2
 640 115 l 2
 640 0 540 0 440 0 c 2
 200 0 l 1
 200 -225 l 1
 60 -225 l 1
200 75 m 1
 450 75 l 2
 475 75 500 75 500 105 c 2
 500 375 l 2
 500 405 475 405 450 405 c 2
 200 405 l 1
 200 75 l 1
EndSplineSet
EndChar

StartChar: ydieresis
Encoding: 255 255 191
Width: 680
GlyphClass: 2
Flags: MW
HStem: -225 75<80 160 160 182.5 80 210 80 160> 460 20<20 160 160 160 520 660 660 660> 580 100<165 285 165 285 395 515>
VStem: 80 21<-225 -150 -150 -150> 165 120<580 680 580 680> 395 120<580 680 580 680>
LayerCount: 2
Fore
SplineSet
165 580 m 1
 165 680 l 1
 285 680 l 1
 285 580 l 1
 165 580 l 1
395 580 m 1
 395 680 l 1
 515 680 l 1
 515 580 l 1
 395 580 l 1
20 480 m 1
 160 480 l 1
 340 120 l 1
 520 480 l 1
 660 480 l 1
 360 -120 l 2
 330 -180 305 -225 210 -225 c 2
 80 -225 l 1
 80 -150 l 1
 160 -150 l 2
 205 -150 210 -140 225 -110 c 2
 270 -20 l 1
 20 480 l 1
EndSplineSet
EndChar

StartChar: Amacron
Encoding: 256 256 192
Width: 890
GlyphClass: 2
Flags: MW
HStem: 0 21<20 20 20 170 720 720 720 870> 210 80<315 575 315 615 275 575> 640 20<350 540 540 540> 765 75<265 625 265 625>
VStem: 265 360<765 840 765 840>
LayerCount: 2
Fore
SplineSet
265 765 m 1
 265 840 l 1
 625 840 l 1
 625 765 l 1
 265 765 l 1
20 0 m 1
 350 660 l 1
 540 660 l 1
 870 0 l 1
 720 0 l 1
 615 210 l 1
 275 210 l 1
 170 0 l 1
 20 0 l 1
315 290 m 1
 575 290 l 1
 445 550 l 1
 315 290 l 1
EndSplineSet
EndChar

StartChar: amacron
Encoding: 257 257 193
Width: 700
GlyphClass: 2
Flags: MW
HStem: 0 75<250 260 260 500 250 640> 225 75<237.5 500 260 500 260 500> 405 75<100 440 440 450 100 440> 585 75<170 530 170 530>
VStem: 60 140<115 185 185 195 90 242.5> 170 360<585 660 585 660> 500 140<75 225 225 225 300 365 0 375 0 390>
LayerCount: 2
Fore
SplineSet
170 585 m 1x14
 170 660 l 1
 530 660 l 1
 530 585 l 1
 170 585 l 1x14
60 115 m 2xea
 60 185 l 2
 60 300 160 300 260 300 c 2
 500 300 l 1
 500 375 l 2
 500 405 475 405 450 405 c 2
 100 405 l 1
 100 480 l 1
 440 480 l 2
 540 480 640 480 640 365 c 2
 640 0 l 1
 260 0 l 2
 160 0 60 0 60 115 c 2xea
200 105 m 2
 200 75 225 75 250 75 c 2
 500 75 l 1
 500 225 l 1
 250 225 l 2
 225 225 200 225 200 195 c 2
 200 105 l 2
EndSplineSet
EndChar

StartChar: Abreve
Encoding: 258 258 194
Width: 890
GlyphClass: 2
Flags: MW
HStem: 0 21<20 20 20 170 720 720 720 870> 210 80<315 575 315 615 275 575> 640 20<350 540 540 540> 730 21<401 489>
VStem: 285 75<866.5 890 866.5 890> 530 75<866.5 890>
LayerCount: 2
Fore
SplineSet
285 890 m 1
 360 890 l 1
 360 843 398 805 445 805 c 0
 492 805 530 843 530 890 c 1
 605 890 l 1
 605 802 533 730 445 730 c 0
 357 730 285 802 285 890 c 1
20 0 m 1
 350 660 l 1
 540 660 l 1
 870 0 l 1
 720 0 l 1
 615 210 l 1
 275 210 l 1
 170 0 l 1
 20 0 l 1
315 290 m 1
 575 290 l 1
 445 550 l 1
 315 290 l 1
EndSplineSet
EndChar

StartChar: abreve
Encoding: 259 259 195
Width: 700
GlyphClass: 2
Flags: MW
HStem: 0 75<250 260 260 500 250 640> 225 75<237.5 500 260 500 260 500> 405 75<100 440 440 450 100 440> 550 21<306 394>
VStem: 60 140<115 185 185 195 90 242.5> 190 75<686.5 710 686.5 710> 435 75<686.5 710> 500 140<75 225 225 225 300 365 0 375 0 390>
LayerCount: 2
Fore
SplineSet
190 710 m 1x16
 265 710 l 1
 265 663 303 625 350 625 c 0
 397 625 435 663 435 710 c 1
 510 710 l 1
 510 622 438 550 350 550 c 0
 262 550 190 622 190 710 c 1x16
60 115 m 2xe9
 60 185 l 2
 60 300 160 300 260 300 c 2
 500 300 l 1
 500 375 l 2
 500 405 475 405 450 405 c 2
 100 405 l 1
 100 480 l 1
 440 480 l 2
 540 480 640 480 640 365 c 2
 640 0 l 1
 260 0 l 2
 160 0 60 0 60 115 c 2xe9
200 105 m 2
 200 75 225 75 250 75 c 2
 500 75 l 1
 500 225 l 1
 250 225 l 2
 225 225 200 225 200 195 c 2
 200 105 l 2
EndSplineSet
EndChar

StartChar: Aogonek
Encoding: 260 260 196
Width: 890
GlyphClass: 2
Flags: MW
HStem: -225 50<750 820 810 820 810 820> -20 20<20 20 20 170 720 720 720 870 720 820 820 820> 0 21<20 20 20 170 720 720 720 870 720 820 820 820> 210 80<315 575 315 615 275 575> 640 20<350 540 540 540>
VStem: 630 100<-150 -117.5>
LayerCount: 2
Fore
SplineSet
630 -135 m 0xc4
 630 -100 650 -70 720 0 c 1
 820 0 l 1
 745 -75 730 -100 730 -130 c 0
 730 -170 770 -175 810 -175 c 2
 820 -175 l 1
 820 -225 l 1
 790 -225 l 2
 710 -225 630 -215 630 -135 c 0xc4
20 0 m 1x38
 350 660 l 1
 540 660 l 1
 870 0 l 1
 720 0 l 1
 615 210 l 1
 275 210 l 1
 170 0 l 1
 20 0 l 1x38
315 290 m 1
 575 290 l 1
 445 550 l 1
 315 290 l 1
EndSplineSet
EndChar

StartChar: aogonek
Encoding: 261 261 197
Width: 700
GlyphClass: 2
Flags: MW
HStem: -225 50<530 600 590 600 590 600> -20 20<210 260 260 640 500 600 600 600> 0 75<250 260 260 500 250 640 250 600> 225 75<237.5 500 260 500 260 500> 405 75<100 440 440 450 100 440>
VStem: 60 140<115 185 185 195 90 242.5> 410 100<-150 -117.5> 500 140<0 365 75 225 225 225 300 365 0 375 0 390>
LayerCount: 2
Fore
SplineSet
410 -135 m 0xc2
 410 -100 430 -70 500 0 c 1
 600 0 l 1
 525 -75 510 -100 510 -130 c 0
 510 -170 550 -175 590 -175 c 2
 600 -175 l 1
 600 -225 l 1
 570 -225 l 2
 490 -225 410 -215 410 -135 c 0xc2
60 115 m 2x3d
 60 185 l 2
 60 300 160 300 260 300 c 2
 500 300 l 1
 500 375 l 2
 500 405 475 405 450 405 c 2
 100 405 l 1
 100 480 l 1
 440 480 l 2
 540 480 640 480 640 365 c 2
 640 0 l 1
 260 0 l 2
 160 0 60 0 60 115 c 2x3d
200 105 m 2
 200 75 225 75 250 75 c 2
 500 75 l 1
 500 225 l 1
 250 225 l 2
 225 225 200 225 200 195 c 2
 200 105 l 2
EndSplineSet
EndChar

StartChar: Cacute
Encoding: 262 262 198
Width: 840
GlyphClass: 2
Flags: MW
HStem: 0 85<280 310 310 770> 575 85<265 770 310 770 310 770> 730 160<330 580 330 580>
VStem: 70 150<135 525 525 540> 330 250<730 890>
LayerCount: 2
Fore
SplineSet
330 730 m 1
 430 890 l 1
 580 890 l 1
 420 730 l 1
 330 730 l 1
70 135 m 2
 70 525 l 2
 70 660 190 660 310 660 c 2
 770 660 l 1
 770 575 l 1
 280 575 l 2
 250 575 220 575 220 540 c 2
 220 120 l 2
 220 85 250 85 280 85 c 2
 770 85 l 1
 770 0 l 1
 310 0 l 2
 190 0 70 0 70 135 c 2
EndSplineSet
EndChar

StartChar: cacute
Encoding: 263 263 199
Width: 660
GlyphClass: 2
Flags: MW
HStem: 0 75<250 260 260 600> 405 75<237.5 600 260 600 260 600> 550 160<240 490 240 490>
VStem: 60 140<115 365 365 375> 240 250<550 710>
LayerCount: 2
Fore
SplineSet
240 550 m 1
 340 710 l 1
 490 710 l 1
 330 550 l 1
 240 550 l 1
60 115 m 2
 60 365 l 2
 60 480 160 480 260 480 c 2
 600 480 l 1
 600 405 l 1
 250 405 l 2
 225 405 200 405 200 375 c 2
 200 105 l 2
 200 75 225 75 250 75 c 2
 600 75 l 1
 600 0 l 1
 260 0 l 2
 160 0 60 0 60 115 c 2
EndSplineSet
EndChar

StartChar: Ccircumflex
Encoding: 264 264 200
Width: 840
GlyphClass: 2
Flags: MW
HStem: 0 85<280 310 310 770> 575 85<265 770 310 770 310 770> 730 160<220 460 380 520 380 620>
VStem: 70 150<135 525 525 540>
LayerCount: 2
Fore
SplineSet
220 730 m 1
 380 890 l 1
 460 890 l 1
 620 730 l 1
 520 730 l 1
 420 820 l 1
 320 730 l 1
 220 730 l 1
70 135 m 2
 70 525 l 2
 70 660 190 660 310 660 c 2
 770 660 l 1
 770 575 l 1
 280 575 l 2
 250 575 220 575 220 540 c 2
 220 120 l 2
 220 85 250 85 280 85 c 2
 770 85 l 1
 770 0 l 1
 310 0 l 2
 190 0 70 0 70 135 c 2
EndSplineSet
EndChar

StartChar: ccircumflex
Encoding: 265 265 201
Width: 660
GlyphClass: 2
Flags: MW
HStem: 0 75<250 260 260 600> 405 75<237.5 600 260 600 260 600> 550 160<130 370 290 430 290 530>
VStem: 60 140<115 365 365 375>
LayerCount: 2
Fore
SplineSet
130 550 m 1
 290 710 l 1
 370 710 l 1
 530 550 l 1
 430 550 l 1
 330 640 l 1
 230 550 l 1
 130 550 l 1
60 115 m 2
 60 365 l 2
 60 480 160 480 260 480 c 2
 600 480 l 1
 600 405 l 1
 250 405 l 2
 225 405 200 405 200 375 c 2
 200 105 l 2
 200 75 225 75 250 75 c 2
 600 75 l 1
 600 0 l 1
 260 0 l 2
 160 0 60 0 60 115 c 2
EndSplineSet
EndChar

StartChar: Cdotaccent
Encoding: 266 266 202
Width: 840
GlyphClass: 2
Flags: MW
HStem: 0 85<280 310 310 770> 575 85<265 770 310 770 310 770> 760 100<360 480 360 480>
VStem: 70 150<135 525 525 540> 360 120<760 860 760 860>
LayerCount: 2
Fore
SplineSet
360 760 m 1
 360 860 l 1
 480 860 l 1
 480 760 l 1
 360 760 l 1
70 135 m 2
 70 525 l 2
 70 660 190 660 310 660 c 2
 770 660 l 1
 770 575 l 1
 280 575 l 2
 250 575 220 575 220 540 c 2
 220 120 l 2
 220 85 250 85 280 85 c 2
 770 85 l 1
 770 0 l 1
 310 0 l 2
 190 0 70 0 70 135 c 2
EndSplineSet
EndChar

StartChar: cdotaccent
Encoding: 267 267 203
Width: 660
GlyphClass: 2
Flags: MW
HStem: 0 75<250 260 260 600> 405 75<237.5 600 260 600 260 600> 580 100<270 390 270 390>
VStem: 60 140<115 365 365 375> 270 120<580 680 580 680>
LayerCount: 2
Fore
SplineSet
270 580 m 1
 270 680 l 1
 390 680 l 1
 390 580 l 1
 270 580 l 1
60 115 m 2
 60 365 l 2
 60 480 160 480 260 480 c 2
 600 480 l 1
 600 405 l 1
 250 405 l 2
 225 405 200 405 200 375 c 2
 200 105 l 2
 200 75 225 75 250 75 c 2
 600 75 l 1
 600 0 l 1
 260 0 l 2
 160 0 60 0 60 115 c 2
EndSplineSet
EndChar

StartChar: Ccaron
Encoding: 268 268 204
Width: 840
GlyphClass: 2
Flags: MW
HStem: 0 85<280 310 310 770> 575 85<265 770 310 770 310 770> 730 160<220 460 220 380>
VStem: 70 150<135 525 525 540>
LayerCount: 2
Fore
SplineSet
220 890 m 1
 320 890 l 1
 420 800 l 1
 520 890 l 1
 620 890 l 1
 460 730 l 1
 380 730 l 1
 220 890 l 1
70 135 m 2
 70 525 l 2
 70 660 190 660 310 660 c 2
 770 660 l 1
 770 575 l 1
 280 575 l 2
 250 575 220 575 220 540 c 2
 220 120 l 2
 220 85 250 85 280 85 c 2
 770 85 l 1
 770 0 l 1
 310 0 l 2
 190 0 70 0 70 135 c 2
EndSplineSet
EndChar

StartChar: ccaron
Encoding: 269 269 205
Width: 660
GlyphClass: 2
Flags: MW
HStem: 0 75<250 260 260 600> 405 75<237.5 600 260 600 260 600> 550 160<130 370 130 290>
VStem: 60 140<115 365 365 375>
LayerCount: 2
Fore
SplineSet
130 710 m 1
 230 710 l 1
 330 620 l 1
 430 710 l 1
 530 710 l 1
 370 550 l 1
 290 550 l 1
 130 710 l 1
60 115 m 2
 60 365 l 2
 60 480 160 480 260 480 c 2
 600 480 l 1
 600 405 l 1
 250 405 l 2
 225 405 200 405 200 375 c 2
 200 105 l 2
 200 75 225 75 250 75 c 2
 600 75 l 1
 600 0 l 1
 260 0 l 2
 160 0 60 0 60 115 c 2
EndSplineSet
EndChar

StartChar: Dcaron
Encoding: 270 270 206
Width: 890
GlyphClass: 2
Flags: MW
HStem: 0 85<220 430 430 460> 575 85<220 430 220 220> 730 160<245 485 245 405>
VStem: 70 150<85 85 85 575> 670 150<285 300 300 360 180 375 180 455>
LayerCount: 2
Fore
SplineSet
245 890 m 1
 345 890 l 1
 445 800 l 1
 545 890 l 1
 645 890 l 1
 485 730 l 1
 405 730 l 1
 245 890 l 1
70 0 m 1
 70 660 l 1
 460 660 l 2
 640 660 820 600 820 360 c 2
 820 300 l 2
 820 60 640 0 460 0 c 2
 70 0 l 1
220 85 m 1
 430 85 l 2
 550 85 670 125 670 285 c 2
 670 375 l 2
 670 535 550 575 430 575 c 2
 220 575 l 1
 220 85 l 1
EndSplineSet
EndChar

StartChar: dcaron
Encoding: 271 271 207
Width: 900
GlyphClass: 2
Flags: MW
HStem: 0 75<250 260 260 500 250 640> 405 75<237.5 500 260 500 260 500> 460 200<500 710 760 800> 640 20<500 640 640 640 760 880 880 880>
VStem: 60 140<115 365 365 375> 500 140<75 405 405 405 480 660 0 660> 710 170
LayerCount: 2
Fore
SplineSet
710 460 m 1x22
 760 660 l 1
 880 660 l 1
 800 460 l 1
 710 460 l 1x22
60 115 m 2xdc
 60 365 l 2
 60 480 160 480 260 480 c 2
 500 480 l 1
 500 660 l 1
 640 660 l 1
 640 0 l 1
 260 0 l 2
 160 0 60 0 60 115 c 2xdc
200 105 m 2
 200 75 225 75 250 75 c 2
 500 75 l 1
 500 405 l 1
 250 405 l 2
 225 405 200 405 200 375 c 2
 200 105 l 2
EndSplineSet
EndChar

StartChar: Dcroat
Encoding: 272 272 208
Width: 920
GlyphClass: 2
Flags: MW
HStem: 0 85<250 460 460 490> 330 75<20 100 20 100 250 475> 575 85<250 460 250 250>
VStem: 100 150<85 85 85 330 405 575> 700 150<285 300 300 360 180 375 180 455>
LayerCount: 2
Fore
SplineSet
20 330 m 1
 20 405 l 1
 100 405 l 1
 100 660 l 1
 490 660 l 2
 670 660 850 600 850 360 c 2
 850 300 l 2
 850 60 670 0 490 0 c 2
 100 0 l 1
 100 330 l 1
 20 330 l 1
250 85 m 1
 460 85 l 2
 580 85 700 125 700 285 c 2
 700 375 l 2
 700 535 580 575 460 575 c 2
 250 575 l 1
 250 405 l 1
 475 405 l 1
 475 330 l 1
 250 330 l 1
 250 85 l 1
EndSplineSet
EndChar

StartChar: dcroat
Encoding: 273 273 209
Width: 720
GlyphClass: 2
Flags: MW
HStem: 0 75<250 260 260 500 250 640> 405 75<237.5 500 260 500 260 500> 540 65<350 500 350 500 640 700> 640 20G<500 640 640 640>
VStem: 60 140<115 365 365 375> 500 140<75 405 405 405 480 540 0 540 605 660 0 660>
LayerCount: 2
Fore
SplineSet
60 115 m 2
 60 365 l 2
 60 480 160 480 260 480 c 2
 500 480 l 1
 500 540 l 1
 350 540 l 1
 350 605 l 1
 500 605 l 1
 500 660 l 1
 640 660 l 1
 640 605 l 1
 700 605 l 1
 700 540 l 1
 640 540 l 1
 640 0 l 1
 260 0 l 2
 160 0 60 0 60 115 c 2
200 105 m 2
 200 75 225 75 250 75 c 2
 500 75 l 1
 500 405 l 1
 250 405 l 2
 225 405 200 405 200 375 c 2
 200 105 l 2
EndSplineSet
EndChar

StartChar: Emacron
Encoding: 274 274 210
Width: 840
GlyphClass: 2
Flags: MW
HStem: 0 85<220 770 220 770> 325 85<220 720 220 720> 575 85<220 770 220 220> 765 75<240 600 240 600>
VStem: 70 150<85 325 410 575> 240 360<765 840 765 840>
LayerCount: 2
Fore
SplineSet
240 765 m 1
 240 840 l 1
 600 840 l 1
 600 765 l 1
 240 765 l 1
70 0 m 1
 70 660 l 1
 770 660 l 1
 770 575 l 1
 220 575 l 1
 220 410 l 1
 720 410 l 1
 720 325 l 1
 220 325 l 1
 220 85 l 1
 770 85 l 1
 770 0 l 1
 70 0 l 1
EndSplineSet
EndChar

StartChar: emacron
Encoding: 275 275 211
Width: 700
GlyphClass: 2
Flags: MW
HStem: 0 75<250 260 260 620> 225 75<200 500 200 640 200 500> 405 75<237.5 440 260 440 440 450> 585 75<170 530 170 530>
VStem: 60 140<115 225 300 365 365 375> 170 360<585 660 585 660> 500 140<300 365 225 375 225 390>
LayerCount: 2
Fore
SplineSet
170 585 m 1x14
 170 660 l 1
 530 660 l 1
 530 585 l 1
 170 585 l 1x14
60 115 m 2xea
 60 365 l 2
 60 480 160 480 260 480 c 2
 440 480 l 2
 540 480 640 480 640 365 c 2
 640 225 l 1
 200 225 l 1
 200 105 l 2
 200 75 225 75 250 75 c 2
 620 75 l 1
 620 0 l 1
 260 0 l 2
 160 0 60 0 60 115 c 2xea
200 300 m 1
 500 300 l 1
 500 375 l 2
 500 405 475 405 450 405 c 2
 250 405 l 2
 225 405 200 405 200 375 c 2
 200 300 l 1
EndSplineSet
EndChar

StartChar: Ebreve
Encoding: 276 276 212
Width: 840
GlyphClass: 2
Flags: MW
HStem: 0 85<220 770 220 770> 325 85<220 720 220 720> 575 85<220 770 220 220> 730 21<376 464>
VStem: 70 150<85 325 410 575> 260 75<866.5 890 866.5 890> 505 75<866.5 890>
LayerCount: 2
Fore
SplineSet
260 890 m 1
 335 890 l 1
 335 843 373 805 420 805 c 0
 467 805 505 843 505 890 c 1
 580 890 l 1
 580 802 508 730 420 730 c 0
 332 730 260 802 260 890 c 1
70 0 m 1
 70 660 l 1
 770 660 l 1
 770 575 l 1
 220 575 l 1
 220 410 l 1
 720 410 l 1
 720 325 l 1
 220 325 l 1
 220 85 l 1
 770 85 l 1
 770 0 l 1
 70 0 l 1
EndSplineSet
EndChar

StartChar: ebreve
Encoding: 277 277 213
Width: 700
GlyphClass: 2
Flags: MW
HStem: 0 75<250 260 260 620> 225 75<200 500 200 640 200 500> 405 75<237.5 440 260 440 440 450> 550 21<306 394>
VStem: 60 140<115 225 300 365 365 375> 190 75<686.5 710 686.5 710> 435 75<686.5 710> 500 140<300 365 225 375 225 390>
LayerCount: 2
Fore
SplineSet
190 710 m 1x16
 265 710 l 1
 265 663 303 625 350 625 c 0
 397 625 435 663 435 710 c 1
 510 710 l 1
 510 622 438 550 350 550 c 0
 262 550 190 622 190 710 c 1x16
60 115 m 2xe9
 60 365 l 2
 60 480 160 480 260 480 c 2
 440 480 l 2
 540 480 640 480 640 365 c 2
 640 225 l 1
 200 225 l 1
 200 105 l 2
 200 75 225 75 250 75 c 2
 620 75 l 1
 620 0 l 1
 260 0 l 2
 160 0 60 0 60 115 c 2xe9
200 300 m 1
 500 300 l 1
 500 375 l 2
 500 405 475 405 450 405 c 2
 250 405 l 2
 225 405 200 405 200 375 c 2
 200 300 l 1
EndSplineSet
EndChar

StartChar: Edotaccent
Encoding: 278 278 214
Width: 840
GlyphClass: 2
Flags: MW
HStem: 0 85<220 770 220 770> 325 85<220 720 220 720> 575 85<220 770 220 220> 760 100<360 480 360 480>
VStem: 70 150<85 325 410 575> 360 120<760 860 760 860>
LayerCount: 2
Fore
SplineSet
360 760 m 1
 360 860 l 1
 480 860 l 1
 480 760 l 1
 360 760 l 1
70 0 m 1
 70 660 l 1
 770 660 l 1
 770 575 l 1
 220 575 l 1
 220 410 l 1
 720 410 l 1
 720 325 l 1
 220 325 l 1
 220 85 l 1
 770 85 l 1
 770 0 l 1
 70 0 l 1
EndSplineSet
EndChar

StartChar: edotaccent
Encoding: 279 279 215
Width: 700
GlyphClass: 2
Flags: MW
HStem: 0 75<250 260 260 620> 225 75<200 500 200 640 200 500> 405 75<237.5 440 260 440 440 450> 580 100<290 410 290 410>
VStem: 60 140<115 225 300 365 365 375> 290 120<580 680 580 680> 500 140<300 365 225 375 225 390>
CounterMasks: 1 0e
LayerCount: 2
Fore
SplineSet
290 580 m 1
 290 680 l 1
 410 680 l 1
 410 580 l 1
 290 580 l 1
60 115 m 2
 60 365 l 2
 60 480 160 480 260 480 c 2
 440 480 l 2
 540 480 640 480 640 365 c 2
 640 225 l 1
 200 225 l 1
 200 105 l 2
 200 75 225 75 250 75 c 2
 620 75 l 1
 620 0 l 1
 260 0 l 2
 160 0 60 0 60 115 c 2
200 300 m 1
 500 300 l 1
 500 375 l 2
 500 405 475 405 450 405 c 2
 250 405 l 2
 225 405 200 405 200 375 c 2
 200 300 l 1
EndSplineSet
EndChar

StartChar: Eogonek
Encoding: 280 280 216
Width: 840
GlyphClass: 2
Flags: MW
HStem: -225 50<700 770 760 770 760 770> -20 20<70 70 70 770 670 770 770 770> 0 85<220 770 220 770 670 770 220 770> 325 85<220 720 220 720> 575 85<220 770 220 220>
VStem: 70 150<85 325 410 575> 580 100<-150 -117.5>
LayerCount: 2
Fore
SplineSet
580 -135 m 0xc2
 580 -100 600 -70 670 0 c 1
 770 0 l 1
 695 -75 680 -100 680 -130 c 0
 680 -170 720 -175 760 -175 c 2
 770 -175 l 1
 770 -225 l 1
 740 -225 l 2
 660 -225 580 -215 580 -135 c 0xc2
70 0 m 1x3c
 70 660 l 1
 770 660 l 1
 770 575 l 1
 220 575 l 1
 220 410 l 1
 720 410 l 1
 720 325 l 1
 220 325 l 1
 220 85 l 1
 770 85 l 1
 770 0 l 1
 70 0 l 1x3c
EndSplineSet
EndChar

StartChar: eogonek
Encoding: 281 281 217
Width: 700
GlyphClass: 2
Flags: MW
HStem: -225 50<550 620 610 620 610 620> -20 20<210 260 260 620 520 620 620 620> 0 75<250 260 260 620 520 620 250 620> 225 75<200 500 200 640 200 500> 405 75<237.5 440 260 440 440 450>
VStem: 60 140<115 225 300 365 365 375> 430 100<-150 -117.5> 500 140<300 365 225 375 225 390>
LayerCount: 2
Fore
SplineSet
430 -135 m 0xc2
 430 -100 450 -70 520 0 c 1
 620 0 l 1
 545 -75 530 -100 530 -130 c 0
 530 -170 570 -175 610 -175 c 2
 620 -175 l 1
 620 -225 l 1
 590 -225 l 2
 510 -225 430 -215 430 -135 c 0xc2
60 115 m 2x3d
 60 365 l 2
 60 480 160 480 260 480 c 2
 440 480 l 2
 540 480 640 480 640 365 c 2
 640 225 l 1
 200 225 l 1
 200 105 l 2
 200 75 225 75 250 75 c 2
 620 75 l 1
 620 0 l 1
 260 0 l 2
 160 0 60 0 60 115 c 2x3d
200 300 m 1
 500 300 l 1
 500 375 l 2
 500 405 475 405 450 405 c 2
 250 405 l 2
 225 405 200 405 200 375 c 2
 200 300 l 1
EndSplineSet
EndChar

StartChar: Ecaron
Encoding: 282 282 218
Width: 840
GlyphClass: 2
Flags: MW
HStem: 0 85<220 770 220 770> 325 85<220 720 220 720> 575 85<220 770 220 220> 730 160<220 460 220 380>
VStem: 70 150<85 325 410 575>
LayerCount: 2
Fore
SplineSet
220 890 m 1
 320 890 l 1
 420 800 l 1
 520 890 l 1
 620 890 l 1
 460 730 l 1
 380 730 l 1
 220 890 l 1
70 0 m 1
 70 660 l 1
 770 660 l 1
 770 575 l 1
 220 575 l 1
 220 410 l 1
 720 410 l 1
 720 325 l 1
 220 325 l 1
 220 85 l 1
 770 85 l 1
 770 0 l 1
 70 0 l 1
EndSplineSet
EndChar

StartChar: ecaron
Encoding: 283 283 219
Width: 700
GlyphClass: 2
Flags: MW
HStem: 0 75<250 260 260 620> 225 75<200 500 200 640 200 500> 405 75<237.5 440 260 440 440 450> 550 160<150 390 150 310>
VStem: 60 140<115 225 300 365 365 375> 500 140<300 365 225 375 225 390>
LayerCount: 2
Fore
SplineSet
150 710 m 1
 250 710 l 1
 350 620 l 1
 450 710 l 1
 550 710 l 1
 390 550 l 1
 310 550 l 1
 150 710 l 1
60 115 m 2
 60 365 l 2
 60 480 160 480 260 480 c 2
 440 480 l 2
 540 480 640 480 640 365 c 2
 640 225 l 1
 200 225 l 1
 200 105 l 2
 200 75 225 75 250 75 c 2
 620 75 l 1
 620 0 l 1
 260 0 l 2
 160 0 60 0 60 115 c 2
200 300 m 1
 500 300 l 1
 500 375 l 2
 500 405 475 405 450 405 c 2
 250 405 l 2
 225 405 200 405 200 375 c 2
 200 300 l 1
EndSplineSet
EndChar

StartChar: Gcircumflex
Encoding: 284 284 220
Width: 890
GlyphClass: 2
Flags: MW
HStem: 0 85<280 310 310 580> 325 85<520 670 520 820> 575 85<265 770 310 770 310 770> 730 160<245 485 405 545 405 645>
VStem: 70 150<135 525 525 540> 670 150<120 135 135 325 325 325>
LayerCount: 2
Fore
SplineSet
245 730 m 1
 405 890 l 1
 485 890 l 1
 645 730 l 1
 545 730 l 1
 445 820 l 1
 345 730 l 1
 245 730 l 1
70 135 m 2
 70 525 l 2
 70 660 190 660 310 660 c 2
 770 660 l 1
 770 575 l 1
 280 575 l 2
 250 575 220 575 220 540 c 2
 220 120 l 2
 220 85 250 85 280 85 c 2
 610 85 l 2
 640 85 670 85 670 120 c 2
 670 325 l 1
 520 325 l 1
 520 410 l 1
 820 410 l 1
 820 135 l 2
 820 0 700 0 580 0 c 2
 310 0 l 2
 190 0 70 0 70 135 c 2
EndSplineSet
EndChar

StartChar: gcircumflex
Encoding: 285 285 221
Width: 700
GlyphClass: 2
Flags: MW
HStem: -225 75<80 440 80 450> 0 75<250 260 260 500> 405 75<237.5 640 260 500> 550 160<150 390 310 450 310 550>
VStem: 60 140<115 365 365 375> 500 140<-125 0 0 0 75 405 405 405>
LayerCount: 2
Fore
SplineSet
150 550 m 1
 310 710 l 1
 390 710 l 1
 550 550 l 1
 450 550 l 1
 350 640 l 1
 250 550 l 1
 150 550 l 1
60 115 m 2
 60 365 l 2
 60 480 160 480 260 480 c 2
 640 480 l 1
 640 -125 l 2
 640 -225 540 -225 440 -225 c 2
 80 -225 l 1
 80 -150 l 1
 450 -150 l 2
 475 -150 500 -150 500 -125 c 2
 500 0 l 1
 260 0 l 2
 160 0 60 0 60 115 c 2
200 105 m 2
 200 75 225 75 250 75 c 2
 500 75 l 1
 500 405 l 1
 250 405 l 2
 225 405 200 405 200 375 c 2
 200 105 l 2
EndSplineSet
EndChar

StartChar: Gbreve
Encoding: 286 286 222
Width: 890
GlyphClass: 2
Flags: MW
HStem: 0 85<280 310 310 580> 325 85<520 670 520 820> 575 85<265 770 310 770 310 770> 730 21<401 489>
VStem: 70 150<135 525 525 540> 285 75<866.5 890 866.5 890> 530 75<866.5 890> 670 150<120 135 135 325 325 325>
LayerCount: 2
Fore
SplineSet
285 890 m 1
 360 890 l 1
 360 843 398 805 445 805 c 0
 492 805 530 843 530 890 c 1
 605 890 l 1
 605 802 533 730 445 730 c 0
 357 730 285 802 285 890 c 1
70 135 m 2
 70 525 l 2
 70 660 190 660 310 660 c 2
 770 660 l 1
 770 575 l 1
 280 575 l 2
 250 575 220 575 220 540 c 2
 220 120 l 2
 220 85 250 85 280 85 c 2
 610 85 l 2
 640 85 670 85 670 120 c 2
 670 325 l 1
 520 325 l 1
 520 410 l 1
 820 410 l 1
 820 135 l 2
 820 0 700 0 580 0 c 2
 310 0 l 2
 190 0 70 0 70 135 c 2
EndSplineSet
EndChar

StartChar: gbreve
Encoding: 287 287 223
Width: 700
GlyphClass: 2
Flags: MW
HStem: -225 75<80 440 80 450> 0 75<250 260 260 500> 405 75<237.5 640 260 500> 550 21<306 394>
VStem: 60 140<115 365 365 375> 190 75<686.5 710 686.5 710> 435 75<686.5 710> 500 140<-125 0 0 0 75 405 405 405>
LayerCount: 2
Fore
SplineSet
190 710 m 1x16
 265 710 l 1
 265 663 303 625 350 625 c 0
 397 625 435 663 435 710 c 1
 510 710 l 1
 510 622 438 550 350 550 c 0
 262 550 190 622 190 710 c 1x16
60 115 m 2xe9
 60 365 l 2
 60 480 160 480 260 480 c 2
 640 480 l 1
 640 -125 l 2
 640 -225 540 -225 440 -225 c 2
 80 -225 l 1
 80 -150 l 1
 450 -150 l 2
 475 -150 500 -150 500 -125 c 2
 500 0 l 1
 260 0 l 2
 160 0 60 0 60 115 c 2xe9
200 105 m 2
 200 75 225 75 250 75 c 2
 500 75 l 1
 500 405 l 1
 250 405 l 2
 225 405 200 405 200 375 c 2
 200 105 l 2
EndSplineSet
EndChar

StartChar: Gdotaccent
Encoding: 288 288 224
Width: 890
GlyphClass: 2
Flags: MW
HStem: 0 85<280 310 310 580> 325 85<520 670 520 820> 575 85<265 770 310 770 310 770> 760 100<385 505 385 505>
VStem: 70 150<135 525 525 540> 385 120<760 860 760 860> 670 150<120 135 135 325 325 325>
CounterMasks: 1 0e
LayerCount: 2
Fore
SplineSet
385 760 m 1
 385 860 l 1
 505 860 l 1
 505 760 l 1
 385 760 l 1
70 135 m 2
 70 525 l 2
 70 660 190 660 310 660 c 2
 770 660 l 1
 770 575 l 1
 280 575 l 2
 250 575 220 575 220 540 c 2
 220 120 l 2
 220 85 250 85 280 85 c 2
 610 85 l 2
 640 85 670 85 670 120 c 2
 670 325 l 1
 520 325 l 1
 520 410 l 1
 820 410 l 1
 820 135 l 2
 820 0 700 0 580 0 c 2
 310 0 l 2
 190 0 70 0 70 135 c 2
EndSplineSet
EndChar

StartChar: gdotaccent
Encoding: 289 289 225
Width: 700
GlyphClass: 2
Flags: MW
HStem: -225 75<80 440 80 450> 0 75<250 260 260 500> 405 75<237.5 640 260 500> 580 100<290 410 290 410>
VStem: 60 140<115 365 365 375> 290 120<580 680 580 680> 500 140<-125 0 0 0 75 405 405 405>
CounterMasks: 1 0e
LayerCount: 2
Fore
SplineSet
290 580 m 1
 290 680 l 1
 410 680 l 1
 410 580 l 1
 290 580 l 1
60 115 m 2
 60 365 l 2
 60 480 160 480 260 480 c 2
 640 480 l 1
 640 -125 l 2
 640 -225 540 -225 440 -225 c 2
 80 -225 l 1
 80 -150 l 1
 450 -150 l 2
 475 -150 500 -150 500 -125 c 2
 500 0 l 1
 260 0 l 2
 160 0 60 0 60 115 c 2
200 105 m 2
 200 75 225 75 250 75 c 2
 500 75 l 1
 500 405 l 1
 250 405 l 2
 225 405 200 405 200 375 c 2
 200 105 l 2
EndSplineSet
EndChar

StartChar: Gcommaaccent
Encoding: 290 290 226
Width: 890
GlyphClass: 2
Flags: MW
HStem: -225 155<365 525 395 465> 0 85<280 310 310 580> 325 85<520 670 520 820> 575 85<265 770 310 770 310 770>
VStem: 70 150<135 525 525 540> 365 160<-225 -70> 670 150<120 135 135 325 325 325>
CounterMasks: 1 0e
LayerCount: 2
Fore
SplineSet
365 -225 m 1
 395 -70 l 1
 525 -70 l 1
 465 -225 l 1
 365 -225 l 1
70 135 m 2
 70 525 l 2
 70 660 190 660 310 660 c 2
 770 660 l 1
 770 575 l 1
 280 575 l 2
 250 575 220 575 220 540 c 2
 220 120 l 2
 220 85 250 85 280 85 c 2
 610 85 l 2
 640 85 670 85 670 120 c 2
 670 325 l 1
 520 325 l 1
 520 410 l 1
 820 410 l 1
 820 135 l 2
 820 0 700 0 580 0 c 2
 310 0 l 2
 190 0 70 0 70 135 c 2
EndSplineSet
EndChar

StartChar: gcommaaccent
Encoding: 291 291 227
Width: 700
GlyphClass: 2
Flags: MW
HStem: -225 75<80 440 80 450> 0 75<250 260 260 500> 405 75<237.5 640 260 500> 550 250<280 460 380 410>
VStem: 60 140<115 365 365 375> 280 180 500 140<-125 0 0 0 75 405 405 405>
LayerCount: 2
Fore
SplineSet
280 550 m 1
 380 800 l 1
 460 800 l 1
 410 550 l 1
 280 550 l 1
60 115 m 2
 60 365 l 2
 60 480 160 480 260 480 c 2
 640 480 l 1
 640 -125 l 2
 640 -225 540 -225 440 -225 c 2
 80 -225 l 1
 80 -150 l 1
 450 -150 l 2
 475 -150 500 -150 500 -125 c 2
 500 0 l 1
 260 0 l 2
 160 0 60 0 60 115 c 2
200 105 m 2
 200 75 225 75 250 75 c 2
 500 75 l 1
 500 405 l 1
 250 405 l 2
 225 405 200 405 200 375 c 2
 200 105 l 2
EndSplineSet
EndChar

StartChar: Hcircumflex
Encoding: 292 292 228
Width: 890
GlyphClass: 2
Flags: MW
HStem: 0 21<70 70 70 220 670 670 670 820> 325 85<220 670 220 670> 640 20<70 220 220 220 670 820 820 820> 730 160<245 485 405 545 405 645>
VStem: 70 150<0 325 410 660> 670 150<0 325 325 325 410 660 0 660>
LayerCount: 2
Fore
SplineSet
245 730 m 1
 405 890 l 1
 485 890 l 1
 645 730 l 1
 545 730 l 1
 445 820 l 1
 345 730 l 1
 245 730 l 1
70 0 m 1
 70 660 l 1
 220 660 l 1
 220 410 l 1
 670 410 l 1
 670 660 l 1
 820 660 l 1
 820 0 l 1
 670 0 l 1
 670 325 l 1
 220 325 l 1
 220 0 l 1
 70 0 l 1
EndSplineSet
EndChar

StartChar: hcircumflex
Encoding: 293 293 229
Width: 700
GlyphClass: 2
Flags: MW
HStem: 0 21<60 60 60 200 500 500 500 640> 405 75<200 440 440 450 200 440> 640 20<60 200 200 200> 730 160<150 390 310 450 310 550>
VStem: 60 140<0 405 480 660> 500 140<0 365 0 375 0 390>
LayerCount: 2
Fore
SplineSet
150 730 m 1
 310 890 l 1
 390 890 l 1
 550 730 l 1
 450 730 l 1
 350 820 l 1
 250 730 l 1
 150 730 l 1
60 0 m 1
 60 660 l 1
 200 660 l 1
 200 480 l 1
 440 480 l 2
 540 480 640 480 640 365 c 2
 640 0 l 1
 500 0 l 1
 500 375 l 2
 500 405 475 405 450 405 c 2
 200 405 l 1
 200 0 l 1
 60 0 l 1
EndSplineSet
EndChar

StartChar: Hbar
Encoding: 294 294 230
Width: 950
GlyphClass: 2
Flags: MW
HStem: 0 21G<100 250 100 100 700 850 700 700> 325 85<250 700 250 700> 510 75<20 100 20 100 250 700 850 930> 640 20G<100 250 250 250 700 850 850 850>
VStem: 100 150<0 325 410 510 585 660> 700 150<0 325 325 325 410 510 0 510 585 660>
LayerCount: 2
Fore
SplineSet
20 510 m 1
 20 585 l 1
 100 585 l 1
 100 660 l 1
 250 660 l 1
 250 585 l 1
 700 585 l 1
 700 660 l 1
 850 660 l 1
 850 585 l 1
 930 585 l 1
 930 510 l 1
 850 510 l 1
 850 0 l 1
 700 0 l 1
 700 325 l 1
 250 325 l 1
 250 0 l 1
 100 0 l 1
 100 510 l 1
 20 510 l 1
250 410 m 1
 700 410 l 1
 700 510 l 1
 250 510 l 1
 250 410 l 1
EndSplineSet
EndChar

StartChar: hbar
Encoding: 295 295 231
Width: 720
GlyphClass: 2
Flags: MW
HStem: 0 21G<80 220 80 80 520 660 520 520> 405 75<220 460 460 470 220 460> 540 65<20 80 20 80 220 370> 640 20G<80 220 220 220>
VStem: 80 140<0 405 480 540 0 540 0 540 605 660> 520 140<0 365 0 375 0 390>
LayerCount: 2
Fore
SplineSet
20 540 m 1
 20 605 l 1
 80 605 l 1
 80 660 l 1
 220 660 l 1
 220 605 l 1
 370 605 l 1
 370 540 l 1
 220 540 l 1
 220 480 l 1
 460 480 l 2
 560 480 660 480 660 365 c 2
 660 0 l 1
 520 0 l 1
 520 375 l 2
 520 405 495 405 470 405 c 2
 220 405 l 1
 220 0 l 1
 80 0 l 1
 80 540 l 1
 20 540 l 1
EndSplineSet
EndChar

StartChar: Itilde
Encoding: 296 296 232
Width: 320
GlyphClass: 2
Flags: MW
HStem: 0 21<85 85 85 235> 640 20<85 235 235 235> 740 70<-40 95> 810 70<35 95>
VStem: -40 90<740 740> 85 150<0 660 0 660> 270 90<880 880>
CounterMasks: 1 0e
LayerCount: 2
Fore
SplineSet
55 880 m 0x10
 80 880 90 875 160 840 c 0
 200 820 220 810 230 810 c 0x20
 245 810 255 820 270 880 c 1
 360 880 l 1x10
 335 775 305 740 265 740 c 0x20
 240 740 230 745 160 780 c 0
 120 800 100 810 90 810 c 0x10
 75 810 65 800 50 740 c 1
 -40 740 l 1x20
 -15 845 15 880 55 880 c 0x10
85 0 m 1xc4
 85 660 l 1
 235 660 l 1
 235 0 l 1
 85 0 l 1xc4
EndSplineSet
EndChar

StartChar: itilde
Encoding: 297 297 233
Width: 320
GlyphClass: 2
Flags: MW
HStem: 0 21<90 90 90 230> 460 20<90 230 230 230> 560 70<-40 95> 630 70<35 95>
VStem: -40 90<560 560> 90 140<0 480 0 480> 270 90<700 700>
CounterMasks: 1 0e
LayerCount: 2
Fore
SplineSet
55 700 m 0x10
 80 700 90 695 160 660 c 0
 200 640 220 630 230 630 c 0x20
 245 630 255 640 270 700 c 1
 360 700 l 1x10
 335 595 305 560 265 560 c 0x20
 240 560 230 565 160 600 c 0
 120 620 100 630 90 630 c 0x10
 75 630 65 620 50 560 c 1
 -40 560 l 1x20
 -15 665 15 700 55 700 c 0x10
90 0 m 1xc4
 90 480 l 1
 230 480 l 1
 230 0 l 1
 90 0 l 1xc4
EndSplineSet
EndChar

StartChar: Imacron
Encoding: 298 298 234
Width: 320
GlyphClass: 2
Flags: MW
HStem: 0 21<85 85 85 235> 640 20<85 235 235 235> 765 75<-20 340 -20 340>
VStem: -20 360<765 840 765 840> 85 150<0 660 0 660>
LayerCount: 2
Fore
SplineSet
-20 765 m 1x30
 -20 840 l 1
 340 840 l 1
 340 765 l 1
 -20 765 l 1x30
85 0 m 1xc8
 85 660 l 1
 235 660 l 1
 235 0 l 1
 85 0 l 1xc8
EndSplineSet
EndChar

StartChar: imacron
Encoding: 299 299 235
Width: 320
GlyphClass: 2
Flags: MW
HStem: 0 21<90 90 90 230> 460 20<90 230 230 230> 585 75<-20 340 -20 340>
VStem: -20 360<585 660 585 660> 90 140<0 480 0 480>
LayerCount: 2
Fore
SplineSet
-20 585 m 1x30
 -20 660 l 1
 340 660 l 1
 340 585 l 1
 -20 585 l 1x30
90 0 m 1xc8
 90 480 l 1
 230 480 l 1
 230 0 l 1
 90 0 l 1xc8
EndSplineSet
EndChar

StartChar: Ibreve
Encoding: 300 300 236
Width: 290
GlyphClass: 2
Flags: MW
HStem: 0 21<70 70 70 220> 640 20<70 220 220 220> 730 21<101 189>
VStem: -15 75<866.5 890 866.5 890> 70 150<0 660 0 660> 230 75<866.5 890>
CounterMasks: 1 1c
LayerCount: 2
Fore
SplineSet
-15 890 m 1
 60 890 l 1
 60 843 98 805 145 805 c 0
 192 805 230 843 230 890 c 1
 305 890 l 1
 305 802 233 730 145 730 c 0
 57 730 -15 802 -15 890 c 1
70 0 m 1
 70 660 l 1
 220 660 l 1
 220 0 l 1
 70 0 l 1
EndSplineSet
EndChar

StartChar: ibreve
Encoding: 301 301 237
Width: 280
GlyphClass: 2
Flags: MW
HStem: 0 21<70 70 70 210> 460 20<70 210 210 210> 550 21<96 184>
VStem: -20 75<686.5 710 686.5 710> 70 140<0 480 0 480> 225 75<686.5 710>
CounterMasks: 1 1c
LayerCount: 2
Fore
SplineSet
-20 710 m 1
 55 710 l 1
 55 663 93 625 140 625 c 0
 187 625 225 663 225 710 c 1
 300 710 l 1
 300 622 228 550 140 550 c 0
 52 550 -20 622 -20 710 c 1
70 0 m 1
 70 480 l 1
 210 480 l 1
 210 0 l 1
 70 0 l 1
EndSplineSet
EndChar

StartChar: Iogonek
Encoding: 302 302 238
Width: 290
GlyphClass: 2
Flags: MW
HStem: -225 50<150 220 210 220 210 220> -20 20<70 70 70 220 120 220 220 220> 0 21<70 70 70 220 120 220 220 220> 640 20<70 220 220 220>
VStem: 30 100<-150 -117.5> 70 150<0 660>
LayerCount: 2
Fore
SplineSet
30 -135 m 0xc8
 30 -100 50 -70 120 0 c 1
 220 0 l 1
 145 -75 130 -100 130 -130 c 0
 130 -170 170 -175 210 -175 c 2
 220 -175 l 1
 220 -225 l 1
 190 -225 l 2
 110 -225 30 -215 30 -135 c 0xc8
70 0 m 1x34
 70 660 l 1
 220 660 l 1
 220 0 l 1
 70 0 l 1x34
EndSplineSet
EndChar

StartChar: iogonek
Encoding: 303 303 239
Width: 260
GlyphClass: 2
Flags: MW
HStem: -225 50<130 200 190 200 190 200> -20 20<60 60 60 200 100 200 200 200> 0 21<60 60 60 200 100 200 200 200> 460 20<60 200 200 200> 560 100<60 200 60 200>
VStem: 10 100<-150 -117.5> 60 140<0 480 560 660>
LayerCount: 2
Fore
SplineSet
10 -135 m 0xc4
 10 -100 30 -70 100 0 c 1
 200 0 l 1
 125 -75 110 -100 110 -130 c 0
 110 -170 150 -175 190 -175 c 2
 200 -175 l 1
 200 -225 l 1
 170 -225 l 2
 90 -225 10 -215 10 -135 c 0xc4
60 0 m 1x3a
 60 480 l 1
 200 480 l 1
 200 0 l 1
 60 0 l 1x3a
60 560 m 1
 60 660 l 1
 200 660 l 1
 200 560 l 1
 60 560 l 1
EndSplineSet
EndChar

StartChar: Idotaccent
Encoding: 304 304 240
Width: 290
GlyphClass: 2
Flags: MW
HStem: 0 21<70 70 70 220> 640 20<70 220 220 220> 760 100<85 205 85 205>
VStem: 70 150<0 660 0 660> 85 120<760 860 760 860>
LayerCount: 2
Fore
SplineSet
85 760 m 1x28
 85 860 l 1
 205 860 l 1
 205 760 l 1
 85 760 l 1x28
70 0 m 1xd0
 70 660 l 1
 220 660 l 1
 220 0 l 1
 70 0 l 1xd0
EndSplineSet
EndChar

StartChar: dotlessi
Encoding: 305 305 241
Width: 260
GlyphClass: 2
Flags: MW
HStem: 0 21G<60 60 60 200> 460 20G<60 200 200 200>
VStem: 60 140<0 480 0 480>
LayerCount: 2
Fore
SplineSet
60 0 m 1
 60 480 l 1
 200 480 l 1
 200 0 l 1
 60 0 l 1
EndSplineSet
EndChar

StartChar: IJ
Encoding: 306 306 242
Width: 1150
GlyphClass: 2
Flags: MW
HStem: 0 21<70 70 70 220 510 570 570 840> 0 85<540 570 570 840> 235 20<330 480 480 480> 640 20<70 220 220 220 930 1080 1080 1080>
VStem: 70 150<0 660 0 660> 330 150<135 255 102.5 255> 930 150<120 135 135 660>
LayerCount: 2
Fore
SplineSet
330 135 m 2x76
 330 255 l 1
 480 255 l 1
 480 120 l 2
 480 85 510 85 540 85 c 2
 870 85 l 2
 900 85 930 85 930 120 c 2
 930 660 l 1
 1080 660 l 1
 1080 135 l 2
 1080 0 960 0 840 0 c 2
 570 0 l 2
 450 0 330 0 330 135 c 2x76
70 0 m 1x98
 70 660 l 1
 220 660 l 1
 220 0 l 1
 70 0 l 1x98
EndSplineSet
EndChar

StartChar: ij
Encoding: 307 307 243
Width: 500
GlyphClass: 2
Flags: MW
HStem: -225 75<190 190> 0 21<60 60 60 200 300 300 440 440> 460 20<60 200 200 200 300 440 440 440> 560 100<60 200 60 200 300 440>
VStem: 60 140<0 480 0 480 560 660> 190 21<-225 -150 -150 -150> 300 140<0 480 560 660>
LayerCount: 2
Fore
SplineSet
190 -150 m 1xb6
 270 -130 300 -90 300 0 c 2
 300 480 l 1
 440 480 l 1
 440 0 l 2
 440 -200 290 -215 190 -225 c 1
 190 -150 l 1xb6
300 560 m 1
 300 660 l 1
 440 660 l 1
 440 560 l 1
 300 560 l 1
60 0 m 1x78
 60 480 l 1
 200 480 l 1
 200 0 l 1
 60 0 l 1x78
60 560 m 1
 60 660 l 1
 200 660 l 1
 200 560 l 1
 60 560 l 1
EndSplineSet
EndChar

StartChar: Jcircumflex
Encoding: 308 308 244
Width: 890
GlyphClass: 2
Flags: MW
HStem: 0 85<280 310 310 580> 235 20<70 220 220 220> 640 20<670 820 820 820> 730 160<545 785 705 845 705 945>
VStem: 70 150<135 255 102.5 255> 670 150<120 135 135 660>
LayerCount: 2
Fore
SplineSet
545 730 m 1
 705 890 l 1
 785 890 l 1
 945 730 l 1
 845 730 l 1
 745 820 l 1
 645 730 l 1
 545 730 l 1
70 135 m 2
 70 255 l 1
 220 255 l 1
 220 120 l 2
 220 85 250 85 280 85 c 2
 610 85 l 2
 640 85 670 85 670 120 c 2
 670 660 l 1
 820 660 l 1
 820 135 l 2
 820 0 700 0 580 0 c 2
 310 0 l 2
 190 0 70 0 70 135 c 2
EndSplineSet
EndChar

StartChar: jcircumflex
Encoding: 309 309 245
Width: 320
GlyphClass: 2
Flags: MW
HStem: -225 75<-20 -20> 460 20<90 230 230 230> 550 160<-40 200 120 260 120 360>
VStem: -20 21<-225 -150 -150 -150> 90 140<0 480>
LayerCount: 2
Fore
SplineSet
-40 550 m 1
 120 710 l 1
 200 710 l 1
 360 550 l 1
 260 550 l 1
 160 640 l 1
 60 550 l 1
 -40 550 l 1
-20 -150 m 1
 60 -130 90 -90 90 0 c 2
 90 480 l 1
 230 480 l 1
 230 0 l 2
 230 -200 80 -215 -20 -225 c 1
 -20 -150 l 1
EndSplineSet
EndChar

StartChar: Kcommaaccent
Encoding: 310 310 246
Width: 810
GlyphClass: 2
Flags: MW
HStem: -225 155<325 485 355 425> 0 21<70 70 70 220 610 610 610 790> 640 20<70 220 220 220 570 750 750 750>
VStem: 70 150<0 130 310 660> 325 160<-225 -70>
LayerCount: 2
Fore
SplineSet
325 -225 m 1
 355 -70 l 1
 485 -70 l 1
 425 -225 l 1
 325 -225 l 1
70 0 m 1
 70 660 l 1
 220 660 l 1
 220 310 l 1
 570 660 l 1
 750 660 l 1
 440 350 l 1
 790 0 l 1
 610 0 l 1
 350 260 l 1
 220 130 l 1
 220 0 l 1
 70 0 l 1
EndSplineSet
EndChar

StartChar: kcommaaccent
Encoding: 311 311 247
Width: 640
GlyphClass: 2
Flags: MW
HStem: -225 155<245 405 275 345> 0 21<60 60 60 200 460 460 460 620> 460 20<440 600 600 600> 640 20<60 200 200 200>
VStem: 60 140<0 80 240 660> 245 160<-225 -70>
LayerCount: 2
Fore
SplineSet
245 -225 m 1
 275 -70 l 1
 405 -70 l 1
 345 -225 l 1
 245 -225 l 1
60 0 m 1
 60 660 l 1
 200 660 l 1
 200 240 l 1
 440 480 l 1
 600 480 l 1
 370 250 l 1
 620 0 l 1
 460 0 l 1
 290 170 l 1
 200 80 l 1
 200 0 l 1
 60 0 l 1
EndSplineSet
EndChar

StartChar: kgreenlandic
Encoding: 312 312 248
Width: 640
GlyphClass: 2
Flags: MW
HStem: 0 21G<60 60 60 200 460 460 460 620> 460 20G<60 200 200 200 440 600 600 600>
VStem: 60 140<0 80 240 480>
LayerCount: 2
Fore
SplineSet
60 0 m 1
 60 480 l 1
 200 480 l 1
 200 240 l 1
 440 480 l 1
 600 480 l 1
 370 250 l 1
 620 0 l 1
 460 0 l 1
 290 170 l 1
 200 80 l 1
 200 0 l 1
 60 0 l 1
EndSplineSet
EndChar

StartChar: Lacute
Encoding: 313 313 249
Width: 800
GlyphClass: 2
Flags: MW
HStem: 0 85<220 770 220 770> 640 20<70 220 220 220> 730 160<310 560 310 560>
VStem: 70 150<85 660 85 660 85 660> 310 250<730 890> 750 20<0 85 0 0>
LayerCount: 2
Fore
SplineSet
310 730 m 1
 410 890 l 1
 560 890 l 1
 400 730 l 1
 310 730 l 1
70 0 m 1
 70 660 l 1
 220 660 l 1
 220 85 l 1
 770 85 l 1
 770 0 l 1
 70 0 l 1
EndSplineSet
EndChar

StartChar: lacute
Encoding: 314 314 250
Width: 260
GlyphClass: 2
Flags: MW
HStem: 0 21<60 60 60 200> 640 20<60 200 200 200> 730 160<10 260 10 260>
VStem: 10 250<730 890> 60 140<0 660 0 660>
LayerCount: 2
Fore
SplineSet
10 730 m 1x30
 110 890 l 1
 260 890 l 1
 100 730 l 1
 10 730 l 1x30
60 0 m 1xc8
 60 660 l 1
 200 660 l 1
 200 0 l 1
 60 0 l 1xc8
EndSplineSet
EndChar

StartChar: Lcommaaccent
Encoding: 315 315 251
Width: 800
GlyphClass: 2
Flags: MW
HStem: -225 155<340 500 370 440> 0 85<220 770 220 770> 640 20<70 220 220 220>
VStem: 70 150<85 660 85 660 85 660> 340 160<-225 -70> 750 20<0 85 0 0>
LayerCount: 2
Fore
SplineSet
340 -225 m 1
 370 -70 l 1
 500 -70 l 1
 440 -225 l 1
 340 -225 l 1
70 0 m 1
 70 660 l 1
 220 660 l 1
 220 85 l 1
 770 85 l 1
 770 0 l 1
 70 0 l 1
EndSplineSet
EndChar

StartChar: lcommaaccent
Encoding: 316 316 252
Width: 260
GlyphClass: 2
Flags: MW
HStem: -225 155<35 195 65 135> 0 21<60 60 60 200> 640 20<60 200 200 200>
VStem: 35 160<-225 -70> 60 140<0 660 0 660>
LayerCount: 2
Fore
SplineSet
35 -225 m 1x90
 65 -70 l 1
 195 -70 l 1
 135 -225 l 1
 35 -225 l 1x90
60 0 m 1x68
 60 660 l 1
 200 660 l 1
 200 0 l 1
 60 0 l 1x68
EndSplineSet
EndChar

StartChar: Lcaron
Encoding: 317 317 253
Width: 800
GlyphClass: 2
Flags: MW
HStem: 0 85<220 770 220 770> 460 200<510 550> 640 20<70 220 220 220 510 630 630 630>
VStem: 70 150<85 660 85 660 85 660> 460 170 750 20<0 85 0 0>
LayerCount: 2
Fore
SplineSet
460 460 m 1x48
 510 660 l 1
 630 660 l 1
 550 460 l 1
 460 460 l 1x48
70 0 m 1xb4
 70 660 l 1
 220 660 l 1
 220 85 l 1
 770 85 l 1
 770 0 l 1
 70 0 l 1xb4
EndSplineSet
EndChar

StartChar: lcaron
Encoding: 318 318 254
Width: 460
GlyphClass: 2
Flags: MW
HStem: 0 21<60 60 60 200> 460 200<60 270 320 360> 640 20<60 200 200 200 320 440 440 440>
VStem: 60 140<0 660 0 660> 270 170
LayerCount: 2
Fore
SplineSet
270 460 m 1x48
 320 660 l 1
 440 660 l 1
 360 460 l 1
 270 460 l 1x48
60 0 m 1xb0
 60 660 l 1
 200 660 l 1
 200 0 l 1
 60 0 l 1xb0
EndSplineSet
EndChar

StartChar: Ldot
Encoding: 319 319 255
Width: 800
GlyphClass: 2
Flags: MW
HStem: 0 85<220 770 220 770> 305 120<410 560 410 560> 640 20<70 220 220 220>
VStem: 70 150<85 660 85 660 85 660> 410 150<305 425 305 425> 750 20<0 85 0 0>
LayerCount: 2
Fore
SplineSet
410 305 m 1
 410 425 l 1
 560 425 l 1
 560 305 l 1
 410 305 l 1
70 0 m 1
 70 660 l 1
 220 660 l 1
 220 85 l 1
 770 85 l 1
 770 0 l 1
 70 0 l 1
EndSplineSet
EndChar

StartChar: ldot
Encoding: 320 320 256
Width: 510
GlyphClass: 2
Flags: MW
HStem: 0 21<60 60 60 200> 305 120<300 450 300 450> 640 20<60 200 200 200>
VStem: 60 140<0 660 0 660> 300 150<305 425 305 425>
LayerCount: 2
Fore
SplineSet
300 305 m 1
 300 425 l 1
 450 425 l 1
 450 305 l 1
 300 305 l 1
60 0 m 1
 60 660 l 1
 200 660 l 1
 200 0 l 1
 60 0 l 1
EndSplineSet
EndChar

StartChar: Lslash
Encoding: 321 321 257
Width: 850
GlyphClass: 2
Flags: MW
HStem: 0 85<270 820 270 820> 640 20G<120 270 270 270>
VStem: 120 150<85 275 275 275 445 660> 800 20G<0 85 0 0>
LayerCount: 2
Fore
SplineSet
20 225 m 1
 20 320 l 1
 120 370 l 1
 120 660 l 1
 270 660 l 1
 270 445 l 1
 470 545 l 1
 470 450 l 1
 270 350 l 1
 270 85 l 1
 820 85 l 1
 820 0 l 1
 120 0 l 1
 120 275 l 1
 20 225 l 1
EndSplineSet
EndChar

StartChar: lslash
Encoding: 322 322 258
Width: 340
GlyphClass: 2
Flags: MW
HStem: 0 21G<100 240 100 100> 640 20G<100 240 240 240>
VStem: 100 140<0 280 280 280 440 660>
LayerCount: 2
Fore
SplineSet
20 240 m 1
 20 330 l 1
 100 370 l 1
 100 660 l 1
 240 660 l 1
 240 440 l 1
 320 480 l 1
 320 390 l 1
 240 350 l 1
 240 0 l 1
 100 0 l 1
 100 280 l 1
 20 240 l 1
EndSplineSet
EndChar

StartChar: Nacute
Encoding: 323 323 259
Width: 890
GlyphClass: 2
Flags: MW
HStem: 0 21<70 70 70 220 660 660 660 820> 640 20<70 230 230 230 670 820 820 820> 730 160<355 605 355 605>
VStem: 70 150<0 490 0 660> 355 250<730 890> 670 150<170 660 0 660>
LayerCount: 2
Fore
SplineSet
355 730 m 1
 455 890 l 1
 605 890 l 1
 445 730 l 1
 355 730 l 1
70 0 m 1
 70 660 l 1
 230 660 l 1
 670 170 l 1
 670 660 l 1
 820 660 l 1
 820 0 l 1
 660 0 l 1
 220 490 l 1
 220 0 l 1
 70 0 l 1
EndSplineSet
EndChar

StartChar: nacute
Encoding: 324 324 260
Width: 700
GlyphClass: 2
Flags: MW
HStem: 0 21<60 60 60 200 500 500 500 640> 405 75<200 440 440 450 200 200> 550 160<260 510 260 510>
VStem: 60 140<0 405 0 480 0 480> 260 250<550 710> 500 140<0 365 0 375 0 390>
LayerCount: 2
Fore
SplineSet
260 550 m 1x28
 360 710 l 1
 510 710 l 1
 350 550 l 1
 260 550 l 1x28
60 0 m 1xd4
 60 480 l 1
 440 480 l 2
 540 480 640 480 640 365 c 2
 640 0 l 1
 500 0 l 1
 500 375 l 2
 500 405 475 405 450 405 c 2
 200 405 l 1
 200 0 l 1
 60 0 l 1xd4
EndSplineSet
EndChar

StartChar: Ncommaaccent
Encoding: 325 325 261
Width: 890
GlyphClass: 2
Flags: MW
HStem: -225 155<365 525 395 465> 0 21<70 70 70 220 660 660 660 820> 640 20<70 230 230 230 670 820 820 820>
VStem: 70 150<0 490 0 660> 365 160<-225 -70> 670 150<170 660 0 660>
CounterMasks: 1 1c
LayerCount: 2
Fore
SplineSet
365 -225 m 1
 395 -70 l 1
 525 -70 l 1
 465 -225 l 1
 365 -225 l 1
70 0 m 1
 70 660 l 1
 230 660 l 1
 670 170 l 1
 670 660 l 1
 820 660 l 1
 820 0 l 1
 660 0 l 1
 220 490 l 1
 220 0 l 1
 70 0 l 1
EndSplineSet
EndChar

StartChar: ncommaaccent
Encoding: 326 326 262
Width: 700
GlyphClass: 2
Flags: MW
HStem: -225 155<270 430 300 370> 0 21<60 60 60 200 500 500 500 640> 405 75<200 440 440 450 200 200>
VStem: 60 140<0 405 0 480 0 480> 270 160<-225 -70> 500 140<0 365 0 375 0 390>
CounterMasks: 1 1c
LayerCount: 2
Fore
SplineSet
270 -225 m 1
 300 -70 l 1
 430 -70 l 1
 370 -225 l 1
 270 -225 l 1
60 0 m 1
 60 480 l 1
 440 480 l 2
 540 480 640 480 640 365 c 2
 640 0 l 1
 500 0 l 1
 500 375 l 2
 500 405 475 405 450 405 c 2
 200 405 l 1
 200 0 l 1
 60 0 l 1
EndSplineSet
EndChar

StartChar: Ncaron
Encoding: 327 327 263
Width: 890
GlyphClass: 2
Flags: MW
HStem: 0 21<70 70 70 220 660 660 660 820> 640 20<70 230 230 230 670 820 820 820> 730 160<245 485 245 405>
VStem: 70 150<0 490 0 660> 670 150<170 660 0 660>
LayerCount: 2
Fore
SplineSet
245 890 m 1
 345 890 l 1
 445 800 l 1
 545 890 l 1
 645 890 l 1
 485 730 l 1
 405 730 l 1
 245 890 l 1
70 0 m 1
 70 660 l 1
 230 660 l 1
 670 170 l 1
 670 660 l 1
 820 660 l 1
 820 0 l 1
 660 0 l 1
 220 490 l 1
 220 0 l 1
 70 0 l 1
EndSplineSet
EndChar

StartChar: ncaron
Encoding: 328 328 264
Width: 700
GlyphClass: 2
Flags: MW
HStem: 0 21<60 60 60 200 500 500 500 640> 405 75<200 440 440 450 200 200> 550 160<150 390 150 310>
VStem: 60 140<0 405 0 480 0 480> 500 140<0 365 0 375 0 390>
LayerCount: 2
Fore
SplineSet
150 710 m 1
 250 710 l 1
 350 620 l 1
 450 710 l 1
 550 710 l 1
 390 550 l 1
 310 550 l 1
 150 710 l 1
60 0 m 1
 60 480 l 1
 440 480 l 2
 540 480 640 480 640 365 c 2
 640 0 l 1
 500 0 l 1
 500 375 l 2
 500 405 475 405 450 405 c 2
 200 405 l 1
 200 0 l 1
 60 0 l 1
EndSplineSet
EndChar

StartChar: napostrophe
Encoding: 329 329 265
Width: 830
GlyphClass: 2
Flags: MW
HStem: 0 21<190 190 190 330 630 630 630 770> 405 75<330 570 570 580 330 330> 460 200<20 190 70 110>
VStem: 20 170<460 460> 190 140<0 405 0 480 0 480> 630 140<0 365 0 375 0 390>
LayerCount: 2
Fore
SplineSet
190 0 m 1xcc
 190 480 l 1
 570 480 l 2
 670 480 770 480 770 365 c 2
 770 0 l 1
 630 0 l 1
 630 375 l 2
 630 405 605 405 580 405 c 2
 330 405 l 1
 330 0 l 1
 190 0 l 1xcc
20 460 m 1x30
 70 660 l 1
 190 660 l 1
 110 460 l 1
 20 460 l 1x30
EndSplineSet
EndChar

StartChar: Eng
Encoding: 330 330 266
Width: 890
GlyphClass: 2
Flags: MW
HStem: -225 85<520 520> 0 21G<70 70 70 220 660 660 820 820> 640 20G<70 230 230 230 670 820 820 820>
VStem: 70 150<0 490 0 660> 670 150<170 660>
LayerCount: 2
Fore
SplineSet
70 0 m 1
 70 660 l 1
 230 660 l 1
 670 170 l 1
 670 660 l 1
 820 660 l 1
 820 0 l 2
 820 -150 696 -215 520 -225 c 1
 520 -140 l 1
 560 -135 660 -105 660 0 c 1
 220 490 l 1
 220 0 l 1
 70 0 l 1
EndSplineSet
EndChar

StartChar: eng
Encoding: 331 331 267
Width: 700
GlyphClass: 2
Flags: MW
HStem: -225 75<390 390> 0 21G<60 60 60 200 500 500 640 640> 405 75<200 440 440 450 200 200>
VStem: 60 140<0 405 0 480 0 480> 500 140<0 365>
LayerCount: 2
Fore
SplineSet
60 0 m 1
 60 480 l 1
 440 480 l 2
 540 480 640 480 640 365 c 2
 640 0 l 2
 640 -200 490 -215 390 -225 c 1
 390 -150 l 1
 470 -130 500 -90 500 0 c 2
 500 375 l 2
 500 405 475 405 450 405 c 2
 200 405 l 1
 200 0 l 1
 60 0 l 1
EndSplineSet
EndChar

StartChar: Omacron
Encoding: 332 332 268
Width: 890
GlyphClass: 2
Flags: MW
HStem: 0 85<280 310 310 580> 575 85<265 580 310 580 580 610> 765 75<265 625 265 625>
VStem: 70 150<135 525 525 540> 265 360<765 840 765 840> 670 150<120 135 135 525>
CounterMasks: 1 1c
LayerCount: 2
Fore
SplineSet
265 765 m 1
 265 840 l 1
 625 840 l 1
 625 765 l 1
 265 765 l 1
70 135 m 2
 70 525 l 2
 70 660 190 660 310 660 c 2
 580 660 l 2
 700 660 820 660 820 525 c 2
 820 135 l 2
 820 0 700 0 580 0 c 2
 310 0 l 2
 190 0 70 0 70 135 c 2
220 120 m 2
 220 85 250 85 280 85 c 2
 610 85 l 2
 640 85 670 85 670 120 c 2
 670 540 l 2
 670 575 640 575 610 575 c 2
 280 575 l 2
 250 575 220 575 220 540 c 2
 220 120 l 2
EndSplineSet
EndChar

StartChar: omacron
Encoding: 333 333 269
Width: 700
GlyphClass: 2
Flags: MW
HStem: 0 75<250 260 260 440> 405 75<237.5 440 260 440 440 450> 585 75<170 530 170 530>
VStem: 60 140<115 365 365 375> 170 360<585 660 585 660> 500 140<105 115 115 365>
LayerCount: 2
Fore
SplineSet
170 585 m 1x28
 170 660 l 1
 530 660 l 1
 530 585 l 1
 170 585 l 1x28
60 115 m 2xd4
 60 365 l 2
 60 480 160 480 260 480 c 2
 440 480 l 2
 540 480 640 480 640 365 c 2
 640 115 l 2
 640 0 540 0 440 0 c 2
 260 0 l 2
 160 0 60 0 60 115 c 2xd4
200 105 m 2
 200 75 225 75 250 75 c 2
 450 75 l 2
 475 75 500 75 500 105 c 2
 500 375 l 2
 500 405 475 405 450 405 c 2
 250 405 l 2
 225 405 200 405 200 375 c 2
 200 105 l 2
EndSplineSet
EndChar

StartChar: Obreve
Encoding: 334 334 270
Width: 890
GlyphClass: 2
Flags: MW
HStem: 0 85<280 310 310 580> 575 85<265 580 310 580 580 610> 730 21<401 489>
VStem: 70 150<135 525 525 540> 285 75<866.5 890 866.5 890> 530 75<866.5 890> 670 150<120 135 135 525>
LayerCount: 2
Fore
SplineSet
285 890 m 1
 360 890 l 1
 360 843 398 805 445 805 c 0
 492 805 530 843 530 890 c 1
 605 890 l 1
 605 802 533 730 445 730 c 0
 357 730 285 802 285 890 c 1
70 135 m 2
 70 525 l 2
 70 660 190 660 310 660 c 2
 580 660 l 2
 700 660 820 660 820 525 c 2
 820 135 l 2
 820 0 700 0 580 0 c 2
 310 0 l 2
 190 0 70 0 70 135 c 2
220 120 m 2
 220 85 250 85 280 85 c 2
 610 85 l 2
 640 85 670 85 670 120 c 2
 670 540 l 2
 670 575 640 575 610 575 c 2
 280 575 l 2
 250 575 220 575 220 540 c 2
 220 120 l 2
EndSplineSet
EndChar

StartChar: obreve
Encoding: 335 335 271
Width: 700
GlyphClass: 2
Flags: MW
HStem: 0 75<250 260 260 440> 405 75<237.5 440 260 440 440 450> 550 21<306 394>
VStem: 60 140<115 365 365 375> 190 75<686.5 710 686.5 710> 435 75<686.5 710> 500 140<105 115 115 365>
LayerCount: 2
Fore
SplineSet
190 710 m 1x2c
 265 710 l 1
 265 663 303 625 350 625 c 0
 397 625 435 663 435 710 c 1
 510 710 l 1
 510 622 438 550 350 550 c 0
 262 550 190 622 190 710 c 1x2c
60 115 m 2xd2
 60 365 l 2
 60 480 160 480 260 480 c 2
 440 480 l 2
 540 480 640 480 640 365 c 2
 640 115 l 2
 640 0 540 0 440 0 c 2
 260 0 l 2
 160 0 60 0 60 115 c 2xd2
200 105 m 2
 200 75 225 75 250 75 c 2
 450 75 l 2
 475 75 500 75 500 105 c 2
 500 375 l 2
 500 405 475 405 450 405 c 2
 250 405 l 2
 225 405 200 405 200 375 c 2
 200 105 l 2
EndSplineSet
EndChar

StartChar: Ohungarumlaut
Encoding: 336 336 272
Width: 890
GlyphClass: 2
Flags: MW
HStem: 0 85<280 310 310 580> 575 85<265 580 310 580 580 610> 730 160<265 465 265 465 345 565 345 485>
VStem: 70 150<135 525 525 540> 265 200<730 890> 485 200<730 890> 670 150<120 135 135 525>
LayerCount: 2
Fore
SplineSet
265 730 m 1x2c
 345 890 l 1
 465 890 l 1
 345 730 l 1
 265 730 l 1x2c
485 730 m 1
 565 890 l 1
 685 890 l 1
 565 730 l 1
 485 730 l 1
70 135 m 2xd2
 70 525 l 2
 70 660 190 660 310 660 c 2
 580 660 l 2
 700 660 820 660 820 525 c 2
 820 135 l 2
 820 0 700 0 580 0 c 2
 310 0 l 2
 190 0 70 0 70 135 c 2xd2
220 120 m 2
 220 85 250 85 280 85 c 2
 610 85 l 2
 640 85 670 85 670 120 c 2
 670 540 l 2
 670 575 640 575 610 575 c 2
 280 575 l 2
 250 575 220 575 220 540 c 2
 220 120 l 2
EndSplineSet
EndChar

StartChar: ohungarumlaut
Encoding: 337 337 273
Width: 700
GlyphClass: 2
Flags: MW
HStem: 0 75<250 260 260 440> 405 75<237.5 440 260 440 440 450> 550 160<170 370 170 370 250 470 250 390>
VStem: 60 140<115 365 365 375> 170 200<550 710> 390 200<550 710> 500 140<105 115 115 365>
LayerCount: 2
Fore
SplineSet
170 550 m 1x2c
 250 710 l 1
 370 710 l 1
 250 550 l 1
 170 550 l 1x2c
390 550 m 1
 470 710 l 1
 590 710 l 1
 470 550 l 1
 390 550 l 1
60 115 m 2xd2
 60 365 l 2
 60 480 160 480 260 480 c 2
 440 480 l 2
 540 480 640 480 640 365 c 2
 640 115 l 2
 640 0 540 0 440 0 c 2
 260 0 l 2
 160 0 60 0 60 115 c 2xd2
200 105 m 2
 200 75 225 75 250 75 c 2
 450 75 l 2
 475 75 500 75 500 105 c 2
 500 375 l 2
 500 405 475 405 450 405 c 2
 250 405 l 2
 225 405 200 405 200 375 c 2
 200 105 l 2
EndSplineSet
EndChar

StartChar: OE
Encoding: 338 338 274
Width: 1340
GlyphClass: 2
Flags: MW
HStem: 0 85<280 310 310 560 560 575 770 1270> 325 85<770 1220 770 1220> 575 85<265 1270 310 560 770 1270 770 770>
VStem: 70 150<135 525 525 540> 620 150<120 325 410 540 540 557.5>
LayerCount: 2
Fore
SplineSet
70 135 m 2
 70 525 l 2
 70 660 190 660 310 660 c 2
 1270 660 l 1
 1270 575 l 1
 770 575 l 1
 770 410 l 1
 1220 410 l 1
 1220 325 l 1
 770 325 l 1
 770 85 l 1
 1270 85 l 1
 1270 0 l 1
 310 0 l 2
 190 0 70 0 70 135 c 2
220 120 m 2
 220 85 250 85 280 85 c 2
 560 85 l 2
 590 85 620 85 620 120 c 2
 620 540 l 2
 620 575 590 575 560 575 c 2
 280 575 l 2
 250 575 220 575 220 540 c 2
 220 120 l 2
EndSplineSet
EndChar

StartChar: oe
Encoding: 339 339 275
Width: 1140
GlyphClass: 2
Flags: MW
HStem: 0 75<250 260 260 450 450 462.5 690 1060> 225 75<640 940 640 1080 640 940> 405 75<237.5 880 260 450 677.5 690 690 880 880 890>
VStem: 60 140<115 365 365 375> 500 140<105 225 300 375> 940 140<300 365 225 375 225 390>
CounterMasks: 1 1c
LayerCount: 2
Fore
SplineSet
60 115 m 2
 60 365 l 2
 60 480 160 480 260 480 c 2
 880 480 l 2
 980 480 1080 480 1080 365 c 2
 1080 225 l 1
 640 225 l 1
 640 105 l 2
 640 75 665 75 690 75 c 2
 1060 75 l 1
 1060 0 l 1
 260 0 l 2
 160 0 60 0 60 115 c 2
200 105 m 2
 200 75 225 75 250 75 c 2
 450 75 l 2
 475 75 500 75 500 105 c 2
 500 375 l 2
 500 405 475 405 450 405 c 2
 250 405 l 2
 225 405 200 405 200 375 c 2
 200 105 l 2
640 300 m 1
 940 300 l 1
 940 375 l 2
 940 405 915 405 890 405 c 2
 690 405 l 2
 665 405 640 405 640 375 c 2
 640 300 l 1
EndSplineSet
EndChar

StartChar: Racute
Encoding: 340 340 276
Width: 890
GlyphClass: 2
Flags: MW
HStem: 0 21<70 70 70 220 680 680 680 860> 290 85<220 390 220 610 570 580 570 570> 575 85<220 580 580 610 220 220> 730 160<355 605 355 605>
VStem: 70 150<0 290 375 575> 355 250<730 890> 670 150<410 425 425 525 357.5 540 357.5 557.5>
LayerCount: 2
Fore
SplineSet
355 730 m 1
 455 890 l 1
 605 890 l 1
 445 730 l 1
 355 730 l 1
70 0 m 1
 70 660 l 1
 580 660 l 2
 700 660 820 660 820 525 c 2
 820 425 l 2
 820 290 700 290 580 290 c 2
 570 290 l 1
 860 0 l 1
 680 0 l 1
 390 290 l 1
 220 290 l 1
 220 0 l 1
 70 0 l 1
220 375 m 1
 610 375 l 2
 640 375 670 375 670 410 c 2
 670 540 l 2
 670 575 640 575 610 575 c 2
 220 575 l 1
 220 375 l 1
EndSplineSet
EndChar

StartChar: racute
Encoding: 341 341 277
Width: 460
GlyphClass: 2
Flags: MW
HStem: 0 21<60 60 60 200> 405 75<237.5 400 260 400 260 400> 550 160<130 380 130 380>
VStem: 60 140<0 365 365 375 0 422.5> 130 250<550 710>
LayerCount: 2
Fore
SplineSet
130 550 m 1x28
 230 710 l 1
 380 710 l 1
 220 550 l 1
 130 550 l 1x28
60 0 m 1xd0
 60 365 l 2
 60 480 160 480 260 480 c 2
 400 480 l 1
 400 405 l 1
 250 405 l 2
 225 405 200 405 200 375 c 2
 200 0 l 1
 60 0 l 1xd0
EndSplineSet
EndChar

StartChar: Rcommaaccent
Encoding: 342 342 278
Width: 890
GlyphClass: 2
Flags: MW
HStem: -225 155<365 525 395 465> 0 21<70 70 70 220 680 680 680 860> 290 85<220 390 220 610 570 580 570 570> 575 85<220 580 580 610 220 220>
VStem: 70 150<0 290 375 575> 365 160<-225 -70> 670 150<410 425 425 525 357.5 540 357.5 557.5>
CounterMasks: 1 0e
LayerCount: 2
Fore
SplineSet
365 -225 m 1
 395 -70 l 1
 525 -70 l 1
 465 -225 l 1
 365 -225 l 1
70 0 m 1
 70 660 l 1
 580 660 l 2
 700 660 820 660 820 525 c 2
 820 425 l 2
 820 290 700 290 580 290 c 2
 570 290 l 1
 860 0 l 1
 680 0 l 1
 390 290 l 1
 220 290 l 1
 220 0 l 1
 70 0 l 1
220 375 m 1
 610 375 l 2
 640 375 670 375 670 410 c 2
 670 540 l 2
 670 575 640 575 610 575 c 2
 220 575 l 1
 220 375 l 1
EndSplineSet
EndChar

StartChar: rcommaaccent
Encoding: 343 343 279
Width: 460
GlyphClass: 2
Flags: MW
HStem: -225 155<35 195 65 135> 0 21<60 60 60 200> 405 75<237.5 400 260 400 260 400>
VStem: 35 160<-225 -70> 60 140<0 365 365 375 0 422.5>
LayerCount: 2
Fore
SplineSet
35 -225 m 1x90
 65 -70 l 1
 195 -70 l 1
 135 -225 l 1
 35 -225 l 1x90
60 0 m 1x68
 60 365 l 2
 60 480 160 480 260 480 c 2
 400 480 l 1
 400 405 l 1
 250 405 l 2
 225 405 200 405 200 375 c 2
 200 0 l 1
 60 0 l 1x68
EndSplineSet
EndChar

StartChar: Rcaron
Encoding: 344 344 280
Width: 890
GlyphClass: 2
Flags: MW
HStem: 0 21<70 70 70 220 680 680 680 860> 290 85<220 390 220 610 570 580 570 570> 575 85<220 580 580 610 220 220> 730 160<245 485 245 405>
VStem: 70 150<0 290 375 575> 670 150<410 425 425 525 357.5 540 357.5 557.5>
LayerCount: 2
Fore
SplineSet
245 890 m 1
 345 890 l 1
 445 800 l 1
 545 890 l 1
 645 890 l 1
 485 730 l 1
 405 730 l 1
 245 890 l 1
70 0 m 1
 70 660 l 1
 580 660 l 2
 700 660 820 660 820 525 c 2
 820 425 l 2
 820 290 700 290 580 290 c 2
 570 290 l 1
 860 0 l 1
 680 0 l 1
 390 290 l 1
 220 290 l 1
 220 0 l 1
 70 0 l 1
220 375 m 1
 610 375 l 2
 640 375 670 375 670 410 c 2
 670 540 l 2
 670 575 640 575 610 575 c 2
 220 575 l 1
 220 375 l 1
EndSplineSet
EndChar

StartChar: rcaron
Encoding: 345 345 281
Width: 460
GlyphClass: 2
Flags: MW
HStem: 0 21<60 60 60 200> 405 75<237.5 400 260 400 260 400> 550 160<30 270 30 190>
VStem: 60 140<0 365 365 375 0 422.5>
LayerCount: 2
Fore
SplineSet
30 710 m 1
 130 710 l 1
 230 620 l 1
 330 710 l 1
 430 710 l 1
 270 550 l 1
 190 550 l 1
 30 710 l 1
60 0 m 1
 60 365 l 2
 60 480 160 480 260 480 c 2
 400 480 l 1
 400 405 l 1
 250 405 l 2
 225 405 200 405 200 375 c 2
 200 0 l 1
 60 0 l 1
EndSplineSet
EndChar

StartChar: Sacute
Encoding: 346 346 282
Width: 890
GlyphClass: 2
Flags: MW
HStem: 0 85<70 610 70 580> 325 85<280 310 310 580 580 610> 575 85<265 770 310 770 310 770> 730 160<355 605 355 605>
VStem: 70 150<460 525 525 540 427.5 592.5> 355 250<730 890> 670 150<120 135 135 275 67.5 290>
LayerCount: 2
Fore
SplineSet
355 730 m 1
 455 890 l 1
 605 890 l 1
 445 730 l 1
 355 730 l 1
70 0 m 1
 70 85 l 1
 610 85 l 2
 640 85 670 85 670 120 c 2
 670 290 l 2
 670 325 640 325 610 325 c 2
 310 325 l 2
 190 325 70 325 70 460 c 2
 70 525 l 2
 70 660 190 660 310 660 c 2
 770 660 l 1
 770 575 l 1
 280 575 l 2
 250 575 220 575 220 540 c 2
 220 445 l 2
 220 410 250 410 280 410 c 2
 580 410 l 2
 700 410 820 410 820 275 c 2
 820 135 l 2
 820 0 700 0 580 0 c 2
 70 0 l 1
EndSplineSet
EndChar

StartChar: sacute
Encoding: 347 347 283
Width: 700
GlyphClass: 2
Flags: MW
HStem: 0 75<60 450 60 440> 225 75<250 260 260 440 440 450> 405 75<237.5 600 260 600 260 600> 550 160<260 510 260 510>
VStem: 60 140<340 365 365 375 315 422.5> 260 250<480 710 550 710> 500 140<105 115 115 185 57.5 195 57.5 210>
LayerCount: 2
Fore
SplineSet
260 550 m 1x14
 360 710 l 1
 510 710 l 1
 350 550 l 1
 260 550 l 1x14
60 0 m 1xea
 60 75 l 1
 450 75 l 2
 475 75 500 75 500 105 c 2
 500 195 l 2
 500 225 475 225 450 225 c 2
 260 225 l 2
 160 225 60 225 60 340 c 2
 60 365 l 2
 60 480 160 480 260 480 c 2
 600 480 l 1
 600 405 l 1
 250 405 l 2
 225 405 200 405 200 375 c 2
 200 330 l 2
 200 300 225 300 250 300 c 2
 440 300 l 2
 540 300 640 300 640 185 c 2
 640 115 l 2
 640 0 540 0 440 0 c 2
 60 0 l 1xea
EndSplineSet
EndChar

StartChar: Scircumflex
Encoding: 348 348 284
Width: 890
GlyphClass: 2
Flags: MW
HStem: 0 85<70 610 70 580> 325 85<280 310 310 580 580 610> 575 85<265 770 310 770 310 770> 730 160<245 485 405 545 405 645>
VStem: 70 150<460 525 525 540 427.5 592.5> 670 150<120 135 135 275 67.5 290>
LayerCount: 2
Fore
SplineSet
245 730 m 1
 405 890 l 1
 485 890 l 1
 645 730 l 1
 545 730 l 1
 445 820 l 1
 345 730 l 1
 245 730 l 1
70 0 m 1
 70 85 l 1
 610 85 l 2
 640 85 670 85 670 120 c 2
 670 290 l 2
 670 325 640 325 610 325 c 2
 310 325 l 2
 190 325 70 325 70 460 c 2
 70 525 l 2
 70 660 190 660 310 660 c 2
 770 660 l 1
 770 575 l 1
 280 575 l 2
 250 575 220 575 220 540 c 2
 220 445 l 2
 220 410 250 410 280 410 c 2
 580 410 l 2
 700 410 820 410 820 275 c 2
 820 135 l 2
 820 0 700 0 580 0 c 2
 70 0 l 1
EndSplineSet
EndChar

StartChar: scircumflex
Encoding: 349 349 285
Width: 700
GlyphClass: 2
Flags: MW
HStem: 0 75<60 450 60 440> 225 75<250 260 260 440 440 450> 405 75<237.5 600 260 600 260 600> 550 160<150 390 310 450 310 550>
VStem: 60 140<340 365 365 375 315 422.5> 500 140<105 115 115 185 57.5 195 57.5 210>
LayerCount: 2
Fore
SplineSet
150 550 m 1
 310 710 l 1
 390 710 l 1
 550 550 l 1
 450 550 l 1
 350 640 l 1
 250 550 l 1
 150 550 l 1
60 0 m 1
 60 75 l 1
 450 75 l 2
 475 75 500 75 500 105 c 2
 500 195 l 2
 500 225 475 225 450 225 c 2
 260 225 l 2
 160 225 60 225 60 340 c 2
 60 365 l 2
 60 480 160 480 260 480 c 2
 600 480 l 1
 600 405 l 1
 250 405 l 2
 225 405 200 405 200 375 c 2
 200 330 l 2
 200 300 225 300 250 300 c 2
 440 300 l 2
 540 300 640 300 640 185 c 2
 640 115 l 2
 640 0 540 0 440 0 c 2
 60 0 l 1
EndSplineSet
EndChar

StartChar: Scedilla
Encoding: 350 350 286
Width: 890
GlyphClass: 2
Flags: MW
HStem: -225 50<370 400 400 420 370 400> -20 20<70 70 70 580 390 490 490 490> 0 85<70 610 70 580 390 490 490 490> 325 85<280 310 310 580 580 610> 575 85<265 770 310 770 310 770>
VStem: 70 150<460 525 525 540 427.5 592.5> 370 21<-225 -175 -175 -175> 480 100<-150 -117.5 -175 -115> 670 150<120 135 135 275 67.5 290>
LayerCount: 2
Fore
SplineSet
370 -175 m 1xc3
 400 -175 l 2
 440 -175 480 -170 480 -130 c 0
 480 -100 465 -75 390 0 c 1
 490 0 l 1
 560 -70 580 -100 580 -135 c 0
 580 -215 500 -225 420 -225 c 2
 370 -225 l 1
 370 -175 l 1xc3
70 0 m 1x3c80
 70 85 l 1
 610 85 l 2
 640 85 670 85 670 120 c 2
 670 290 l 2
 670 325 640 325 610 325 c 2
 310 325 l 2
 190 325 70 325 70 460 c 2
 70 525 l 2
 70 660 190 660 310 660 c 2
 770 660 l 1
 770 575 l 1
 280 575 l 2
 250 575 220 575 220 540 c 2
 220 445 l 2
 220 410 250 410 280 410 c 2
 580 410 l 2
 700 410 820 410 820 275 c 2
 820 135 l 2
 820 0 700 0 580 0 c 2
 70 0 l 1x3c80
EndSplineSet
EndChar

StartChar: scedilla
Encoding: 351 351 287
Width: 700
GlyphClass: 2
Flags: MW
HStem: -225 50<270 300 300 320 270 300> -20 20<60 60 60 440 290 390 390 390> 0 75<60 450 60 440 290 390 390 390> 225 75<250 260 260 440 440 450> 405 75<237.5 600 260 600 260 600>
VStem: 60 140<340 365 365 375 315 422.5> 270 21<-225 -175 -175 -175> 380 100<-150 -117.5 -175 -115> 500 140<105 115 115 185 57.5 195 57.5 210>
LayerCount: 2
Fore
SplineSet
270 -175 m 1xc3
 300 -175 l 2
 340 -175 380 -170 380 -130 c 0
 380 -100 365 -75 290 0 c 1
 390 0 l 1
 460 -70 480 -100 480 -135 c 0
 480 -215 400 -225 320 -225 c 2
 270 -225 l 1
 270 -175 l 1xc3
60 0 m 1x3c80
 60 75 l 1
 450 75 l 2
 475 75 500 75 500 105 c 2
 500 195 l 2
 500 225 475 225 450 225 c 2
 260 225 l 2
 160 225 60 225 60 340 c 2
 60 365 l 2
 60 480 160 480 260 480 c 2
 600 480 l 1
 600 405 l 1
 250 405 l 2
 225 405 200 405 200 375 c 2
 200 330 l 2
 200 300 225 300 250 300 c 2
 440 300 l 2
 540 300 640 300 640 185 c 2
 640 115 l 2
 640 0 540 0 440 0 c 2
 60 0 l 1x3c80
EndSplineSet
EndChar

StartChar: Scaron
Encoding: 352 352 288
Width: 890
GlyphClass: 2
Flags: MW
HStem: 0 85<70 610 70 580> 325 85<280 310 310 580 580 610> 575 85<265 770 310 770 310 770> 730 160<245 485 245 405>
VStem: 70 150<460 525 525 540 427.5 592.5> 670 150<120 135 135 275 67.5 290>
LayerCount: 2
Fore
SplineSet
245 890 m 1
 345 890 l 1
 445 800 l 1
 545 890 l 1
 645 890 l 1
 485 730 l 1
 405 730 l 1
 245 890 l 1
70 0 m 1
 70 85 l 1
 610 85 l 2
 640 85 670 85 670 120 c 2
 670 290 l 2
 670 325 640 325 610 325 c 2
 310 325 l 2
 190 325 70 325 70 460 c 2
 70 525 l 2
 70 660 190 660 310 660 c 2
 770 660 l 1
 770 575 l 1
 280 575 l 2
 250 575 220 575 220 540 c 2
 220 445 l 2
 220 410 250 410 280 410 c 2
 580 410 l 2
 700 410 820 410 820 275 c 2
 820 135 l 2
 820 0 700 0 580 0 c 2
 70 0 l 1
EndSplineSet
EndChar

StartChar: scaron
Encoding: 353 353 289
Width: 700
GlyphClass: 2
Flags: MW
HStem: 0 75<60 450 60 440> 225 75<250 260 260 440 440 450> 405 75<237.5 600 260 600 260 600> 550 160<150 390 150 310>
VStem: 60 140<340 365 365 375 315 422.5> 500 140<105 115 115 185 57.5 195 57.5 210>
LayerCount: 2
Fore
SplineSet
150 710 m 1
 250 710 l 1
 350 620 l 1
 450 710 l 1
 550 710 l 1
 390 550 l 1
 310 550 l 1
 150 710 l 1
60 0 m 1
 60 75 l 1
 450 75 l 2
 475 75 500 75 500 105 c 2
 500 195 l 2
 500 225 475 225 450 225 c 2
 260 225 l 2
 160 225 60 225 60 340 c 2
 60 365 l 2
 60 480 160 480 260 480 c 2
 600 480 l 1
 600 405 l 1
 250 405 l 2
 225 405 200 405 200 375 c 2
 200 330 l 2
 200 300 225 300 250 300 c 2
 440 300 l 2
 540 300 640 300 640 185 c 2
 640 115 l 2
 640 0 540 0 440 0 c 2
 60 0 l 1
EndSplineSet
EndChar

StartChar: Tcommaaccent
Encoding: 354 354 290
Width: 890
GlyphClass: 2
Flags: MW
HStem: -225 50<350 380 380 400 350 380> -20 20<370 470 370 370 370 520 470 470> 0 21<370 470 370 370 370 520 470 470> 575 85<30 860 30 370 520 520 520 860>
VStem: 350 21<-225 -175 -175 -175> 370 150<0 575 0 575 0 575> 460 100<-150 -117.5 -175 -115>
LayerCount: 2
Fore
SplineSet
350 -175 m 1xca
 380 -175 l 2
 420 -175 460 -170 460 -130 c 0
 460 -100 445 -75 370 0 c 1
 470 0 l 1
 540 -70 560 -100 560 -135 c 0
 560 -215 480 -225 400 -225 c 2
 350 -225 l 1
 350 -175 l 1xca
30 575 m 1x34
 30 660 l 1
 860 660 l 1
 860 575 l 1
 520 575 l 1
 520 0 l 1
 370 0 l 1
 370 575 l 1
 30 575 l 1x34
EndSplineSet
EndChar

StartChar: tcommaaccent
Encoding: 355 355 291
Width: 460
GlyphClass: 2
Flags: MW
HStem: -225 50<190 220 220 240 190 220> -20 20<210 310 210 260 260 400 310 310> 0 75<250 310 250 260 260 400 310 310> 405 75<200 400 200 400> 640 20<60 200 200 200>
VStem: 60 140<115 405 480 660> 190 21<-225 -175 -175 -175> 300 100<-150 -117.5 -175 -115>
LayerCount: 2
Fore
SplineSet
190 -175 m 1xc3
 220 -175 l 2
 260 -175 300 -170 300 -130 c 0
 300 -100 285 -75 210 0 c 1
 310 0 l 1
 380 -70 400 -100 400 -135 c 0
 400 -215 320 -225 240 -225 c 2
 190 -225 l 1
 190 -175 l 1xc3
60 115 m 2x3c
 60 660 l 1
 200 660 l 1
 200 480 l 1
 400 480 l 1
 400 405 l 1
 200 405 l 1
 200 105 l 2
 200 75 225 75 250 75 c 2
 400 75 l 1
 400 0 l 1
 260 0 l 2
 160 0 60 0 60 115 c 2x3c
EndSplineSet
EndChar

StartChar: Tcaron
Encoding: 356 356 292
Width: 890
GlyphClass: 2
Flags: MW
HStem: 0 21<370 520 370 370> 575 85<30 860 30 370 520 520 520 860> 730 160<245 485 245 405>
VStem: 370 150<0 575 0 575>
LayerCount: 2
Fore
SplineSet
245 890 m 1
 345 890 l 1
 445 800 l 1
 545 890 l 1
 645 890 l 1
 485 730 l 1
 405 730 l 1
 245 890 l 1
30 575 m 1
 30 660 l 1
 860 660 l 1
 860 575 l 1
 520 575 l 1
 520 0 l 1
 370 0 l 1
 370 575 l 1
 30 575 l 1
EndSplineSet
EndChar

StartChar: tcaron
Encoding: 357 357 293
Width: 660
GlyphClass: 2
Flags: MW
HStem: 0 75<250 260 260 400> 405 75<200 400 200 400> 460 200<520 560> 640 20<60 200 200 200 520 640 640 640>
VStem: 60 140<115 405 480 660> 470 170
LayerCount: 2
Fore
SplineSet
470 460 m 1x24
 520 660 l 1
 640 660 l 1
 560 460 l 1
 470 460 l 1x24
60 115 m 2xd8
 60 660 l 1
 200 660 l 1
 200 480 l 1
 400 480 l 1
 400 405 l 1
 200 405 l 1
 200 105 l 2
 200 75 225 75 250 75 c 2
 400 75 l 1
 400 0 l 1
 260 0 l 2
 160 0 60 0 60 115 c 2xd8
EndSplineSet
EndChar

StartChar: Tbar
Encoding: 358 358 294
Width: 890
GlyphClass: 2
Flags: MW
HStem: 0 21G<370 520 370 370> 330 75<170 370 170 370 520 720> 575 85<30 860 30 370 520 520 520 860>
VStem: 370 150<0 330 0 330 405 575>
LayerCount: 2
Fore
SplineSet
30 575 m 1
 30 660 l 1
 860 660 l 1
 860 575 l 1
 520 575 l 1
 520 405 l 1
 720 405 l 1
 720 330 l 1
 520 330 l 1
 520 0 l 1
 370 0 l 1
 370 330 l 1
 170 330 l 1
 170 405 l 1
 370 405 l 1
 370 575 l 1
 30 575 l 1
EndSplineSet
EndChar

StartChar: tbar
Encoding: 359 359 295
Width: 480
GlyphClass: 2
Flags: MW
HStem: 0 75<270 280 280 420> 235 65<20 80 20 80 220 370> 405 75<220 420 220 420> 640 20G<80 220 220 220>
VStem: 80 140<115 235 90 235 300 405 480 660>
LayerCount: 2
Fore
SplineSet
20 235 m 1
 20 300 l 1
 80 300 l 1
 80 660 l 1
 220 660 l 1
 220 480 l 1
 420 480 l 1
 420 405 l 1
 220 405 l 1
 220 300 l 1
 370 300 l 1
 370 235 l 1
 220 235 l 1
 220 105 l 2
 220 75 245 75 270 75 c 2
 420 75 l 1
 420 0 l 1
 280 0 l 2
 180 0 80 0 80 115 c 2
 80 235 l 1
 20 235 l 1
EndSplineSet
EndChar

StartChar: Utilde
Encoding: 360 360 296
Width: 890
GlyphClass: 2
Flags: MW
HStem: 0 85<280 310 310 580> 640 20<70 220 220 220 670 820 820 820> 740 70<245 380> 810 70<320 380>
VStem: 70 150<135 660> 245 90<740 740> 555 90<880 880> 670 150<120 135 135 660>
LayerCount: 2
Fore
SplineSet
340 880 m 0x10
 365 880 375 875 445 840 c 0
 485 820 505 810 515 810 c 0x20
 530 810 540 820 555 880 c 1
 645 880 l 1x10
 620 775 590 740 550 740 c 0x20
 525 740 515 745 445 780 c 0
 405 800 385 810 375 810 c 0x10
 360 810 350 800 335 740 c 1
 245 740 l 1x20
 270 845 300 880 340 880 c 0x10
70 135 m 2xc9
 70 660 l 1
 220 660 l 1
 220 120 l 2
 220 85 250 85 280 85 c 2
 610 85 l 2
 640 85 670 85 670 120 c 2
 670 660 l 1
 820 660 l 1
 820 135 l 2
 820 0 700 0 580 0 c 2
 310 0 l 2
 190 0 70 0 70 135 c 2xc9
EndSplineSet
EndChar

StartChar: utilde
Encoding: 361 361 297
Width: 700
GlyphClass: 2
Flags: MW
HStem: 0 75<250 260 260 440> 460 20<60 200 200 200 500 640 640 640> 560 70<150 285> 630 70<225 285>
VStem: 60 140<115 480> 150 90<560 560> 460 90<700 700> 500 140<105 115 115 480>
LayerCount: 2
Fore
SplineSet
245 700 m 0x10
 270 700 280 695 350 660 c 0
 390 640 410 630 420 630 c 0x20
 435 630 445 640 460 700 c 1
 550 700 l 1x10
 525 595 495 560 455 560 c 0x20
 430 560 420 565 350 600 c 0
 310 620 290 630 280 630 c 0x10
 265 630 255 620 240 560 c 1
 150 560 l 1x20
 175 665 205 700 245 700 c 0x10
60 115 m 2xc9
 60 480 l 1
 200 480 l 1
 200 105 l 2
 200 75 225 75 250 75 c 2
 450 75 l 2
 475 75 500 75 500 105 c 2
 500 480 l 1
 640 480 l 1
 640 115 l 2
 640 0 540 0 440 0 c 2
 260 0 l 2
 160 0 60 0 60 115 c 2xc9
EndSplineSet
EndChar

StartChar: Umacron
Encoding: 362 362 298
Width: 890
GlyphClass: 2
Flags: MW
HStem: 0 85<280 310 310 580> 640 20<70 220 220 220 670 820 820 820> 765 75<265 625 265 625>
VStem: 70 150<135 660> 265 360<765 840 765 840> 670 150<120 135 135 660>
CounterMasks: 1 1c
LayerCount: 2
Fore
SplineSet
265 765 m 1
 265 840 l 1
 625 840 l 1
 625 765 l 1
 265 765 l 1
70 135 m 2
 70 660 l 1
 220 660 l 1
 220 120 l 2
 220 85 250 85 280 85 c 2
 610 85 l 2
 640 85 670 85 670 120 c 2
 670 660 l 1
 820 660 l 1
 820 135 l 2
 820 0 700 0 580 0 c 2
 310 0 l 2
 190 0 70 0 70 135 c 2
EndSplineSet
EndChar

StartChar: umacron
Encoding: 363 363 299
Width: 700
GlyphClass: 2
Flags: MW
HStem: 0 75<250 260 260 440> 460 20<60 200 200 200 500 640 640 640> 585 75<170 530 170 530>
VStem: 60 140<115 480> 170 360<585 660 585 660> 500 140<105 115 115 480>
LayerCount: 2
Fore
SplineSet
170 585 m 1x28
 170 660 l 1
 530 660 l 1
 530 585 l 1
 170 585 l 1x28
60 115 m 2xd4
 60 480 l 1
 200 480 l 1
 200 105 l 2
 200 75 225 75 250 75 c 2
 450 75 l 2
 475 75 500 75 500 105 c 2
 500 480 l 1
 640 480 l 1
 640 115 l 2
 640 0 540 0 440 0 c 2
 260 0 l 2
 160 0 60 0 60 115 c 2xd4
EndSplineSet
EndChar

StartChar: Ubreve
Encoding: 364 364 300
Width: 890
GlyphClass: 2
Flags: MW
HStem: 0 85<280 310 310 580> 640 20<70 220 220 220 670 820 820 820> 730 21<401 489>
VStem: 70 150<135 660> 285 75<866.5 890 866.5 890> 530 75<866.5 890> 670 150<120 135 135 660>
LayerCount: 2
Fore
SplineSet
285 890 m 1
 360 890 l 1
 360 843 398 805 445 805 c 0
 492 805 530 843 530 890 c 1
 605 890 l 1
 605 802 533 730 445 730 c 0
 357 730 285 802 285 890 c 1
70 135 m 2
 70 660 l 1
 220 660 l 1
 220 120 l 2
 220 85 250 85 280 85 c 2
 610 85 l 2
 640 85 670 85 670 120 c 2
 670 660 l 1
 820 660 l 1
 820 135 l 2
 820 0 700 0 580 0 c 2
 310 0 l 2
 190 0 70 0 70 135 c 2
EndSplineSet
EndChar

StartChar: ubreve
Encoding: 365 365 301
Width: 700
GlyphClass: 2
Flags: MW
HStem: 0 75<250 260 260 440> 460 20<60 200 200 200 500 640 640 640> 550 21<306 394>
VStem: 60 140<115 480> 190 75<686.5 710 686.5 710> 435 75<686.5 710> 500 140<105 115 115 480>
LayerCount: 2
Fore
SplineSet
190 710 m 1x2c
 265 710 l 1
 265 663 303 625 350 625 c 0
 397 625 435 663 435 710 c 1
 510 710 l 1
 510 622 438 550 350 550 c 0
 262 550 190 622 190 710 c 1x2c
60 115 m 2xd2
 60 480 l 1
 200 480 l 1
 200 105 l 2
 200 75 225 75 250 75 c 2
 450 75 l 2
 475 75 500 75 500 105 c 2
 500 480 l 1
 640 480 l 1
 640 115 l 2
 640 0 540 0 440 0 c 2
 260 0 l 2
 160 0 60 0 60 115 c 2xd2
EndSplineSet
EndChar

StartChar: Uring
Encoding: 366 366 302
Width: 890
GlyphClass: 2
Flags: MW
HStem: 0 85<280 310 310 580> 640 20<70 220 220 220 350 390 390 500 670 820 820 820> 660 21<70 220 220 220 350 390 390 500 670 820 820 820> 840 50<390 400 400 490>
VStem: 70 150<135 660> 270 100<745 805 805 820 723.5 833.5> 520 100<730 745 745 805 716.5 820 716.5 826.5> 670 150<120 135 135 660>
LayerCount: 2
Fore
SplineSet
270 745 m 2x36
 270 805 l 2
 270 862 310 890 390 890 c 2
 500 890 l 2
 580 890 620 862 620 805 c 2
 620 745 l 2
 620 688 580 660 500 660 c 2
 390 660 l 2
 310 660 270 688 270 745 c 2x36
370 730 m 2
 370 717 380 710 400 710 c 2
 490 710 l 2
 510 710 520 717 520 730 c 2
 520 820 l 2
 520 833 510 840 490 840 c 2
 400 840 l 2
 380 840 370 833 370 820 c 2
 370 730 l 2
70 135 m 2xc9
 70 660 l 1
 220 660 l 1
 220 120 l 2
 220 85 250 85 280 85 c 2
 610 85 l 2
 640 85 670 85 670 120 c 2
 670 660 l 1
 820 660 l 1
 820 135 l 2
 820 0 700 0 580 0 c 2
 310 0 l 2
 190 0 70 0 70 135 c 2xc9
EndSplineSet
EndChar

StartChar: uring
Encoding: 367 367 303
Width: 700
GlyphClass: 2
Flags: MW
HStem: 0 75<250 260 260 440> 460 20<60 200 200 200 500 640 640 640> 550 21<255 295 295 405> 730 50<295 305 305 395>
VStem: 60 140<115 480> 175 100<635 695 695 710 613.5 723.5> 425 100<620 635 635 695 606.5 710 606.5 716.5> 500 140<105 115 115 480>
LayerCount: 2
Fore
SplineSet
175 635 m 2x36
 175 695 l 2
 175 752 215 780 295 780 c 2
 405 780 l 2
 485 780 525 752 525 695 c 2
 525 635 l 2
 525 578 485 550 405 550 c 2
 295 550 l 2
 215 550 175 578 175 635 c 2x36
275 620 m 2
 275 607 285 600 305 600 c 2
 395 600 l 2
 415 600 425 607 425 620 c 2
 425 710 l 2
 425 723 415 730 395 730 c 2
 305 730 l 2
 285 730 275 723 275 710 c 2
 275 620 l 2
60 115 m 2xc9
 60 480 l 1
 200 480 l 1
 200 105 l 2
 200 75 225 75 250 75 c 2
 450 75 l 2
 475 75 500 75 500 105 c 2
 500 480 l 1
 640 480 l 1
 640 115 l 2
 640 0 540 0 440 0 c 2
 260 0 l 2
 160 0 60 0 60 115 c 2xc9
EndSplineSet
EndChar

StartChar: Uhungarumlaut
Encoding: 368 368 304
Width: 890
GlyphClass: 2
Flags: MW
HStem: 0 85<280 310 310 580> 640 20<70 220 220 220 670 820 820 820> 730 160<265 465 265 465 345 565 345 485>
VStem: 70 150<135 660> 265 200<730 890> 485 200<730 890> 670 150<120 135 135 660>
LayerCount: 2
Fore
SplineSet
265 730 m 1x2c
 345 890 l 1
 465 890 l 1
 345 730 l 1
 265 730 l 1x2c
485 730 m 1
 565 890 l 1
 685 890 l 1
 565 730 l 1
 485 730 l 1
70 135 m 2xd2
 70 660 l 1
 220 660 l 1
 220 120 l 2
 220 85 250 85 280 85 c 2
 610 85 l 2
 640 85 670 85 670 120 c 2
 670 660 l 1
 820 660 l 1
 820 135 l 2
 820 0 700 0 580 0 c 2
 310 0 l 2
 190 0 70 0 70 135 c 2xd2
EndSplineSet
EndChar

StartChar: uhungarumlaut
Encoding: 369 369 305
Width: 700
GlyphClass: 2
Flags: MW
HStem: 0 75<250 260 260 440> 460 20<60 200 200 200 500 640 640 640> 550 160<170 370 170 370 250 470 250 390>
VStem: 60 140<115 480> 170 200<550 710> 390 200<550 710> 500 140<105 115 115 480>
LayerCount: 2
Fore
SplineSet
170 550 m 1x2c
 250 710 l 1
 370 710 l 1
 250 550 l 1
 170 550 l 1x2c
390 550 m 1
 470 710 l 1
 590 710 l 1
 470 550 l 1
 390 550 l 1
60 115 m 2xd2
 60 480 l 1
 200 480 l 1
 200 105 l 2
 200 75 225 75 250 75 c 2
 450 75 l 2
 475 75 500 75 500 105 c 2
 500 480 l 1
 640 480 l 1
 640 115 l 2
 640 0 540 0 440 0 c 2
 260 0 l 2
 160 0 60 0 60 115 c 2xd2
EndSplineSet
EndChar

StartChar: Uogonek
Encoding: 370 370 306
Width: 890
GlyphClass: 2
Flags: MW
HStem: -225 50<510 580 570 580 570 580> -20 20<250 310 310 580 480 580 580 580> 0 85<280 310 310 580 480 580 580 580> 640 20<70 220 220 220 670 820 820 820>
VStem: 70 150<135 660> 390 100<-150 -117.5> 670 150<120 135 135 660>
LayerCount: 2
Fore
SplineSet
390 -135 m 0xc4
 390 -100 410 -70 480 0 c 1
 580 0 l 1
 505 -75 490 -100 490 -130 c 0
 490 -170 530 -175 570 -175 c 2
 580 -175 l 1
 580 -225 l 1
 550 -225 l 2
 470 -225 390 -215 390 -135 c 0xc4
70 135 m 2x3a
 70 660 l 1
 220 660 l 1
 220 120 l 2
 220 85 250 85 280 85 c 2
 610 85 l 2
 640 85 670 85 670 120 c 2
 670 660 l 1
 820 660 l 1
 820 135 l 2
 820 0 700 0 580 0 c 2
 310 0 l 2
 190 0 70 0 70 135 c 2x3a
EndSplineSet
EndChar

StartChar: uogonek
Encoding: 371 371 307
Width: 700
GlyphClass: 2
Flags: MW
HStem: -225 50<370 440 430 440 430 440> -20 20<210 260 260 440 340 440 440 440> 0 75<250 260 260 440 340 440 440 440> 460 20<60 200 200 200 500 640 640 640>
VStem: 60 140<115 480> 250 100<-150 -117.5> 500 140<105 115 115 480>
LayerCount: 2
Fore
SplineSet
250 -135 m 0xc4
 250 -100 270 -70 340 0 c 1
 440 0 l 1
 365 -75 350 -100 350 -130 c 0
 350 -170 390 -175 430 -175 c 2
 440 -175 l 1
 440 -225 l 1
 410 -225 l 2
 330 -225 250 -215 250 -135 c 0xc4
60 115 m 2x3a
 60 480 l 1
 200 480 l 1
 200 105 l 2
 200 75 225 75 250 75 c 2
 450 75 l 2
 475 75 500 75 500 105 c 2
 500 480 l 1
 640 480 l 1
 640 115 l 2
 640 0 540 0 440 0 c 2
 260 0 l 2
 160 0 60 0 60 115 c 2x3a
EndSplineSet
EndChar

StartChar: Wcircumflex
Encoding: 372 372 308
Width: 1200
GlyphClass: 2
Flags: MW
HStem: 0 21<240 430 240 240 770 960 770 770> 640 20<20 170 170 170 1030 1180 1180 1180> 730 160<400 640 560 700 560 800>
LayerCount: 2
Fore
SplineSet
400 730 m 1
 560 890 l 1
 640 890 l 1
 800 730 l 1
 700 730 l 1
 600 820 l 1
 500 730 l 1
 400 730 l 1
20 660 m 1
 170 660 l 1
 345 135 l 1
 510 630 l 1
 690 630 l 1
 855 135 l 1
 1030 660 l 1
 1180 660 l 1
 960 0 l 1
 770 0 l 1
 600 510 l 1
 430 0 l 1
 240 0 l 1
 20 660 l 1
EndSplineSet
EndChar

StartChar: wcircumflex
Encoding: 373 373 309
Width: 880
GlyphClass: 2
Flags: MW
HStem: 0 21<180 330 180 180 550 700 550 550> 460 20<20 150 150 150 730 860 860 860> 550 160<240 480 400 540 400 640>
LayerCount: 2
Fore
SplineSet
240 550 m 1
 400 710 l 1
 480 710 l 1
 640 550 l 1
 540 550 l 1
 440 640 l 1
 340 550 l 1
 240 550 l 1
20 480 m 1
 150 480 l 1
 265 135 l 1
 370 450 l 1
 510 450 l 1
 615 135 l 1
 730 480 l 1
 860 480 l 1
 700 0 l 1
 550 0 l 1
 440 330 l 1
 330 0 l 1
 180 0 l 1
 20 480 l 1
EndSplineSet
EndChar

StartChar: Ycircumflex
Encoding: 374 374 310
Width: 890
GlyphClass: 2
Flags: MW
HStem: 0 21<370 520 370 370> 640 20<20 200 200 200 690 870 870 870> 730 160<245 485 405 545 405 645>
VStem: 370 150<0 310 0 310>
LayerCount: 2
Fore
SplineSet
245 730 m 1
 405 890 l 1
 485 890 l 1
 645 730 l 1
 545 730 l 1
 445 820 l 1
 345 730 l 1
 245 730 l 1
20 660 m 1
 200 660 l 1
 445 415 l 1
 690 660 l 1
 870 660 l 1
 520 310 l 1
 520 0 l 1
 370 0 l 1
 370 310 l 1
 20 660 l 1
EndSplineSet
EndChar

StartChar: ycircumflex
Encoding: 375 375 311
Width: 680
GlyphClass: 2
Flags: MW
HStem: -225 75<80 160 160 182.5 80 210 80 160> 460 20<20 160 160 160 520 660 660 660> 550 160<140 380 300 440 300 540>
VStem: 80 21<-225 -150 -150 -150>
LayerCount: 2
Fore
SplineSet
140 550 m 1
 300 710 l 1
 380 710 l 1
 540 550 l 1
 440 550 l 1
 340 640 l 1
 240 550 l 1
 140 550 l 1
20 480 m 1
 160 480 l 1
 340 120 l 1
 520 480 l 1
 660 480 l 1
 360 -120 l 2
 330 -180 305 -225 210 -225 c 2
 80 -225 l 1
 80 -150 l 1
 160 -150 l 2
 205 -150 210 -140 225 -110 c 2
 270 -20 l 1
 20 480 l 1
EndSplineSet
EndChar

StartChar: Ydieresis
Encoding: 376 376 312
Width: 890
GlyphClass: 2
Flags: MW
HStem: 0 21<370 520 370 370> 640 20<20 200 200 200 690 870 870 870> 760 100<270 390 270 390 500 620>
VStem: 270 120<760 860 760 860> 370 150<0 310 0 310> 500 120<760 860 760 860>
LayerCount: 2
Fore
SplineSet
270 760 m 1x34
 270 860 l 1
 390 860 l 1
 390 760 l 1
 270 760 l 1x34
500 760 m 1
 500 860 l 1
 620 860 l 1
 620 760 l 1
 500 760 l 1
20 660 m 1xc8
 200 660 l 1
 445 415 l 1
 690 660 l 1
 870 660 l 1
 520 310 l 1
 520 0 l 1
 370 0 l 1
 370 310 l 1
 20 660 l 1xc8
EndSplineSet
EndChar

StartChar: Zacute
Encoding: 377 377 313
Width: 850
GlyphClass: 2
Flags: MW
HStem: 0 85<50 50 245 800> 575 85<70 585 70 780 70 780> 730 160<335 585 335 585>
VStem: 50 730<0 660 85 660> 335 250<575 730>
LayerCount: 2
Fore
SplineSet
335 730 m 1x28
 435 890 l 1
 585 890 l 1
 425 730 l 1
 335 730 l 1x28
50 0 m 1xd0
 50 85 l 1
 585 575 l 1
 70 575 l 1
 70 660 l 1
 780 660 l 1
 780 575 l 1
 245 85 l 1
 800 85 l 1
 800 0 l 1
 50 0 l 1xd0
EndSplineSet
EndChar

StartChar: zacute
Encoding: 378 378 314
Width: 680
GlyphClass: 2
Flags: MW
HStem: 0 75<50 50 225 630> 405 75<70 435 70 610 70 610> 550 160<250 500 250 500>
VStem: 50 560<0 480 75 480> 250 250<550 710>
LayerCount: 2
Fore
SplineSet
250 550 m 1x28
 350 710 l 1
 500 710 l 1
 340 550 l 1
 250 550 l 1x28
50 0 m 1xd0
 50 75 l 1
 435 405 l 1
 70 405 l 1
 70 480 l 1
 610 480 l 1
 610 405 l 1
 225 75 l 1
 630 75 l 1
 630 0 l 1
 50 0 l 1xd0
EndSplineSet
EndChar

StartChar: Zdotaccent
Encoding: 379 379 315
Width: 850
GlyphClass: 2
Flags: MW
HStem: 0 85<50 50 245 800> 575 85<70 585 70 780 70 780> 760 100<365 485 365 485>
VStem: 50 730<0 660 85 660> 365 120<760 860 760 860>
LayerCount: 2
Fore
SplineSet
365 760 m 1x28
 365 860 l 1
 485 860 l 1
 485 760 l 1
 365 760 l 1x28
50 0 m 1xd0
 50 85 l 1
 585 575 l 1
 70 575 l 1
 70 660 l 1
 780 660 l 1
 780 575 l 1
 245 85 l 1
 800 85 l 1
 800 0 l 1
 50 0 l 1xd0
EndSplineSet
EndChar

StartChar: zdotaccent
Encoding: 380 380 316
Width: 680
GlyphClass: 2
Flags: MW
HStem: 0 75<50 50 225 630> 405 75<70 435 70 610 70 610> 580 100<280 400 280 400>
VStem: 50 560<0 480 75 480> 280 120<580 680 580 680>
LayerCount: 2
Fore
SplineSet
280 580 m 1x28
 280 680 l 1
 400 680 l 1
 400 580 l 1
 280 580 l 1x28
50 0 m 1xd0
 50 75 l 1
 435 405 l 1
 70 405 l 1
 70 480 l 1
 610 480 l 1
 610 405 l 1
 225 75 l 1
 630 75 l 1
 630 0 l 1
 50 0 l 1xd0
EndSplineSet
EndChar

StartChar: Zcaron
Encoding: 381 381 317
Width: 850
GlyphClass: 2
Flags: MW
HStem: 0 85<50 50 245 800> 575 85<70 585 70 780 70 780> 730 160<225 465 225 385>
VStem: 50 730<0 660 85 660>
LayerCount: 2
Fore
SplineSet
225 890 m 1
 325 890 l 1
 425 800 l 1
 525 890 l 1
 625 890 l 1
 465 730 l 1
 385 730 l 1
 225 890 l 1
50 0 m 1
 50 85 l 1
 585 575 l 1
 70 575 l 1
 70 660 l 1
 780 660 l 1
 780 575 l 1
 245 85 l 1
 800 85 l 1
 800 0 l 1
 50 0 l 1
EndSplineSet
EndChar

StartChar: zcaron
Encoding: 382 382 318
Width: 680
GlyphClass: 2
Flags: MW
HStem: 0 75<50 50 225 630> 405 75<70 435 70 610 70 610> 550 160<140 380 140 300>
VStem: 50 560<0 480 75 480>
LayerCount: 2
Fore
SplineSet
140 710 m 1
 240 710 l 1
 340 620 l 1
 440 710 l 1
 540 710 l 1
 380 550 l 1
 300 550 l 1
 140 710 l 1
50 0 m 1
 50 75 l 1
 435 405 l 1
 70 405 l 1
 70 480 l 1
 610 480 l 1
 610 405 l 1
 225 75 l 1
 630 75 l 1
 630 0 l 1
 50 0 l 1
EndSplineSet
EndChar

StartChar: longs
Encoding: 383 383 319
Width: 560
GlyphClass: 2
Flags: MW
HStem: 0 21G<160 300 160 160> 405 75<60 160 60 160> 585 75<337.5 500 360 500 360 500>
VStem: 160 140<0 405 405 405 480 545 545 555 0 602.5>
LayerCount: 2
Fore
SplineSet
60 405 m 1
 60 480 l 1
 160 480 l 1
 160 545 l 2
 160 660 260 660 360 660 c 2
 500 660 l 1
 500 585 l 1
 350 585 l 2
 325 585 300 585 300 555 c 2
 300 0 l 1
 160 0 l 1
 160 405 l 1
 60 405 l 1
EndSplineSet
EndChar

StartChar: florin
Encoding: 402 402 320
Width: 560
GlyphClass: 2
Flags: MW
HStem: -225 75<20 100 20 110> 405 75<60 160 60 160 300 500> 585 75<337.5 500 360 500 360 500>
VStem: 160 140<-120 -110 -110 405 480 545 545 555>
LayerCount: 2
Fore
SplineSet
20 -150 m 1
 110 -150 l 2
 135 -150 160 -150 160 -120 c 2
 160 405 l 1
 60 405 l 1
 60 480 l 1
 160 480 l 1
 160 545 l 2
 160 660 260 660 360 660 c 2
 500 660 l 1
 500 585 l 1
 350 585 l 2
 325 585 300 585 300 555 c 2
 300 480 l 1
 500 480 l 1
 500 405 l 1
 300 405 l 1
 300 -110 l 2
 300 -225 200 -225 100 -225 c 2
 20 -225 l 1
 20 -150 l 1
EndSplineSet
EndChar

StartChar: Aringacute
Encoding: 506 506 321
Width: 890
GlyphClass: 2
Flags: MW
HStem: 0 21<20 20 20 170 720 720 720 870> 210 80<315 575 315 615 275 575> 640 20<350 390 350 540 390 500 540 540> 660 21<350 390 350 540 390 500 540 540> 730 160<370 500 520 520 390 730 390 640> 840 50<390 400 400 490>
VStem: 270 100<745 805 805 820 723.5 833.5> 520 100<730 745 745 805 716.5 820 716.5 826.5> 640 250<730 890>
LayerCount: 2
Fore
SplineSet
270 745 m 2x17
 270 805 l 2
 270 862 310 890 390 890 c 2
 500 890 l 2
 580 890 620 862 620 805 c 2
 620 745 l 2
 620 688 580 660 500 660 c 2
 390 660 l 2
 310 660 270 688 270 745 c 2x17
370 730 m 2
 370 717 380 710 400 710 c 2
 490 710 l 2
 510 710 520 717 520 730 c 2
 520 820 l 2
 520 833 510 840 490 840 c 2
 400 840 l 2
 380 840 370 833 370 820 c 2
 370 730 l 2
20 0 m 1xe0
 350 660 l 1
 540 660 l 1
 870 0 l 1
 720 0 l 1
 615 210 l 1
 275 210 l 1
 170 0 l 1
 20 0 l 1xe0
315 290 m 1
 575 290 l 1
 445 550 l 1
 315 290 l 1
640 730 m 1x0880
 740 890 l 1
 890 890 l 1
 730 730 l 1
 640 730 l 1x0880
EndSplineSet
EndChar

StartChar: aringacute
Encoding: 507 507 322
Width: 760
GlyphClass: 2
Flags: MW
HStem: 0 75<250 260 260 500 250 640> 225 75<237.5 500 260 500 260 500> 405 75<100 440 440 450 100 440> 550 21<255 295 295 405> 730 50<295 305 305 395> 730 160<545 795 545 795>
VStem: 60 140<115 185 185 195 90 242.5> 175 100<635 695 695 710 613.5 723.5> 425 100<620 635 635 695 606.5 710 606.5 716.5> 500 140<75 225 225 225 300 365 0 375 0 390> 545 250<730 890>
LayerCount: 2
Fore
SplineSet
175 635 m 2x1980
 175 695 l 2
 175 752 215 780 295 780 c 2
 405 780 l 2
 485 780 525 752 525 695 c 2
 525 635 l 2
 525 578 485 550 405 550 c 2
 295 550 l 2
 215 550 175 578 175 635 c 2x1980
275 620 m 2
 275 607 285 600 305 600 c 2
 395 600 l 2
 415 600 425 607 425 620 c 2
 425 710 l 2
 425 723 415 730 395 730 c 2
 305 730 l 2
 285 730 275 723 275 710 c 2
 275 620 l 2
60 115 m 2xe240
 60 185 l 2
 60 300 160 300 260 300 c 2
 500 300 l 1
 500 375 l 2
 500 405 475 405 450 405 c 2
 100 405 l 1
 100 480 l 1
 440 480 l 2
 540 480 640 480 640 365 c 2
 640 0 l 1
 260 0 l 2
 160 0 60 0 60 115 c 2xe240
200 105 m 2
 200 75 225 75 250 75 c 2
 500 75 l 1
 500 225 l 1
 250 225 l 2
 225 225 200 225 200 195 c 2
 200 105 l 2
545 730 m 1x0420
 645 890 l 1
 795 890 l 1
 635 730 l 1
 545 730 l 1x0420
EndSplineSet
EndChar

StartChar: AEacute
Encoding: 508 508 323
Width: 1290
GlyphClass: 2
Flags: MW
HStem: 0 85<720 1220 720 1220> 210 80<315 570 315 570 275 570> 325 85<720 1170 720 1170> 575 85<457 570 457 457 720 1220 720 720> 730 160<555 805 555 805>
VStem: 555 250<730 890> 570 150<85 210 210 210 290 325 410 575>
LayerCount: 2
Fore
SplineSet
555 730 m 1x0c
 655 890 l 1
 805 890 l 1
 645 730 l 1
 555 730 l 1x0c
20 0 m 1xf2
 350 660 l 1
 1220 660 l 1
 1220 575 l 1
 720 575 l 1
 720 410 l 1
 1170 410 l 1
 1170 325 l 1
 720 325 l 1
 720 85 l 1
 1220 85 l 1
 1220 0 l 1
 570 0 l 1
 570 210 l 1
 275 210 l 1
 170 0 l 1
 20 0 l 1xf2
315 290 m 1
 570 290 l 1
 570 575 l 1
 457 575 l 1
 315 290 l 1
EndSplineSet
EndChar

StartChar: aeacute
Encoding: 509 509 324
Width: 1140
GlyphClass: 2
Flags: MW
HStem: 0 75<250 260 260 500 690 1060> 225 75<237.5 500 260 500 260 500 640 940> 405 75<100 450 100 880 677.5 690 690 880 880 890> 550 160<480 730 480 730>
VStem: 60 140<115 185 185 195 90 242.5> 480 250<550 710> 500 140<90 105 105 225 90 225 300 375> 940 140<300 365 225 375 225 390>
LayerCount: 2
Fore
SplineSet
480 550 m 1x14
 580 710 l 1
 730 710 l 1
 570 550 l 1
 480 550 l 1x14
60 115 m 2xeb
 60 185 l 2
 60 300 160 300 260 300 c 2
 500 300 l 1
 500 375 l 2
 500 405 475 405 450 405 c 2
 100 405 l 1
 100 480 l 1
 880 480 l 2
 980 480 1080 480 1080 365 c 2
 1080 225 l 1
 640 225 l 1
 640 105 l 2
 640 75 665 75 690 75 c 2
 1060 75 l 1
 1060 0 l 1
 260 0 l 2
 160 0 60 0 60 115 c 2xeb
200 105 m 2
 200 75 225 75 250 75 c 2
 500 75 l 1
 500 225 l 1
 250 225 l 2
 225 225 200 225 200 195 c 2
 200 105 l 2
640 300 m 1
 940 300 l 1
 940 375 l 2
 940 405 915 405 890 405 c 2
 690 405 l 2
 665 405 640 405 640 375 c 2
 640 300 l 1
EndSplineSet
EndChar

StartChar: Oslashacute
Encoding: 510 510 325
Width: 990
GlyphClass: 2
Flags: MW
HStem: 0 85<330 360 360 630> 575 85<315 630 360 630 630 660> 730 160<405 655 405 655>
VStem: 120 150<102.5 120 120 135 285 525 525 540> 405 250<730 890> 720 150<120 135 135 375 375 375 525 540 540 557.5>
LayerCount: 2
Fore
SplineSet
405 730 m 1
 505 890 l 1
 655 890 l 1
 495 730 l 1
 405 730 l 1
20 95 m 1
 20 185 l 1
 120 225 l 1
 120 525 l 2
 120 660 240 660 360 660 c 2
 630 660 l 2
 750 660 870 660 870 525 c 1
 970 565 l 1
 970 475 l 1
 870 435 l 1
 870 135 l 2
 870 0 750 0 630 0 c 2
 360 0 l 2
 240 0 120 0 120 135 c 1
 20 95 l 1
270 120 m 2
 270 85 300 85 330 85 c 2
 660 85 l 2
 690 85 720 85 720 120 c 2
 720 375 l 1
 270 195 l 1
 270 120 l 2
270 285 m 1
 720 465 l 1
 720 540 l 2
 720 575 690 575 660 575 c 2
 330 575 l 2
 300 575 270 575 270 540 c 2
 270 285 l 1
EndSplineSet
EndChar

StartChar: oslashacute
Encoding: 511 511 326
Width: 780
GlyphClass: 2
Flags: MW
HStem: 0 75<290 300 300 480> 405 75<277.5 480 300 480 480 490> 550 160<300 550 300 550>
VStem: 100 140<90 105 105 115 233 365 365 375> 300 250<480 710 550 710> 540 140<105 115 115 247 247 247 365 375 375 390>
LayerCount: 2
Fore
SplineSet
300 550 m 1x28
 400 710 l 1
 550 710 l 1
 390 550 l 1
 300 550 l 1x28
20 91 m 1xd4
 20 167 l 1
 100 191 l 1
 100 365 l 2
 100 480 200 480 300 480 c 2
 480 480 l 2
 580 480 680 480 680 365 c 1
 760 389 l 1
 760 313 l 1
 680 289 l 1
 680 115 l 2
 680 0 580 0 480 0 c 2
 300 0 l 2
 200 0 100 0 100 115 c 1
 20 91 l 1xd4
240 105 m 2
 240 75 265 75 290 75 c 2
 490 75 l 2
 515 75 540 75 540 105 c 2
 540 247 l 1
 240 157 l 1
 240 105 l 2
240 233 m 1
 540 323 l 1
 540 375 l 2
 540 405 515 405 490 405 c 2
 290 405 l 2
 265 405 240 405 240 375 c 2
 240 233 l 1
EndSplineSet
EndChar

StartChar: Scommaaccent
Encoding: 536 536 327
Width: 890
GlyphClass: 2
Flags: MW
HStem: -225 155<365 525 395 465> 0 85<70 610 70 580> 325 85<280 310 310 580 580 610> 575 85<265 770 310 770 310 770>
VStem: 70 150<460 525 525 540 427.5 592.5> 365 160<-225 -70> 670 150<120 135 135 275 67.5 290>
CounterMasks: 1 0e
LayerCount: 2
Fore
SplineSet
365 -225 m 1
 395 -70 l 1
 525 -70 l 1
 465 -225 l 1
 365 -225 l 1
70 0 m 1
 70 85 l 1
 610 85 l 2
 640 85 670 85 670 120 c 2
 670 290 l 2
 670 325 640 325 610 325 c 2
 310 325 l 2
 190 325 70 325 70 460 c 2
 70 525 l 2
 70 660 190 660 310 660 c 2
 770 660 l 1
 770 575 l 1
 280 575 l 2
 250 575 220 575 220 540 c 2
 220 445 l 2
 220 410 250 410 280 410 c 2
 580 410 l 2
 700 410 820 410 820 275 c 2
 820 135 l 2
 820 0 700 0 580 0 c 2
 70 0 l 1
EndSplineSet
EndChar

StartChar: scommaaccent
Encoding: 537 537 328
Width: 700
GlyphClass: 2
Flags: MW
HStem: -225 155<270 430 300 370> 0 75<60 450 60 440> 225 75<250 260 260 440 440 450> 405 75<237.5 600 260 600 260 600>
VStem: 60 140<340 365 365 375 315 422.5> 270 160<-225 -70> 500 140<105 115 115 185 57.5 195 57.5 210>
CounterMasks: 1 0e
LayerCount: 2
Fore
SplineSet
270 -225 m 1
 300 -70 l 1
 430 -70 l 1
 370 -225 l 1
 270 -225 l 1
60 0 m 1
 60 75 l 1
 450 75 l 2
 475 75 500 75 500 105 c 2
 500 195 l 2
 500 225 475 225 450 225 c 2
 260 225 l 2
 160 225 60 225 60 340 c 2
 60 365 l 2
 60 480 160 480 260 480 c 2
 600 480 l 1
 600 405 l 1
 250 405 l 2
 225 405 200 405 200 375 c 2
 200 330 l 2
 200 300 225 300 250 300 c 2
 440 300 l 2
 540 300 640 300 640 185 c 2
 640 115 l 2
 640 0 540 0 440 0 c 2
 60 0 l 1
EndSplineSet
EndChar

StartChar: uni021A
Encoding: 538 538 329
Width: 890
GlyphClass: 2
Flags: MW
HStem: -225 155<350 510 380 450> 0 21<370 520 370 370> 575 85<30 860 30 370 520 520 520 860>
VStem: 350 160<-225 -70> 370 150<0 575 0 575>
LayerCount: 2
Fore
SplineSet
350 -225 m 1x90
 380 -70 l 1
 510 -70 l 1
 450 -225 l 1
 350 -225 l 1x90
30 575 m 1x68
 30 660 l 1
 860 660 l 1
 860 575 l 1
 520 575 l 1
 520 0 l 1
 370 0 l 1
 370 575 l 1
 30 575 l 1x68
EndSplineSet
EndChar

StartChar: uni021B
Encoding: 539 539 330
Width: 460
GlyphClass: 2
Flags: MW
HStem: -225 155<140 300 170 240> 0 75<250 260 260 400> 405 75<200 400 200 400> 640 20<60 200 200 200>
VStem: 60 140<115 405 480 660> 140 160<-225 -70>
LayerCount: 2
Fore
SplineSet
140 -225 m 1x84
 170 -70 l 1
 300 -70 l 1
 240 -225 l 1
 140 -225 l 1x84
60 115 m 2x78
 60 660 l 1
 200 660 l 1
 200 480 l 1
 400 480 l 1
 400 405 l 1
 200 405 l 1
 200 105 l 2
 200 75 225 75 250 75 c 2
 400 75 l 1
 400 0 l 1
 260 0 l 2
 160 0 60 0 60 115 c 2x78
EndSplineSet
EndChar

StartChar: uni0237
Encoding: 567 567 331
Width: 260
GlyphClass: 2
Flags: MW
HStem: -225 75<-50 -50> 460 20G<60 200 200 200>
VStem: -50 21G<-225 -150 -150 -150> 60 140<0 480>
LayerCount: 2
Fore
SplineSet
-50 -150 m 1
 30 -130 60 -90 60 0 c 2
 60 480 l 1
 200 480 l 1
 200 0 l 2
 200 -200 50 -215 -50 -225 c 1
 -50 -150 l 1
EndSplineSet
EndChar

StartChar: afii57929
Encoding: 700 700 332
Width: 320
GlyphClass: 2
Flags: MW
HStem: 460 200<75 245 125 165>
VStem: 75 170
LayerCount: 2
Fore
SplineSet
75 460 m 1
 125 660 l 1
 245 660 l 1
 165 460 l 1
 75 460 l 1
EndSplineSet
EndChar

StartChar: circumflex
Encoding: 710 710 333
Width: 500
GlyphClass: 2
Flags: MW
HStem: 550 160<50 290 210 350 210 450>
LayerCount: 2
Fore
SplineSet
50 550 m 1
 210 710 l 1
 290 710 l 1
 450 550 l 1
 350 550 l 1
 250 640 l 1
 150 550 l 1
 50 550 l 1
EndSplineSet
EndChar

StartChar: caron
Encoding: 711 711 334
Width: 500
GlyphClass: 2
Flags: MW
HStem: 550 160<50 290 50 210>
LayerCount: 2
Fore
SplineSet
50 710 m 1
 150 710 l 1
 250 620 l 1
 350 710 l 1
 450 710 l 1
 290 550 l 1
 210 550 l 1
 50 710 l 1
EndSplineSet
EndChar

StartChar: uni02C9
Encoding: 713 713 335
Width: 500
GlyphClass: 2
Flags: MW
HStem: 585 75<70 430 70 430>
VStem: 70 360<585 660 585 660>
LayerCount: 2
Fore
SplineSet
70 585 m 1
 70 660 l 1
 430 660 l 1
 430 585 l 1
 70 585 l 1
EndSplineSet
EndChar

StartChar: breve
Encoding: 728 728 336
Width: 500
GlyphClass: 2
Flags: MW
HStem: 550 21G<206 294>
VStem: 90 75<686.5 710 686.5 710> 335 75<686.5 710>
LayerCount: 2
Fore
SplineSet
90 710 m 1
 165 710 l 1
 165 663 203 625 250 625 c 0
 297 625 335 663 335 710 c 1
 410 710 l 1
 410 622 338 550 250 550 c 0
 162 550 90 622 90 710 c 1
EndSplineSet
EndChar

StartChar: dotaccent
Encoding: 729 729 337
Width: 500
GlyphClass: 2
Flags: MW
HStem: 580 100<190 310 190 310>
VStem: 190 120<580 680 580 680>
LayerCount: 2
Fore
SplineSet
190 580 m 1
 190 680 l 1
 310 680 l 1
 310 580 l 1
 190 580 l 1
EndSplineSet
EndChar

StartChar: ring
Encoding: 730 730 338
Width: 500
GlyphClass: 2
Flags: MW
HStem: 550 21G<155 195 195 305> 730 50<195 205 205 295>
VStem: 75 100<635 695 695 710 613.5 723.5> 325 100<620 635 635 695 606.5 710 606.5 716.5>
LayerCount: 2
Fore
SplineSet
75 635 m 2
 75 695 l 2
 75 752 115 780 195 780 c 2
 305 780 l 2
 385 780 425 752 425 695 c 2
 425 635 l 2
 425 578 385 550 305 550 c 2
 195 550 l 2
 115 550 75 578 75 635 c 2
175 620 m 2
 175 607 185 600 205 600 c 2
 295 600 l 2
 315 600 325 607 325 620 c 2
 325 710 l 2
 325 723 315 730 295 730 c 2
 205 730 l 2
 185 730 175 723 175 710 c 2
 175 620 l 2
EndSplineSet
EndChar

StartChar: ogonek
Encoding: 731 731 339
Width: 500
GlyphClass: 2
Flags: MW
HStem: -225 50<250 320 310 320 310 320> -20 20G<220 320 320 320>
VStem: 130 100<-150 -117.5>
LayerCount: 2
Fore
SplineSet
130 -135 m 0
 130 -100 150 -70 220 0 c 1
 320 0 l 1
 245 -75 230 -100 230 -130 c 0
 230 -170 270 -175 310 -175 c 2
 320 -175 l 1
 320 -225 l 1
 290 -225 l 2
 210 -225 130 -215 130 -135 c 0
EndSplineSet
EndChar

StartChar: tilde
Encoding: 732 732 340
Width: 500
GlyphClass: 2
Flags: MW
HStem: 560 70<50 185> 630 70<125 185>
VStem: 50 90<560 560> 360 90<700 700>
LayerCount: 2
Fore
SplineSet
145 700 m 0x40
 170 700 180 695 250 660 c 0
 290 640 310 630 320 630 c 0x80
 335 630 345 640 360 700 c 1
 450 700 l 1x40
 425 595 395 560 355 560 c 0x80
 330 560 320 565 250 600 c 0
 210 620 190 630 180 630 c 0x40
 165 630 155 620 140 560 c 1
 50 560 l 1x80
 75 665 105 700 145 700 c 0x40
EndSplineSet
EndChar

StartChar: hungarumlaut
Encoding: 733 733 341
Width: 500
GlyphClass: 2
Flags: MW
HStem: 550 160<70 270 70 270 150 370 150 290>
VStem: 70 200<550 710> 290 200<550 710>
LayerCount: 2
Fore
SplineSet
70 550 m 1
 150 710 l 1
 270 710 l 1
 150 550 l 1
 70 550 l 1
290 550 m 1
 370 710 l 1
 490 710 l 1
 370 550 l 1
 290 550 l 1
EndSplineSet
EndChar

StartChar: uni0312
Encoding: 786 786 342
Width: 0
GlyphClass: 2
Flags: MW
HStem: 550 250<-420 -240 -320 -290>
VStem: -420 180
LayerCount: 2
Fore
SplineSet
-420 550 m 1
 -320 800 l 1
 -240 800 l 1
 -290 550 l 1
 -420 550 l 1
EndSplineSet
EndChar

StartChar: uni0326
Encoding: 806 806 343
Width: 0
GlyphClass: 2
Flags: MW
HStem: -225 155<-430 -270 -400 -330>
VStem: -430 160<-225 -70>
LayerCount: 2
Fore
SplineSet
-430 -225 m 1
 -400 -70 l 1
 -270 -70 l 1
 -330 -225 l 1
 -430 -225 l 1
EndSplineSet
EndChar

StartChar: uni037A
Encoding: 890 890 344
Width: 500
GlyphClass: 2
Flags: MW
HStem: -225 50<310 330 310 330>
VStem: 170 100<-135 -50>
LayerCount: 2
Fore
SplineSet
170 -50 m 1
 270 -50 l 1
 270 -150 l 2
 270 -175 290 -175 310 -175 c 2
 330 -175 l 1
 330 -225 l 1
 250 -225 170 -225 170 -135 c 2
 170 -50 l 1
EndSplineSet
EndChar

StartChar: uni037E
Encoding: 894 894 345
Width: 330
GlyphClass: 2
Flags: MW
HStem: -150 270<45 245 105 125> 360 120<105 255 105 255>
VStem: 105 150<360 480 360 480>
LayerCount: 2
Fore
SplineSet
45 -150 m 1
 105 120 l 1
 245 120 l 1
 125 -150 l 1
 45 -150 l 1
105 360 m 1
 105 480 l 1
 255 480 l 1
 255 360 l 1
 105 360 l 1
EndSplineSet
EndChar

StartChar: tonos
Encoding: 900 900 346
Width: 500
GlyphClass: 2
Flags: MW
HStem: 550 160<170 360 230 260>
VStem: 170 190<550 710>
LayerCount: 2
Fore
SplineSet
170 550 m 1
 230 710 l 1
 360 710 l 1
 260 550 l 1
 170 550 l 1
EndSplineSet
EndChar

StartChar: dieresistonos
Encoding: 901 901 347
Width: 500
GlyphClass: 2
Flags: MW
HStem: 580 100<75 195 75 195 305 425> 730 160<170 360 230 260>
VStem: 75 120<580 680 580 680> 305 120<580 680 580 680>
LayerCount: 2
Fore
SplineSet
75 580 m 1
 75 680 l 1
 195 680 l 1
 195 580 l 1
 75 580 l 1
305 580 m 1
 305 680 l 1
 425 680 l 1
 425 580 l 1
 305 580 l 1
170 730 m 1
 230 890 l 1
 360 890 l 1
 260 730 l 1
 170 730 l 1
EndSplineSet
EndChar

